  0
SECTION
  2
HEADER
  9
$ACADVER
  1
AC1024
  9
$ACADMAINTVER
 70
     6
  9
$DWGCODEPAGE
  3
ANSI_1252
  9
$INSBASE
 10
0.0
 20
0.0
 30
0.0
  9
$EXTMIN
 10
1.000000000000000E+20
 20
1.000000000000000E+20
 30
1.000000000000000E+20
  9
$EXTMAX
 10
-1.000000000000000E+20
 20
-1.000000000000000E+20
 30
-1.000000000000000E+20
  9
$LIMMIN
 10
0.0
 20
0.0
  9
$LIMMAX
 10
12.0
 20
9.0
  9
$ORTHOMODE
 70
     0
  9
$REGENMODE
 70
     1
  9
$FILLMODE
 70
     1
  9
$QTEXTMODE
 70
     0
  9
$MIRRTEXT
 70
     1
  9
$LTSCALE
 40
1.0
  9
$ATTMODE
 70
     1
  9
$TEXTSIZE
 40
0.2
  9
$TRACEWID
 40
0.05
  9
$TEXTSTYLE
  7
Standard
  9
$CLAYER
  8
0
  9
$CELTYPE
  6
ByLayer
  9
$CECOLOR
 62
   256
  9
$CELTSCALE
 40
1.0
  9
$DISPSILH
 70
     0
  9
$DIMSCALE
 40
1.0
  9
$DIMASZ
 40
0.18
  9
$DIMEXO
 40
0.0625
  9
$DIMDLI
 40
0.38
  9
$DIMRND
 40
0.0
  9
$DIMDLE
 40
0.0
  9
$DIMEXE
 40
0.18
  9
$DIMTP
 40
0.0
  9
$DIMTM
 40
0.0
  9
$DIMTXT
 40
0.18
  9
$DIMCEN
 40
0.09
  9
$DIMTSZ
 40
0.0
  9
$DIMTOL
 70
     0
  9
$DIMLIM
 70
     0
  9
$DIMTIH
 70
     1
  9
$DIMTOH
 70
     1
  9
$DIMSE1
 70
     0
  9
$DIMSE2
 70
     0
  9
$DIMTAD
 70
     0
  9
$DIMZIN
 70
     0
  9
$DIMBLK
  1

  9
$DIMASO
 70
     1
  9
$DIMSHO
 70
     1
  9
$DIMPOST
  1

  9
$DIMAPOST
  1

  9
$DIMALT
 70
     0
  9
$DIMALTD
 70
     2
  9
$DIMALTF
 40
25.4
  9
$DIMLFAC
 40
1.0
  9
$DIMTOFL
 70
     0
  9
$DIMTVP
 40
0.0
  9
$DIMTIX
 70
     0
  9
$DIMSOXD
 70
     0
  9
$DIMSAH
 70
     0
  9
$DIMBLK1
  1

  9
$DIMBLK2
  1

  9
$DIMSTYLE
  2
Standard
  9
$DIMCLRD
 70
     0
  9
$DIMCLRE
 70
     0
  9
$DIMCLRT
 70
     0
  9
$DIMTFAC
 40
1.0
  9
$DIMGAP
 40
0.09
  9
$DIMJUST
 70
     0
  9
$DIMSD1
 70
     0
  9
$DIMSD2
 70
     0
  9
$DIMTOLJ
 70
     1
  9
$DIMTZIN
 70
     0
  9
$DIMALTZ
 70
     0
  9
$DIMALTTZ
 70
     0
  9
$DIMUPT
 70
     0
  9
$DIMDEC
 70
     4
  9
$DIMTDEC
 70
     4
  9
$DIMALTU
 70
     2
  9
$DIMALTTD
 70
     2
  9
$DIMTXSTY
  7
Standard
  9
$DIMAUNIT
 70
     0
  9
$DIMADEC
 70
     0
  9
$DIMALTRND
 40
0.0
  9
$DIMAZIN
 70
     0
  9
$DIMDSEP
 70
    46
  9
$DIMATFIT
 70
     3
  9
$DIMFRAC
 70
     0
  9
$DIMLDRBLK
  1

  9
$DIMLUNIT
 70
     2
  9
$DIMLWD
 70
    -2
  9
$DIMLWE
 70
    -2
  9
$DIMTMOVE
 70
     0
  9
$DIMFXL
 40
1.0
  9
$DIMFXLON
 70
     0
  9
$DIMJOGANG
 40
0.7853981633974483
  9
$DIMTFILL
 70
     0
  9
$DIMTFILLCLR
 70
     0
  9
$DIMARCSYM
 70
     0
  9
$DIMLTYPE
  6

  9
$DIMLTEX1
  6

  9
$DIMLTEX2
  6

  9
$DIMTXTDIRECTION
 70
     0
  9
$LUNITS
 70
     2
  9
$LUPREC
 70
     4
  9
$SKETCHINC
 40
0.1
  9
$FILLETRAD
 40
0.5
  9
$AUNITS
 70
     0
  9
$AUPREC
 70
     0
  9
$MENU
  1
.
  9
$ELEVATION
 40
0.0
  9
$PELEVATION
 40
0.0
  9
$THICKNESS
 40
0.0
  9
$LIMCHECK
 70
     0
  9
$CHAMFERA
 40
0.5
  9
$CHAMFERB
 40
0.5
  9
$CHAMFERC
 40
1.0
  9
$CHAMFERD
 40
0.0
  9
$SKPOLY
 70
     0
  9
$TDCREATE
 40
2457711.743838553
  9
$TDUCREATE
 40
2457711.702171887
  9
$TDUPDATE
 40
2457711.743839722
  9
$TDUUPDATE
 40
2457711.702173056
  9
$TDINDWG
 40
0.0000000116
  9
$TDUSRTIMER
 40
0.0000000116
  9
$USRTIMER
 70
     1
  9
$ANGBASE
 50
0.0
  9
$ANGDIR
 70
     0
  9
$PDMODE
 70
     0
  9
$PDSIZE
 40
0.0
  9
$PLINEWID
 40
0.0
  9
$SPLFRAME
 70
     0
  9
$SPLINETYPE
 70
     6
  9
$SPLINESEGS
 70
     8
  9
$HANDSEED
  5
41B
  9
$SURFTAB1
 70
     6
  9
$SURFTAB2
 70
     6
  9
$SURFTYPE
 70
     6
  9
$SURFU
 70
     6
  9
$SURFV
 70
     6
  9
$UCSBASE
  2

  9
$UCSNAME
  2

  9
$UCSORG
 10
0.0
 20
0.0
 30
0.0
  9
$UCSXDIR
 10
1.0
 20
0.0
 30
0.0
  9
$UCSYDIR
 10
0.0
 20
1.0
 30
0.0
  9
$UCSORTHOREF
  2

  9
$UCSORTHOVIEW
 70
     0
  9
$UCSORGTOP
 10
0.0
 20
0.0
 30
0.0
  9
$UCSORGBOTTOM
 10
0.0
 20
0.0
 30
0.0
  9
$UCSORGLEFT
 10
0.0
 20
0.0
 30
0.0
  9
$UCSORGRIGHT
 10
0.0
 20
0.0
 30
0.0
  9
$UCSORGFRONT
 10
0.0
 20
0.0
 30
0.0
  9
$UCSORGBACK
 10
0.0
 20
0.0
 30
0.0
  9
$PUCSBASE
  2

  9
$PUCSNAME
  2

  9
$PUCSORG
 10
0.0
 20
0.0
 30
0.0
  9
$PUCSXDIR
 10
1.0
 20
0.0
 30
0.0
  9
$PUCSYDIR
 10
0.0
 20
1.0
 30
0.0
  9
$PUCSORTHOREF
  2

  9
$PUCSORTHOVIEW
 70
     0
  9
$PUCSORGTOP
 10
0.0
 20
0.0
 30
0.0
  9
$PUCSORGBOTTOM
 10
0.0
 20
0.0
 30
0.0
  9
$PUCSORGLEFT
 10
0.0
 20
0.0
 30
0.0
  9
$PUCSORGRIGHT
 10
0.0
 20
0.0
 30
0.0
  9
$PUCSORGFRONT
 10
0.0
 20
0.0
 30
0.0
  9
$PUCSORGBACK
 10
0.0
 20
0.0
 30
0.0
  9
$USERI1
 70
     0
  9
$USERI2
 70
     0
  9
$USERI3
 70
     0
  9
$USERI4
 70
     0
  9
$USERI5
 70
     0
  9
$USERR1
 40
0.0
  9
$USERR2
 40
0.0
  9
$USERR3
 40
0.0
  9
$USERR4
 40
0.0
  9
$USERR5
 40
0.0
  9
$WORLDVIEW
 70
     1
  9
$SHADEDGE
 70
     3
  9
$SHADEDIF
 70
    70
  9
$TILEMODE
 70
     1
  9
$MAXACTVP
 70
    64
  9
$PINSBASE
 10
0.0
 20
0.0
 30
0.0
  9
$PLIMCHECK
 70
     0
  9
$PEXTMIN
 10
1.000000000000000E+20
 20
1.000000000000000E+20
 30
1.000000000000000E+20
  9
$PEXTMAX
 10
-1.000000000000000E+20
 20
-1.000000000000000E+20
 30
-1.000000000000000E+20
  9
$PLIMMIN
 10
0.0
 20
0.0
  9
$PLIMMAX
 10
12.0
 20
9.0
  9
$UNITMODE
 70
     0
  9
$VISRETAIN
 70
     1
  9
$PLINEGEN
 70
     0
  9
$PSLTSCALE
 70
     1
  9
$TREEDEPTH
 70
  3020
  9
$CMLSTYLE
  2
Standard
  9
$CMLJUST
 70
     0
  9
$CMLSCALE
 40
1.0
  9
$PROXYGRAPHICS
 70
     1
  9
$MEASUREMENT
 70
     0
  9
$CELWEIGHT
370
    -1
  9
$ENDCAPS
280
     0
  9
$JOINSTYLE
280
     0
  9
$LWDISPLAY
290
     1
  9
$INSUNITS
 70
     1
  9
$HYPERLINKBASE
  1

  9
$STYLESHEET
  1

  9
$XEDIT
290
     1
  9
$CEPSNTYPE
380
     0
  9
$PSTYLEMODE
290
     1
  9
$FINGERPRINTGUID
  2
{8F89FB84-4A99-40F0-B6E6-4520BF2C9C86}
  9
$VERSIONGUID
  2
{FAEB1C32-E019-11D5-929B-00C0DF256EC4}
  9
$EXTNAMES
290
     1
  9
$PSVPSCALE
 40
0.0
  9
$OLESTARTUP
290
     0
  9
$SORTENTS
280
   127
  9
$INDEXCTL
280
     0
  9
$HIDETEXT
280
     1
  9
$XCLIPFRAME
280
     2
  9
$HALOGAP
280
     0
  9
$OBSCOLOR
 70
   257
  9
$OBSLTYPE
280
     0
  9
$INTERSECTIONDISPLAY
280
     0
  9
$INTERSECTIONCOLOR
 70
   257
  9
$DIMASSOC
280
     2
  9
$PROJECTNAME
  1

  9
$CAMERADISPLAY
290
     0
  9
$LENSLENGTH
 40
50.0
  9
$CAMERAHEIGHT
 40
0.0
  9
$STEPSPERSEC
 40
2.0
  9
$STEPSIZE
 40
6.0
  9
$3DDWFPREC
 40
2.0
  9
$PSOLWIDTH
 40
0.25
  9
$PSOLHEIGHT
 40
4.0
  9
$LOFTANG1
 40
1.570796326794897
  9
$LOFTANG2
 40
1.570796326794897
  9
$LOFTMAG1
 40
0.0
  9
$LOFTMAG2
 40
0.0
  9
$LOFTPARAM
 70
     7
  9
$LOFTNORMALS
280
     1
  9
$LATITUDE
 40
37.795
  9
$LONGITUDE
 40
-122.394
  9
$NORTHDIRECTION
 40
0.0
  9
$TIMEZONE
 70
 -8000
  9
$LIGHTGLYPHDISPLAY
280
     1
  9
$TILEMODELIGHTSYNCH
280
     1
  9
$CMATERIAL
347
3C
  9
$SOLIDHIST
280
     1
  9
$SHOWHIST
280
     1
  9
$DWFFRAME
280
     2
  9
$DGNFRAME
280
     2
  9
$REALWORLDSCALE
290
     1
  9
$INTERFERECOLOR
 62
   256
  9
$CSHADOW
280
     0
  9
$SHADOWPLANELOCATION
 40
0.0
  0
ENDSEC
  0
SECTION
  2
CLASSES
  0
CLASS
  1
ACDBDICTIONARYWDFLT
  2
AcDbDictionaryWithDefault
  3
ObjectDBX Classes
 90
        0
 91
        4
280
     0
281
     0
  0
CLASS
  1
VISUALSTYLE
  2
AcDbVisualStyle
  3
ObjectDBX Classes
 90
     4095
 91
        4
280
     0
281
     0
  0
CLASS
  1
MATERIAL
  2
AcDbMaterial
  3
ObjectDBX Classes
 90
     1153
 91
        4
280
     0
281
     0
  0
CLASS
  1
SUN
  2
AcDbSun
  3
SCENEOE
 90
     1024
 91
        4
280
     0
281
     0
  0
ENDSEC
  0
SECTION
  2
TABLES
  0
TABLE
  2
VPORT
  5
8
330
0
100
AcDbSymbolTable
 70
     1
  0
VPORT
  5
29
330
8
100
AcDbSymbolTableRecord
100
AcDbViewportTableRecord
  2
*Active
 70
     0
 10
0.0
 20
0.0
 11
1.0
 21
1.0
 12
0.0
 22
0.0
 13
0.0
 23
0.0
 14
0.5
 24
0.5
 15
0.5
 25
0.5
 16
0.0
 26
0.0
 36
1.0
 17
249.9994999375001
 27
-149.9993471847223
 37
0.0
 40
299.9986943694446
 41
1.666670586436812
 42
50.0
 43
0.0
 44
0.0
 50
0.0
 51
0.0
 71
     0
 72
   100
 73
     1
 74
     3
 75
     0
 76
     0
 77
     0
 78
     0
281
     0
 65
     1
110
0.0
120
0.0
130
0.0
111
1.0
121
0.0
131
0.0
112
0.0
122
1.0
132
0.0
 79
     0
146
0.0
 60
     3
 61
     5
292
     1
282
     1
141
0.0
142
0.0
 63
   250
361
3F
  0
ENDTAB
  0
TABLE
  2
LTYPE
  5
5
330
0
100
AcDbSymbolTable
 70
     1
  0
LTYPE
  5
14
330
5
100
AcDbSymbolTableRecord
100
AcDbLinetypeTableRecord
  2
ByBlock
 70
     0
  3

 72
    65
 73
     0
 40
0.0
  0
LTYPE
  5
15
330
5
100
AcDbSymbolTableRecord
100
AcDbLinetypeTableRecord
  2
ByLayer
 70
     0
  3

 72
    65
 73
     0
 40
0.0
  0
LTYPE
  5
16
330
5
100
AcDbSymbolTableRecord
100
AcDbLinetypeTableRecord
  2
Continuous
 70
     0
  3
Solid line
 72
    65
 73
     0
 40
0.0
  0
ENDTAB
  0
TABLE
  2
LAYER
  5
2
330
0
100
AcDbSymbolTable
 70
     2
  0
LAYER
  5
10
330
2
100
AcDbSymbolTableRecord
100
AcDbLayerTableRecord
  2
0
 70
     0
 62
     7
  6
Continuous
370
    -3
390
F
347
3E
  0
LAYER
  5
40
330
2
100
AcDbSymbolTableRecord
100
AcDbLayerTableRecord
  2
Ebene 1
 70
     0
 62
     7
  6
Continuous
370
    -3
390
F
347
3E
  0
ENDTAB
  0
TABLE
  2
STYLE
  5
3
330
0
100
AcDbSymbolTable
 70
     1
  0
STYLE
  5
11
330
3
100
AcDbSymbolTableRecord
100
AcDbTextStyleTableRecord
  2
Standard
 70
     0
 40
0.0
 41
1.0
 50
0.0
 71
     0
 42
0.2
  3
txt
  4

  0
ENDTAB
  0
TABLE
  2
VIEW
  5
6
330
0
100
AcDbSymbolTable
 70
     0
  0
ENDTAB
  0
TABLE
  2
UCS
  5
7
330
0
100
AcDbSymbolTable
 70
     0
  0
ENDTAB
  0
TABLE
  2
APPID
  5
9
330
0
100
AcDbSymbolTable
 70
     1
  0
APPID
  5
12
330
9
100
AcDbSymbolTableRecord
100
AcDbRegAppTableRecord
  2
ACAD
 70
     0
  0
ENDTAB
  0
TABLE
  2
DIMSTYLE
  5
A
330
0
100
AcDbSymbolTable
 70
     1
100
AcDbDimStyleTable
  0
DIMSTYLE
105
27
330
A
100
AcDbSymbolTableRecord
100
AcDbDimStyleTableRecord
  2
Standard
 70
     0
178
     0
340
11
  0
ENDTAB
  0
TABLE
  2
BLOCK_RECORD
  5
1
330
0
100
AcDbSymbolTable
 70
   107
  0
BLOCK_RECORD
  5
1F
330
1
100
AcDbSymbolTableRecord
100
AcDbBlockTableRecord
  2
*Model_Space
340
22
 70
     0
280
     1
281
     0
  0
BLOCK_RECORD
  5
1B
330
1
100
AcDbSymbolTableRecord
100
AcDbBlockTableRecord
  2
*Paper_Space
340
1E
 70
     0
280
     1
281
     0
  0
BLOCK_RECORD
  5
23
330
1
100
AcDbSymbolTableRecord
100
AcDbBlockTableRecord
  2
*Paper_Space0
340
26
 70
     0
280
     1
281
     0
  0
BLOCK_RECORD
  5
41
330
1
100
AcDbSymbolTableRecord
100
AcDbBlockTableRecord
  2
block 2
340
0
102
{BLKREFS
331
42
102
}
 70
     0
280
     1
281
     0
  0
BLOCK_RECORD
  5
45
330
1
100
AcDbSymbolTableRecord
100
AcDbBlockTableRecord
  2
block 3
340
0
102
{BLKREFS
331
46
102
}
 70
     0
280
     1
281
     0
  0
BLOCK_RECORD
  5
4D
330
1
100
AcDbSymbolTableRecord
100
AcDbBlockTableRecord
  2
block 4
340
0
102
{BLKREFS
331
4E
102
}
 70
     0
280
     1
281
     0
  0
BLOCK_RECORD
  5
55
330
1
100
AcDbSymbolTableRecord
100
AcDbBlockTableRecord
  2
block 5
340
0
102
{BLKREFS
331
56
102
}
 70
     0
280
     1
281
     0
  0
BLOCK_RECORD
  5
5D
330
1
100
AcDbSymbolTableRecord
100
AcDbBlockTableRecord
  2
block 6
340
0
102
{BLKREFS
331
5E
102
}
 70
     0
280
     1
281
     0
  0
BLOCK_RECORD
  5
65
330
1
100
AcDbSymbolTableRecord
100
AcDbBlockTableRecord
  2
block 7
340
0
102
{BLKREFS
331
66
102
}
 70
     0
280
     1
281
     0
  0
BLOCK_RECORD
  5
6D
330
1
100
AcDbSymbolTableRecord
100
AcDbBlockTableRecord
  2
block 8
340
0
102
{BLKREFS
331
6E
102
}
 70
     0
280
     1
281
     0
  0
BLOCK_RECORD
  5
75
330
1
100
AcDbSymbolTableRecord
100
AcDbBlockTableRecord
  2
block 9
340
0
102
{BLKREFS
331
76
102
}
 70
     0
280
     1
281
     0
  0
BLOCK_RECORD
  5
7D
330
1
100
AcDbSymbolTableRecord
100
AcDbBlockTableRecord
  2
block 10
340
0
102
{BLKREFS
331
7E
102
}
 70
     0
280
     1
281
     0
  0
BLOCK_RECORD
  5
85
330
1
100
AcDbSymbolTableRecord
100
AcDbBlockTableRecord
  2
block 11
340
0
102
{BLKREFS
331
86
102
}
 70
     0
280
     1
281
     0
  0
BLOCK_RECORD
  5
8D
330
1
100
AcDbSymbolTableRecord
100
AcDbBlockTableRecord
  2
block 12
340
0
102
{BLKREFS
331
8E
102
}
 70
     0
280
     1
281
     0
  0
BLOCK_RECORD
  5
95
330
1
100
AcDbSymbolTableRecord
100
AcDbBlockTableRecord
  2
block 13
340
0
102
{BLKREFS
331
96
102
}
 70
     0
280
     1
281
     0
  0
BLOCK_RECORD
  5
9D
330
1
100
AcDbSymbolTableRecord
100
AcDbBlockTableRecord
  2
block 14
340
0
102
{BLKREFS
331
9E
102
}
 70
     0
280
     1
281
     0
  0
BLOCK_RECORD
  5
A5
330
1
100
AcDbSymbolTableRecord
100
AcDbBlockTableRecord
  2
block 15
340
0
102
{BLKREFS
331
A6
102
}
 70
     0
280
     1
281
     0
  0
BLOCK_RECORD
  5
AD
330
1
100
AcDbSymbolTableRecord
100
AcDbBlockTableRecord
  2
block 16
340
0
102
{BLKREFS
331
AE
102
}
 70
     0
280
     1
281
     0
  0
BLOCK_RECORD
  5
B5
330
1
100
AcDbSymbolTableRecord
100
AcDbBlockTableRecord
  2
block 17
340
0
102
{BLKREFS
331
B6
102
}
 70
     0
280
     1
281
     0
  0
BLOCK_RECORD
  5
BD
330
1
100
AcDbSymbolTableRecord
100
AcDbBlockTableRecord
  2
block 18
340
0
102
{BLKREFS
331
BE
102
}
 70
     0
280
     1
281
     0
  0
BLOCK_RECORD
  5
C5
330
1
100
AcDbSymbolTableRecord
100
AcDbBlockTableRecord
  2
block 19
340
0
102
{BLKREFS
331
C6
102
}
 70
     0
280
     1
281
     0
  0
BLOCK_RECORD
  5
CD
330
1
100
AcDbSymbolTableRecord
100
AcDbBlockTableRecord
  2
block 20
340
0
102
{BLKREFS
331
CE
102
}
 70
     0
280
     1
281
     0
  0
BLOCK_RECORD
  5
D5
330
1
100
AcDbSymbolTableRecord
100
AcDbBlockTableRecord
  2
block 21
340
0
102
{BLKREFS
331
D6
102
}
 70
     0
280
     1
281
     0
  0
BLOCK_RECORD
  5
DD
330
1
100
AcDbSymbolTableRecord
100
AcDbBlockTableRecord
  2
block 22
340
0
102
{BLKREFS
331
DE
102
}
 70
     0
280
     1
281
     0
  0
BLOCK_RECORD
  5
E5
330
1
100
AcDbSymbolTableRecord
100
AcDbBlockTableRecord
  2
block 23
340
0
102
{BLKREFS
331
E6
102
}
 70
     0
280
     1
281
     0
  0
BLOCK_RECORD
  5
E9
330
1
100
AcDbSymbolTableRecord
100
AcDbBlockTableRecord
  2
block 24
340
0
102
{BLKREFS
331
EA
102
}
 70
     0
280
     1
281
     0
  0
BLOCK_RECORD
  5
115
330
1
100
AcDbSymbolTableRecord
100
AcDbBlockTableRecord
  2
block 25
340
0
102
{BLKREFS
331
116
102
}
 70
     0
280
     1
281
     0
  0
BLOCK_RECORD
  5
11D
330
1
100
AcDbSymbolTableRecord
100
AcDbBlockTableRecord
  2
block 26
340
0
102
{BLKREFS
331
11E
102
}
 70
     0
280
     1
281
     0
  0
BLOCK_RECORD
  5
125
330
1
100
AcDbSymbolTableRecord
100
AcDbBlockTableRecord
  2
block 27
340
0
102
{BLKREFS
331
126
102
}
 70
     0
280
     1
281
     0
  0
BLOCK_RECORD
  5
129
330
1
100
AcDbSymbolTableRecord
100
AcDbBlockTableRecord
  2
block 28
340
0
102
{BLKREFS
331
12A
102
}
 70
     0
280
     1
281
     0
  0
BLOCK_RECORD
  5
158
330
1
100
AcDbSymbolTableRecord
100
AcDbBlockTableRecord
  2
block 29
340
0
102
{BLKREFS
331
159
102
}
 70
     0
280
     1
281
     0
  0
BLOCK_RECORD
  5
160
330
1
100
AcDbSymbolTableRecord
100
AcDbBlockTableRecord
  2
block 30
340
0
102
{BLKREFS
331
161
102
}
 70
     0
280
     1
281
     0
  0
BLOCK_RECORD
  5
168
330
1
100
AcDbSymbolTableRecord
100
AcDbBlockTableRecord
  2
block 31
340
0
102
{BLKREFS
331
169
102
}
 70
     0
280
     1
281
     0
  0
BLOCK_RECORD
  5
16F
330
1
100
AcDbSymbolTableRecord
100
AcDbBlockTableRecord
  2
block 32
340
0
102
{BLKREFS
331
170
102
}
 70
     0
280
     1
281
     0
  0
BLOCK_RECORD
  5
177
330
1
100
AcDbSymbolTableRecord
100
AcDbBlockTableRecord
  2
block 33
340
0
102
{BLKREFS
331
178
102
}
 70
     0
280
     1
281
     0
  0
BLOCK_RECORD
  5
17F
330
1
100
AcDbSymbolTableRecord
100
AcDbBlockTableRecord
  2
block 34
340
0
102
{BLKREFS
331
180
102
}
 70
     0
280
     1
281
     0
  0
BLOCK_RECORD
  5
187
330
1
100
AcDbSymbolTableRecord
100
AcDbBlockTableRecord
  2
block 35
340
0
102
{BLKREFS
331
188
102
}
 70
     0
280
     1
281
     0
  0
BLOCK_RECORD
  5
18F
330
1
100
AcDbSymbolTableRecord
100
AcDbBlockTableRecord
  2
block 36
340
0
102
{BLKREFS
331
190
102
}
 70
     0
280
     1
281
     0
  0
BLOCK_RECORD
  5
197
330
1
100
AcDbSymbolTableRecord
100
AcDbBlockTableRecord
  2
block 37
340
0
102
{BLKREFS
331
198
102
}
 70
     0
280
     1
281
     0
  0
BLOCK_RECORD
  5
19F
330
1
100
AcDbSymbolTableRecord
100
AcDbBlockTableRecord
  2
block 38
340
0
102
{BLKREFS
331
1A0
102
}
 70
     0
280
     1
281
     0
  0
BLOCK_RECORD
  5
1A7
330
1
100
AcDbSymbolTableRecord
100
AcDbBlockTableRecord
  2
block 39
340
0
102
{BLKREFS
331
1A8
102
}
 70
     0
280
     1
281
     0
  0
BLOCK_RECORD
  5
1AF
330
1
100
AcDbSymbolTableRecord
100
AcDbBlockTableRecord
  2
block 40
340
0
102
{BLKREFS
331
1B0
102
}
 70
     0
280
     1
281
     0
  0
BLOCK_RECORD
  5
1B7
330
1
100
AcDbSymbolTableRecord
100
AcDbBlockTableRecord
  2
block 41
340
0
102
{BLKREFS
331
1B8
102
}
 70
     0
280
     1
281
     0
  0
BLOCK_RECORD
  5
1BF
330
1
100
AcDbSymbolTableRecord
100
AcDbBlockTableRecord
  2
block 42
340
0
102
{BLKREFS
331
1C0
102
}
 70
     0
280
     1
281
     0
  0
BLOCK_RECORD
  5
1C7
330
1
100
AcDbSymbolTableRecord
100
AcDbBlockTableRecord
  2
block 43
340
0
102
{BLKREFS
331
1C8
102
}
 70
     0
280
     1
281
     0
  0
BLOCK_RECORD
  5
1CF
330
1
100
AcDbSymbolTableRecord
100
AcDbBlockTableRecord
  2
block 44
340
0
102
{BLKREFS
331
1D0
102
}
 70
     0
280
     1
281
     0
  0
BLOCK_RECORD
  5
1D7
330
1
100
AcDbSymbolTableRecord
100
AcDbBlockTableRecord
  2
block 45
340
0
102
{BLKREFS
331
1D8
102
}
 70
     0
280
     1
281
     0
  0
BLOCK_RECORD
  5
1DF
330
1
100
AcDbSymbolTableRecord
100
AcDbBlockTableRecord
  2
block 46
340
0
102
{BLKREFS
331
1E0
102
}
 70
     0
280
     1
281
     0
  0
BLOCK_RECORD
  5
1EA
330
1
100
AcDbSymbolTableRecord
100
AcDbBlockTableRecord
  2
block 47
340
0
102
{BLKREFS
331
1EB
102
}
 70
     0
280
     1
281
     0
  0
BLOCK_RECORD
  5
1F2
330
1
100
AcDbSymbolTableRecord
100
AcDbBlockTableRecord
  2
block 48
340
0
102
{BLKREFS
331
1F3
102
}
 70
     0
280
     1
281
     0
  0
BLOCK_RECORD
  5
1FA
330
1
100
AcDbSymbolTableRecord
100
AcDbBlockTableRecord
  2
block 49
340
0
102
{BLKREFS
331
1FB
102
}
 70
     0
280
     1
281
     0
  0
BLOCK_RECORD
  5
205
330
1
100
AcDbSymbolTableRecord
100
AcDbBlockTableRecord
  2
block 50
340
0
102
{BLKREFS
331
206
102
}
 70
     0
280
     1
281
     0
  0
BLOCK_RECORD
  5
210
330
1
100
AcDbSymbolTableRecord
100
AcDbBlockTableRecord
  2
block 51
340
0
102
{BLKREFS
331
211
102
}
 70
     0
280
     1
281
     0
  0
BLOCK_RECORD
  5
21B
330
1
100
AcDbSymbolTableRecord
100
AcDbBlockTableRecord
  2
block 52
340
0
102
{BLKREFS
331
21C
102
}
 70
     0
280
     1
281
     0
  0
BLOCK_RECORD
  5
223
330
1
100
AcDbSymbolTableRecord
100
AcDbBlockTableRecord
  2
block 53
340
0
102
{BLKREFS
331
224
102
}
 70
     0
280
     1
281
     0
  0
BLOCK_RECORD
  5
228
330
1
100
AcDbSymbolTableRecord
100
AcDbBlockTableRecord
  2
block 54
340
0
102
{BLKREFS
331
229
102
}
 70
     0
280
     1
281
     0
  0
BLOCK_RECORD
  5
22D
330
1
100
AcDbSymbolTableRecord
100
AcDbBlockTableRecord
  2
block 55
340
0
102
{BLKREFS
331
22E
102
}
 70
     0
280
     1
281
     0
  0
BLOCK_RECORD
  5
231
330
1
100
AcDbSymbolTableRecord
100
AcDbBlockTableRecord
  2
block 56
340
0
102
{BLKREFS
331
232
102
}
 70
     0
280
     1
281
     0
  0
BLOCK_RECORD
  5
25D
330
1
100
AcDbSymbolTableRecord
100
AcDbBlockTableRecord
  2
block 57
340
0
102
{BLKREFS
331
25E
102
}
 70
     0
280
     1
281
     0
  0
BLOCK_RECORD
  5
265
330
1
100
AcDbSymbolTableRecord
100
AcDbBlockTableRecord
  2
block 58
340
0
102
{BLKREFS
331
266
102
}
 70
     0
280
     1
281
     0
  0
BLOCK_RECORD
  5
26D
330
1
100
AcDbSymbolTableRecord
100
AcDbBlockTableRecord
  2
block 59
340
0
102
{BLKREFS
331
26E
102
}
 70
     0
280
     1
281
     0
  0
BLOCK_RECORD
  5
271
330
1
100
AcDbSymbolTableRecord
100
AcDbBlockTableRecord
  2
block 60
340
0
102
{BLKREFS
331
272
102
}
 70
     0
280
     1
281
     0
  0
BLOCK_RECORD
  5
29E
330
1
100
AcDbSymbolTableRecord
100
AcDbBlockTableRecord
  2
block 61
340
0
102
{BLKREFS
331
29F
102
}
 70
     0
280
     1
281
     0
  0
BLOCK_RECORD
  5
2A6
330
1
100
AcDbSymbolTableRecord
100
AcDbBlockTableRecord
  2
block 62
340
0
102
{BLKREFS
331
2A7
102
}
 70
     0
280
     1
281
     0
  0
BLOCK_RECORD
  5
2AE
330
1
100
AcDbSymbolTableRecord
100
AcDbBlockTableRecord
  2
block 63
340
0
102
{BLKREFS
331
2AF
102
}
 70
     0
280
     1
281
     0
  0
BLOCK_RECORD
  5
2B6
330
1
100
AcDbSymbolTableRecord
100
AcDbBlockTableRecord
  2
block 64
340
0
102
{BLKREFS
331
2B7
102
}
 70
     0
280
     1
281
     0
  0
BLOCK_RECORD
  5
2BE
330
1
100
AcDbSymbolTableRecord
100
AcDbBlockTableRecord
  2
block 65
340
0
102
{BLKREFS
331
2BF
102
}
 70
     0
280
     1
281
     0
  0
BLOCK_RECORD
  5
2C6
330
1
100
AcDbSymbolTableRecord
100
AcDbBlockTableRecord
  2
block 66
340
0
102
{BLKREFS
331
2C7
102
}
 70
     0
280
     1
281
     0
  0
BLOCK_RECORD
  5
2CE
330
1
100
AcDbSymbolTableRecord
100
AcDbBlockTableRecord
  2
block 67
340
0
102
{BLKREFS
331
2CF
102
}
 70
     0
280
     1
281
     0
  0
BLOCK_RECORD
  5
2D6
330
1
100
AcDbSymbolTableRecord
100
AcDbBlockTableRecord
  2
block 68
340
0
102
{BLKREFS
331
2D7
102
}
 70
     0
280
     1
281
     0
  0
BLOCK_RECORD
  5
2DE
330
1
100
AcDbSymbolTableRecord
100
AcDbBlockTableRecord
  2
block 69
340
0
102
{BLKREFS
331
2DF
102
}
 70
     0
280
     1
281
     0
  0
BLOCK_RECORD
  5
2E6
330
1
100
AcDbSymbolTableRecord
100
AcDbBlockTableRecord
  2
block 70
340
0
102
{BLKREFS
331
2E7
102
}
 70
     0
280
     1
281
     0
  0
BLOCK_RECORD
  5
2EE
330
1
100
AcDbSymbolTableRecord
100
AcDbBlockTableRecord
  2
block 71
340
0
102
{BLKREFS
331
2EF
102
}
 70
     0
280
     1
281
     0
  0
BLOCK_RECORD
  5
2F6
330
1
100
AcDbSymbolTableRecord
100
AcDbBlockTableRecord
  2
block 72
340
0
102
{BLKREFS
331
2F7
102
}
 70
     0
280
     1
281
     0
  0
BLOCK_RECORD
  5
2FE
330
1
100
AcDbSymbolTableRecord
100
AcDbBlockTableRecord
  2
block 73
340
0
102
{BLKREFS
331
2FF
102
}
 70
     0
280
     1
281
     0
  0
BLOCK_RECORD
  5
306
330
1
100
AcDbSymbolTableRecord
100
AcDbBlockTableRecord
  2
block 74
340
0
102
{BLKREFS
331
307
102
}
 70
     0
280
     1
281
     0
  0
BLOCK_RECORD
  5
30E
330
1
100
AcDbSymbolTableRecord
100
AcDbBlockTableRecord
  2
block 75
340
0
102
{BLKREFS
331
30F
102
}
 70
     0
280
     1
281
     0
  0
BLOCK_RECORD
  5
316
330
1
100
AcDbSymbolTableRecord
100
AcDbBlockTableRecord
  2
block 76
340
0
102
{BLKREFS
331
317
102
}
 70
     0
280
     1
281
     0
  0
BLOCK_RECORD
  5
31E
330
1
100
AcDbSymbolTableRecord
100
AcDbBlockTableRecord
  2
block 77
340
0
102
{BLKREFS
331
31F
102
}
 70
     0
280
     1
281
     0
  0
BLOCK_RECORD
  5
326
330
1
100
AcDbSymbolTableRecord
100
AcDbBlockTableRecord
  2
block 78
340
0
102
{BLKREFS
331
327
102
}
 70
     0
280
     1
281
     0
  0
BLOCK_RECORD
  5
331
330
1
100
AcDbSymbolTableRecord
100
AcDbBlockTableRecord
  2
block 79
340
0
102
{BLKREFS
331
332
102
}
 70
     0
280
     1
281
     0
  0
BLOCK_RECORD
  5
339
330
1
100
AcDbSymbolTableRecord
100
AcDbBlockTableRecord
  2
block 80
340
0
102
{BLKREFS
331
33A
102
}
 70
     0
280
     1
281
     0
  0
BLOCK_RECORD
  5
341
330
1
100
AcDbSymbolTableRecord
100
AcDbBlockTableRecord
  2
block 81
340
0
102
{BLKREFS
331
342
102
}
 70
     0
280
     1
281
     0
  0
BLOCK_RECORD
  5
34C
330
1
100
AcDbSymbolTableRecord
100
AcDbBlockTableRecord
  2
block 82
340
0
102
{BLKREFS
331
34D
102
}
 70
     0
280
     1
281
     0
  0
BLOCK_RECORD
  5
357
330
1
100
AcDbSymbolTableRecord
100
AcDbBlockTableRecord
  2
block 83
340
0
102
{BLKREFS
331
358
102
}
 70
     0
280
     1
281
     0
  0
BLOCK_RECORD
  5
362
330
1
100
AcDbSymbolTableRecord
100
AcDbBlockTableRecord
  2
block 84
340
0
102
{BLKREFS
331
363
102
}
 70
     0
280
     1
281
     0
  0
BLOCK_RECORD
  5
36A
330
1
100
AcDbSymbolTableRecord
100
AcDbBlockTableRecord
  2
block 85
340
0
102
{BLKREFS
331
36B
102
}
 70
     0
280
     1
281
     0
  0
BLOCK_RECORD
  5
36F
330
1
100
AcDbSymbolTableRecord
100
AcDbBlockTableRecord
  2
block 86
340
0
102
{BLKREFS
331
370
102
}
 70
     0
280
     1
281
     0
  0
BLOCK_RECORD
  5
374
330
1
100
AcDbSymbolTableRecord
100
AcDbBlockTableRecord
  2
block 87
340
0
102
{BLKREFS
331
375
102
}
 70
     0
280
     1
281
     0
  0
BLOCK_RECORD
  5
378
330
1
100
AcDbSymbolTableRecord
100
AcDbBlockTableRecord
  2
block 88
340
0
102
{BLKREFS
331
379
102
}
 70
     0
280
     1
281
     0
  0
BLOCK_RECORD
  5
380
330
1
100
AcDbSymbolTableRecord
100
AcDbBlockTableRecord
  2
block 89
340
0
102
{BLKREFS
331
381
102
}
 70
     0
280
     1
281
     0
  0
BLOCK_RECORD
  5
388
330
1
100
AcDbSymbolTableRecord
100
AcDbBlockTableRecord
  2
block 90
340
0
102
{BLKREFS
331
389
102
}
 70
     0
280
     1
281
     0
  0
BLOCK_RECORD
  5
390
330
1
100
AcDbSymbolTableRecord
100
AcDbBlockTableRecord
  2
block 91
340
0
102
{BLKREFS
331
391
102
}
 70
     0
280
     1
281
     0
  0
BLOCK_RECORD
  5
398
330
1
100
AcDbSymbolTableRecord
100
AcDbBlockTableRecord
  2
block 92
340
0
102
{BLKREFS
331
399
102
}
 70
     0
280
     1
281
     0
  0
BLOCK_RECORD
  5
3A0
330
1
100
AcDbSymbolTableRecord
100
AcDbBlockTableRecord
  2
block 93
340
0
102
{BLKREFS
331
3A1
102
}
 70
     0
280
     1
281
     0
  0
BLOCK_RECORD
  5
3A8
330
1
100
AcDbSymbolTableRecord
100
AcDbBlockTableRecord
  2
block 94
340
0
102
{BLKREFS
331
3A9
102
}
 70
     0
280
     1
281
     0
  0
BLOCK_RECORD
  5
3B0
330
1
100
AcDbSymbolTableRecord
100
AcDbBlockTableRecord
  2
block 95
340
0
102
{BLKREFS
331
3B1
102
}
 70
     0
280
     1
281
     0
  0
BLOCK_RECORD
  5
3B8
330
1
100
AcDbSymbolTableRecord
100
AcDbBlockTableRecord
  2
block 96
340
0
102
{BLKREFS
331
3B9
102
}
 70
     0
280
     1
281
     0
  0
BLOCK_RECORD
  5
3C0
330
1
100
AcDbSymbolTableRecord
100
AcDbBlockTableRecord
  2
block 97
340
0
102
{BLKREFS
331
3C1
102
}
 70
     0
280
     1
281
     0
  0
BLOCK_RECORD
  5
3C8
330
1
100
AcDbSymbolTableRecord
100
AcDbBlockTableRecord
  2
block 98
340
0
102
{BLKREFS
331
3C9
102
}
 70
     0
280
     1
281
     0
  0
BLOCK_RECORD
  5
3D0
330
1
100
AcDbSymbolTableRecord
100
AcDbBlockTableRecord
  2
block 99
340
0
102
{BLKREFS
331
3D1
102
}
 70
     0
280
     1
281
     0
  0
BLOCK_RECORD
  5
3D8
330
1
100
AcDbSymbolTableRecord
100
AcDbBlockTableRecord
  2
block 100
340
0
102
{BLKREFS
331
3D9
102
}
 70
     0
280
     1
281
     0
  0
BLOCK_RECORD
  5
3E0
330
1
100
AcDbSymbolTableRecord
100
AcDbBlockTableRecord
  2
block 101
340
0
102
{BLKREFS
331
3E1
102
}
 70
     0
280
     1
281
     0
  0
BLOCK_RECORD
  5
3E8
330
1
100
AcDbSymbolTableRecord
100
AcDbBlockTableRecord
  2
block 102
340
0
102
{BLKREFS
331
3E9
102
}
 70
     0
280
     1
281
     0
  0
BLOCK_RECORD
  5
3F0
330
1
100
AcDbSymbolTableRecord
100
AcDbBlockTableRecord
  2
block 103
340
0
102
{BLKREFS
331
3F1
102
}
 70
     0
280
     1
281
     0
  0
BLOCK_RECORD
  5
3F8
330
1
100
AcDbSymbolTableRecord
100
AcDbBlockTableRecord
  2
block 104
340
0
102
{BLKREFS
331
3F9
102
}
 70
     0
280
     1
281
     0
  0
BLOCK_RECORD
  5
400
330
1
100
AcDbSymbolTableRecord
100
AcDbBlockTableRecord
  2
block 105
340
0
102
{BLKREFS
331
401
102
}
 70
     0
280
     1
281
     0
  0
BLOCK_RECORD
  5
408
330
1
100
AcDbSymbolTableRecord
100
AcDbBlockTableRecord
  2
block 106
340
0
102
{BLKREFS
331
409
102
}
 70
     0
280
     1
281
     0
  0
BLOCK_RECORD
  5
410
330
1
100
AcDbSymbolTableRecord
100
AcDbBlockTableRecord
  2
block 107
340
0
102
{BLKREFS
331
411
102
}
 70
     0
280
     1
281
     0
  0
ENDTAB
  0
ENDSEC
  0
SECTION
  2
BLOCKS
  0
BLOCK
  5
20
330
1F
100
AcDbEntity
  8
0
100
AcDbBlockBegin
  2
*Model_Space
 70
     0
 10
0.0
 20
0.0
 30
0.0
  3
*Model_Space
  1

  0
ENDBLK
  5
21
330
1F
100
AcDbEntity
  8
0
100
AcDbBlockEnd
  0
BLOCK
  5
1C
330
1B
100
AcDbEntity
 67
     1
  8
0
100
AcDbBlockBegin
  2
*Paper_Space
 70
     0
 10
0.0
 20
0.0
 30
0.0
  3
*Paper_Space
  1

  0
ENDBLK
  5
1D
330
1B
100
AcDbEntity
 67
     1
  8
0
100
AcDbBlockEnd
  0
BLOCK
  5
24
330
23
100
AcDbEntity
  8
0
100
AcDbBlockBegin
  2
*Paper_Space0
 70
     0
 10
0.0
 20
0.0
 30
0.0
  3
*Paper_Space0
  1

  0
ENDBLK
  5
25
330
23
100
AcDbEntity
  8
0
100
AcDbBlockEnd
  0
BLOCK
  5
43
330
41
100
AcDbEntity
  8
0
100
AcDbBlockBegin
  2
block 2
 70
     0
 10
0.0
 20
0.0
 30
0.0
  3
block 2
  1

  0
INSERT
  5
46
330
41
100
AcDbEntity
  8
Ebene 1
100
AcDbBlockReference
  2
block 3
 10
0.0
 20
0.0
 30
0.0
  0
INSERT
  5
4E
330
41
100
AcDbEntity
  8
Ebene 1
100
AcDbBlockReference
  2
block 4
 10
0.0
 20
0.0
 30
0.0
  0
INSERT
  5
56
330
41
100
AcDbEntity
  8
Ebene 1
100
AcDbBlockReference
  2
block 5
 10
0.0
 20
0.0
 30
0.0
  0
INSERT
  5
5E
330
41
100
AcDbEntity
  8
Ebene 1
100
AcDbBlockReference
  2
block 6
 10
0.0
 20
0.0
 30
0.0
  0
INSERT
  5
66
330
41
100
AcDbEntity
  8
Ebene 1
100
AcDbBlockReference
  2
block 7
 10
0.0
 20
0.0
 30
0.0
  0
INSERT
  5
6E
330
41
100
AcDbEntity
  8
Ebene 1
100
AcDbBlockReference
  2
block 8
 10
0.0
 20
0.0
 30
0.0
  0
INSERT
  5
76
330
41
100
AcDbEntity
  8
Ebene 1
100
AcDbBlockReference
  2
block 9
 10
0.0
 20
0.0
 30
0.0
  0
INSERT
  5
7E
330
41
100
AcDbEntity
  8
Ebene 1
100
AcDbBlockReference
  2
block 10
 10
0.0
 20
0.0
 30
0.0
  0
INSERT
  5
86
330
41
100
AcDbEntity
  8
Ebene 1
100
AcDbBlockReference
  2
block 11
 10
0.0
 20
0.0
 30
0.0
  0
INSERT
  5
8E
330
41
100
AcDbEntity
  8
Ebene 1
100
AcDbBlockReference
  2
block 12
 10
0.0
 20
0.0
 30
0.0
  0
INSERT
  5
96
330
41
100
AcDbEntity
  8
Ebene 1
100
AcDbBlockReference
  2
block 13
 10
0.0
 20
0.0
 30
0.0
  0
INSERT
  5
9E
330
41
100
AcDbEntity
  8
Ebene 1
100
AcDbBlockReference
  2
block 14
 10
0.0
 20
0.0
 30
0.0
  0
INSERT
  5
A6
330
41
100
AcDbEntity
  8
Ebene 1
100
AcDbBlockReference
  2
block 15
 10
0.0
 20
0.0
 30
0.0
  0
INSERT
  5
AE
330
41
100
AcDbEntity
  8
Ebene 1
100
AcDbBlockReference
  2
block 16
 10
0.0
 20
0.0
 30
0.0
  0
INSERT
  5
B6
330
41
100
AcDbEntity
  8
Ebene 1
100
AcDbBlockReference
  2
block 17
 10
0.0
 20
0.0
 30
0.0
  0
INSERT
  5
BE
330
41
100
AcDbEntity
  8
Ebene 1
100
AcDbBlockReference
  2
block 18
 10
0.0
 20
0.0
 30
0.0
  0
INSERT
  5
C6
330
41
100
AcDbEntity
  8
Ebene 1
100
AcDbBlockReference
  2
block 19
 10
0.0
 20
0.0
 30
0.0
  0
INSERT
  5
CE
330
41
100
AcDbEntity
  8
Ebene 1
100
AcDbBlockReference
  2
block 20
 10
0.0
 20
0.0
 30
0.0
  0
INSERT
  5
D6
330
41
100
AcDbEntity
  8
Ebene 1
100
AcDbBlockReference
  2
block 21
 10
0.0
 20
0.0
 30
0.0
  0
INSERT
  5
DE
330
41
100
AcDbEntity
  8
Ebene 1
100
AcDbBlockReference
  2
block 22
 10
0.0
 20
0.0
 30
0.0
  0
ENDBLK
  5
44
330
41
100
AcDbEntity
  8
0
100
AcDbBlockEnd
  0
BLOCK
  5
47
330
45
100
AcDbEntity
  8
0
100
AcDbBlockBegin
  2
block 3
 70
     0
 10
0.0
 20
0.0
 30
0.0
  3
block 3
  1

  0
POLYLINE
  5
49
330
45
100
AcDbEntity
  8
Ebene 1
 62
     7
420
 16777215
370
    25
100
AcDb2dPolyline
 66
     1
 10
0.0
 20
0.0
 30
0.0
  0
VERTEX
  5
4A
330
49
100
AcDbEntity
  8
Ebene 1
 62
     7
420
 16777215
370
    25
100
AcDbVertex
100
AcDb2dVertex
 10
206.616666658977
 20
-10.59604767756238
 30
0.0
  0
VERTEX
  5
4B
330
49
100
AcDbEntity
  8
Ebene 1
 62
     7
420
 16777215
370
    25
100
AcDbVertex
100
AcDb2dVertex
 10
216.6166666589773
 20
-10.59604767935914
 30
0.0
  0
SEQEND
  5
4C
330
49
100
AcDbEntity
  8
Ebene 1
 62
     7
420
 16777215
370
    25
  0
ENDBLK
  5
48
330
45
100
AcDbEntity
  8
0
100
AcDbBlockEnd
  0
BLOCK
  5
4F
330
4D
100
AcDbEntity
  8
0
100
AcDbBlockBegin
  2
block 4
 70
     0
 10
0.0
 20
0.0
 30
0.0
  3
block 4
  1

  0
POLYLINE
  5
51
330
4D
100
AcDbEntity
  8
Ebene 1
 62
     7
420
 16777215
370
    25
100
AcDb2dPolyline
 66
     1
 10
0.0
 20
0.0
 30
0.0
  0
VERTEX
  5
52
330
51
100
AcDbEntity
  8
Ebene 1
 62
     7
420
 16777215
370
    25
100
AcDbVertex
100
AcDb2dVertex
 10
216.6166666589773
 20
-10.59604767935914
 30
0.0
  0
VERTEX
  5
53
330
51
100
AcDbEntity
  8
Ebene 1
 62
     7
420
 16777215
370
    25
100
AcDbVertex
100
AcDb2dVertex
 10
216.6166666584383
 20
-13.5960476793586
 30
0.0
  0
SEQEND
  5
54
330
51
100
AcDbEntity
  8
Ebene 1
 62
     7
420
 16777215
370
    25
  0
ENDBLK
  5
50
330
4D
100
AcDbEntity
  8
0
100
AcDbBlockEnd
  0
BLOCK
  5
57
330
55
100
AcDbEntity
  8
0
100
AcDbBlockBegin
  2
block 5
 70
     0
 10
0.0
 20
0.0
 30
0.0
  3
block 5
  1

  0
POLYLINE
  5
59
330
55
100
AcDbEntity
  8
Ebene 1
 62
     7
420
 16777215
370
    25
100
AcDb2dPolyline
 66
     1
 10
0.0
 20
0.0
 30
0.0
  0
VERTEX
  5
5A
330
59
100
AcDbEntity
  8
Ebene 1
 62
     7
420
 16777215
370
    25
100
AcDbVertex
100
AcDb2dVertex
 10
206.6166666584379
 20
-13.59604767756249
 30
0.0
  0
VERTEX
  5
5B
330
59
100
AcDbEntity
  8
Ebene 1
 62
     7
420
 16777215
370
    25
100
AcDbVertex
100
AcDb2dVertex
 10
206.616666658977
 20
-10.59604767756238
 30
0.0
  0
SEQEND
  5
5C
330
59
100
AcDbEntity
  8
Ebene 1
 62
     7
420
 16777215
370
    25
  0
ENDBLK
  5
58
330
55
100
AcDbEntity
  8
0
100
AcDbBlockEnd
  0
BLOCK
  5
5F
330
5D
100
AcDbEntity
  8
0
100
AcDbBlockBegin
  2
block 6
 70
     0
 10
0.0
 20
0.0
 30
0.0
  3
block 6
  1

  0
POLYLINE
  5
61
330
5D
100
AcDbEntity
  8
Ebene 1
 62
     7
420
 16777215
370
    25
100
AcDb2dPolyline
 66
     1
 10
0.0
 20
0.0
 30
0.0
  0
VERTEX
  5
62
330
61
100
AcDbEntity
  8
Ebene 1
 62
     7
420
 16777215
370
    25
100
AcDbVertex
100
AcDb2dVertex
 10
226.6166666589776
 20
-10.59604768115397
 30
0.0
  0
VERTEX
  5
63
330
61
100
AcDbEntity
  8
Ebene 1
 62
     7
420
 16777215
370
    25
100
AcDbVertex
100
AcDb2dVertex
 10
236.6166666589774
 20
-10.59604768295073
 30
0.0
  0
SEQEND
  5
64
330
61
100
AcDbEntity
  8
Ebene 1
 62
     7
420
 16777215
370
    25
  0
ENDBLK
  5
60
330
5D
100
AcDbEntity
  8
0
100
AcDbBlockEnd
  0
BLOCK
  5
67
330
65
100
AcDbEntity
  8
0
100
AcDbBlockBegin
  2
block 7
 70
     0
 10
0.0
 20
0.0
 30
0.0
  3
block 7
  1

  0
POLYLINE
  5
69
330
65
100
AcDbEntity
  8
Ebene 1
 62
     7
420
 16777215
370
    25
100
AcDb2dPolyline
 66
     1
 10
0.0
 20
0.0
 30
0.0
  0
VERTEX
  5
6A
330
69
100
AcDbEntity
  8
Ebene 1
 62
     7
420
 16777215
370
    25
100
AcDbVertex
100
AcDb2dVertex
 10
236.6166666589774
 20
-10.59604768295073
 30
0.0
  0
VERTEX
  5
6B
330
69
100
AcDbEntity
  8
Ebene 1
 62
     7
420
 16777215
370
    25
100
AcDbVertex
100
AcDb2dVertex
 10
236.6166666584383
 20
-13.59604768294955
 30
0.0
  0
SEQEND
  5
6C
330
69
100
AcDbEntity
  8
Ebene 1
 62
     7
420
 16777215
370
    25
  0
ENDBLK
  5
68
330
65
100
AcDbEntity
  8
0
100
AcDbBlockEnd
  0
BLOCK
  5
6F
330
6D
100
AcDbEntity
  8
0
100
AcDbBlockBegin
  2
block 8
 70
     0
 10
0.0
 20
0.0
 30
0.0
  3
block 8
  1

  0
POLYLINE
  5
71
330
6D
100
AcDbEntity
  8
Ebene 1
 62
     7
420
 16777215
370
    25
100
AcDb2dPolyline
 66
     1
 10
0.0
 20
0.0
 30
0.0
  0
VERTEX
  5
72
330
71
100
AcDbEntity
  8
Ebene 1
 62
     7
420
 16777215
370
    25
100
AcDbVertex
100
AcDb2dVertex
 10
226.6166666584386
 20
-13.59604768115344
 30
0.0
  0
VERTEX
  5
73
330
71
100
AcDbEntity
  8
Ebene 1
 62
     7
420
 16777215
370
    25
100
AcDbVertex
100
AcDb2dVertex
 10
226.6166666589776
 20
-10.59604768115397
 30
0.0
  0
SEQEND
  5
74
330
71
100
AcDbEntity
  8
Ebene 1
 62
     7
420
 16777215
370
    25
  0
ENDBLK
  5
70
330
6D
100
AcDbEntity
  8
0
100
AcDbBlockEnd
  0
BLOCK
  5
77
330
75
100
AcDbEntity
  8
0
100
AcDbBlockBegin
  2
block 9
 70
     0
 10
0.0
 20
0.0
 30
0.0
  3
block 9
  1

  0
POLYLINE
  5
79
330
75
100
AcDbEntity
  8
Ebene 1
 62
     7
420
 16777215
370
    25
100
AcDb2dPolyline
 66
     1
 10
0.0
 20
0.0
 30
0.0
  0
VERTEX
  5
7A
330
79
100
AcDbEntity
  8
Ebene 1
 62
     7
420
 16777215
370
    25
100
AcDbVertex
100
AcDb2dVertex
 10
236.6166666584383
 20
-13.59604768294955
 30
0.0
  0
VERTEX
  5
7B
330
79
100
AcDbEntity
  8
Ebene 1
 62
     7
420
 16777215
370
    25
100
AcDbVertex
100
AcDb2dVertex
 10
236.6166666334762
 20
-152.5960476829493
 30
0.0
  0
SEQEND
  5
7C
330
79
100
AcDbEntity
  8
Ebene 1
 62
     7
420
 16777215
370
    25
  0
ENDBLK
  5
78
330
75
100
AcDbEntity
  8
0
100
AcDbBlockEnd
  0
BLOCK
  5
7F
330
7D
100
AcDbEntity
  8
0
100
AcDbBlockBegin
  2
block 10
 70
     0
 10
0.0
 20
0.0
 30
0.0
  3
block 10
  1

  0
POLYLINE
  5
81
330
7D
100
AcDbEntity
  8
Ebene 1
 62
     7
420
 16777215
370
    25
100
AcDb2dPolyline
 66
     1
 10
0.0
 20
0.0
 30
0.0
  0
VERTEX
  5
82
330
81
100
AcDbEntity
  8
Ebene 1
 62
     7
420
 16777215
370
    25
100
AcDbVertex
100
AcDb2dVertex
 10
196.6166666340151
 20
-149.5960476757667
 30
0.0
  0
VERTEX
  5
83
330
81
100
AcDbEntity
  8
Ebene 1
 62
     7
420
 16777215
370
    25
100
AcDbVertex
100
AcDb2dVertex
 10
196.6166666584382
 20
-13.59604767576637
 30
0.0
  0
SEQEND
  5
84
330
81
100
AcDbEntity
  8
Ebene 1
 62
     7
420
 16777215
370
    25
  0
ENDBLK
  5
80
330
7D
100
AcDbEntity
  8
0
100
AcDbBlockEnd
  0
BLOCK
  5
87
330
85
100
AcDbEntity
  8
0
100
AcDbBlockBegin
  2
block 11
 70
     0
 10
0.0
 20
0.0
 30
0.0
  3
block 11
  1

  0
POLYLINE
  5
89
330
85
100
AcDbEntity
  8
Ebene 1
 62
     7
420
 16777215
370
    25
100
AcDb2dPolyline
 66
     1
 10
0.0
 20
0.0
 30
0.0
  0
VERTEX
  5
8A
330
89
100
AcDbEntity
  8
Ebene 1
 62
     7
420
 16777215
370
    25
100
AcDbVertex
100
AcDb2dVertex
 10
206.6166666334765
 20
-152.5960476775629
 30
0.0
  0
VERTEX
  5
8B
330
89
100
AcDbEntity
  8
Ebene 1
 62
     7
420
 16777215
370
    25
100
AcDbVertex
100
AcDb2dVertex
 10
216.6166666334762
 20
-152.5960476793584
 30
0.0
  0
SEQEND
  5
8C
330
89
100
AcDbEntity
  8
Ebene 1
 62
     7
420
 16777215
370
    25
  0
ENDBLK
  5
88
330
85
100
AcDbEntity
  8
0
100
AcDbBlockEnd
  0
BLOCK
  5
8F
330
8D
100
AcDbEntity
  8
0
100
AcDbBlockBegin
  2
block 12
 70
     0
 10
0.0
 20
0.0
 30
0.0
  3
block 12
  1

  0
POLYLINE
  5
91
330
8D
100
AcDbEntity
  8
Ebene 1
 62
     7
420
 16777215
370
    25
100
AcDb2dPolyline
 66
     1
 10
0.0
 20
0.0
 30
0.0
  0
VERTEX
  5
92
330
91
100
AcDbEntity
  8
Ebene 1
 62
     7
420
 16777215
370
    25
100
AcDbVertex
100
AcDb2dVertex
 10
216.6166666334762
 20
-152.5960476793584
 30
0.0
  0
VERTEX
  5
93
330
91
100
AcDbEntity
  8
Ebene 1
 62
     7
420
 16777215
370
    25
100
AcDbVertex
100
AcDb2dVertex
 10
216.6166666340152
 20
-149.5960476793586
 30
0.0
  0
SEQEND
  5
94
330
91
100
AcDbEntity
  8
Ebene 1
 62
     7
420
 16777215
370
    25
  0
ENDBLK
  5
90
330
8D
100
AcDbEntity
  8
0
100
AcDbBlockEnd
  0
BLOCK
  5
97
330
95
100
AcDbEntity
  8
0
100
AcDbBlockBegin
  2
block 13
 70
     0
 10
0.0
 20
0.0
 30
0.0
  3
block 13
  1

  0
POLYLINE
  5
99
330
95
100
AcDbEntity
  8
Ebene 1
 62
     7
420
 16777215
370
    25
100
AcDb2dPolyline
 66
     1
 10
0.0
 20
0.0
 30
0.0
  0
VERTEX
  5
9A
330
99
100
AcDbEntity
  8
Ebene 1
 62
     7
420
 16777215
370
    25
100
AcDbVertex
100
AcDb2dVertex
 10
206.6166666340155
 20
-149.5960476775631
 30
0.0
  0
VERTEX
  5
9B
330
99
100
AcDbEntity
  8
Ebene 1
 62
     7
420
 16777215
370
    25
100
AcDbVertex
100
AcDb2dVertex
 10
206.6166666334765
 20
-152.5960476775629
 30
0.0
  0
SEQEND
  5
9C
330
99
100
AcDbEntity
  8
Ebene 1
 62
     7
420
 16777215
370
    25
  0
ENDBLK
  5
98
330
95
100
AcDbEntity
  8
0
100
AcDbBlockEnd
  0
BLOCK
  5
9F
330
9D
100
AcDbEntity
  8
0
100
AcDbBlockBegin
  2
block 14
 70
     0
 10
0.0
 20
0.0
 30
0.0
  3
block 14
  1

  0
POLYLINE
  5
A1
330
9D
100
AcDbEntity
  8
Ebene 1
 62
     7
420
 16777215
370
    25
100
AcDb2dPolyline
 66
     1
 10
0.0
 20
0.0
 30
0.0
  0
VERTEX
  5
A2
330
A1
100
AcDbEntity
  8
Ebene 1
 62
     7
420
 16777215
370
    25
100
AcDbVertex
100
AcDb2dVertex
 10
236.6166666340153
 20
-149.5960476829499
 30
0.0
  0
VERTEX
  5
A3
330
A1
100
AcDbEntity
  8
Ebene 1
 62
     7
420
 16777215
370
    25
100
AcDbVertex
100
AcDb2dVertex
 10
236.6166666334762
 20
-152.5960476829493
 30
0.0
  0
SEQEND
  5
A4
330
A1
100
AcDbEntity
  8
Ebene 1
 62
     7
420
 16777215
370
    25
  0
ENDBLK
  5
A0
330
9D
100
AcDbEntity
  8
0
100
AcDbBlockEnd
  0
BLOCK
  5
A7
330
A5
100
AcDbEntity
  8
0
100
AcDbBlockBegin
  2
block 15
 70
     0
 10
0.0
 20
0.0
 30
0.0
  3
block 15
  1

  0
POLYLINE
  5
A9
330
A5
100
AcDbEntity
  8
Ebene 1
 62
     7
420
 16777215
370
    25
100
AcDb2dPolyline
 66
     1
 10
0.0
 20
0.0
 30
0.0
  0
VERTEX
  5
AA
330
A9
100
AcDbEntity
  8
Ebene 1
 62
     7
420
 16777215
370
    25
100
AcDbVertex
100
AcDb2dVertex
 10
236.6166666334762
 20
-152.5960476829493
 30
0.0
  0
VERTEX
  5
AB
330
A9
100
AcDbEntity
  8
Ebene 1
 62
     7
420
 16777215
370
    25
100
AcDbVertex
100
AcDb2dVertex
 10
226.6166666334765
 20
-152.5960476811539
 30
0.0
  0
SEQEND
  5
AC
330
A9
100
AcDbEntity
  8
Ebene 1
 62
     7
420
 16777215
370
    25
  0
ENDBLK
  5
A8
330
A5
100
AcDbEntity
  8
0
100
AcDbBlockEnd
  0
BLOCK
  5
AF
330
AD
100
AcDbEntity
  8
0
100
AcDbBlockBegin
  2
block 16
 70
     0
 10
0.0
 20
0.0
 30
0.0
  3
block 16
  1

  0
POLYLINE
  5
B1
330
AD
100
AcDbEntity
  8
Ebene 1
 62
     7
420
 16777215
370
    25
100
AcDb2dPolyline
 66
     1
 10
0.0
 20
0.0
 30
0.0
  0
VERTEX
  5
B2
330
B1
100
AcDbEntity
  8
Ebene 1
 62
     7
420
 16777215
370
    25
100
AcDbVertex
100
AcDb2dVertex
 10
226.6166666334765
 20
-152.5960476811539
 30
0.0
  0
VERTEX
  5
B3
330
B1
100
AcDbEntity
  8
Ebene 1
 62
     7
420
 16777215
370
    25
100
AcDbVertex
100
AcDb2dVertex
 10
226.6166666340156
 20
-149.5960476811547
 30
0.0
  0
SEQEND
  5
B4
330
B1
100
AcDbEntity
  8
Ebene 1
 62
     7
420
 16777215
370
    25
  0
ENDBLK
  5
B0
330
AD
100
AcDbEntity
  8
0
100
AcDbBlockEnd
  0
BLOCK
  5
B7
330
B5
100
AcDbEntity
  8
0
100
AcDbBlockBegin
  2
block 17
 70
     0
 10
0.0
 20
0.0
 30
0.0
  3
block 17
  1

  0
POLYLINE
  5
B9
330
B5
100
AcDbEntity
  8
Ebene 1
 62
     7
420
 16777215
370
    25
100
AcDb2dPolyline
 66
     1
 10
0.0
 20
0.0
 30
0.0
  0
VERTEX
  5
BA
330
B9
100
AcDbEntity
  8
Ebene 1
 62
     7
420
 16777215
370
    25
100
AcDbVertex
100
AcDb2dVertex
 10
206.6166666340155
 20
-149.5960476775631
 30
0.0
  0
VERTEX
  5
BB
330
B9
100
AcDbEntity
  8
Ebene 1
 62
     7
420
 16777215
370
    25
100
AcDbVertex
100
AcDb2dVertex
 10
196.6166666340151
 20
-149.5960476757667
 30
0.0
  0
SEQEND
  5
BC
330
B9
100
AcDbEntity
  8
Ebene 1
 62
     7
420
 16777215
370
    25
  0
ENDBLK
  5
B8
330
B5
100
AcDbEntity
  8
0
100
AcDbBlockEnd
  0
BLOCK
  5
BF
330
BD
100
AcDbEntity
  8
0
100
AcDbBlockBegin
  2
block 18
 70
     0
 10
0.0
 20
0.0
 30
0.0
  3
block 18
  1

  0
POLYLINE
  5
C1
330
BD
100
AcDbEntity
  8
Ebene 1
 62
     7
420
 16777215
370
    25
100
AcDb2dPolyline
 66
     1
 10
0.0
 20
0.0
 30
0.0
  0
VERTEX
  5
C2
330
C1
100
AcDbEntity
  8
Ebene 1
 62
     7
420
 16777215
370
    25
100
AcDbVertex
100
AcDb2dVertex
 10
216.6166666340152
 20
-149.5960476793586
 30
0.0
  0
VERTEX
  5
C3
330
C1
100
AcDbEntity
  8
Ebene 1
 62
     7
420
 16777215
370
    25
100
AcDbVertex
100
AcDb2dVertex
 10
226.6166666340156
 20
-149.5960476811547
 30
0.0
  0
SEQEND
  5
C4
330
C1
100
AcDbEntity
  8
Ebene 1
 62
     7
420
 16777215
370
    25
  0
ENDBLK
  5
C0
330
BD
100
AcDbEntity
  8
0
100
AcDbBlockEnd
  0
BLOCK
  5
C7
330
C5
100
AcDbEntity
  8
0
100
AcDbBlockBegin
  2
block 19
 70
     0
 10
0.0
 20
0.0
 30
0.0
  3
block 19
  1

  0
POLYLINE
  5
C9
330
C5
100
AcDbEntity
  8
Ebene 1
 62
     7
420
 16777215
370
    25
100
AcDb2dPolyline
 66
     1
 10
0.0
 20
0.0
 30
0.0
  0
VERTEX
  5
CA
330
C9
100
AcDbEntity
  8
Ebene 1
 62
     7
420
 16777215
370
    25
100
AcDbVertex
100
AcDb2dVertex
 10
236.6166666334762
 20
-152.5960476829493
 30
0.0
  0
VERTEX
  5
CB
330
C9
100
AcDbEntity
  8
Ebene 1
 62
     7
420
 16777215
370
    25
100
AcDbVertex
100
AcDb2dVertex
 10
226.6166666334765
 20
-152.5960476811539
 30
0.0
  0
SEQEND
  5
CC
330
C9
100
AcDbEntity
  8
Ebene 1
 62
     7
420
 16777215
370
    25
  0
ENDBLK
  5
C8
330
C5
100
AcDbEntity
  8
0
100
AcDbBlockEnd
  0
BLOCK
  5
CF
330
CD
100
AcDbEntity
  8
0
100
AcDbBlockBegin
  2
block 20
 70
     0
 10
0.0
 20
0.0
 30
0.0
  3
block 20
  1

  0
POLYLINE
  5
D1
330
CD
100
AcDbEntity
  8
Ebene 1
 62
     7
420
 16777215
370
    25
100
AcDb2dPolyline
 66
     1
 10
0.0
 20
0.0
 30
0.0
  0
VERTEX
  5
D2
330
D1
100
AcDbEntity
  8
Ebene 1
 62
     7
420
 16777215
370
    25
100
AcDbVertex
100
AcDb2dVertex
 10
216.6166666334762
 20
-152.5960476793584
 30
0.0
  0
VERTEX
  5
D3
330
D1
100
AcDbEntity
  8
Ebene 1
 62
     7
420
 16777215
370
    25
100
AcDbVertex
100
AcDb2dVertex
 10
206.6166666334765
 20
-152.5960476775629
 30
0.0
  0
SEQEND
  5
D4
330
D1
100
AcDbEntity
  8
Ebene 1
 62
     7
420
 16777215
370
    25
  0
ENDBLK
  5
D0
330
CD
100
AcDbEntity
  8
0
100
AcDbBlockEnd
  0
BLOCK
  5
D7
330
D5
100
AcDbEntity
  8
0
100
AcDbBlockBegin
  2
block 21
 70
     0
 10
0.0
 20
0.0
 30
0.0
  3
block 21
  1

  0
POLYLINE
  5
D9
330
D5
100
AcDbEntity
  8
Ebene 1
 62
     7
420
 16777215
370
    25
100
AcDb2dPolyline
 66
     1
 10
0.0
 20
0.0
 30
0.0
  0
VERTEX
  5
DA
330
D9
100
AcDbEntity
  8
Ebene 1
 62
     7
420
 16777215
370
    25
100
AcDbVertex
100
AcDb2dVertex
 10
196.6166666584382
 20
-13.59604767576637
 30
0.0
  0
VERTEX
  5
DB
330
D9
100
AcDbEntity
  8
Ebene 1
 62
     7
420
 16777215
370
    25
100
AcDbVertex
100
AcDb2dVertex
 10
206.6166666584379
 20
-13.59604767756249
 30
0.0
  0
SEQEND
  5
DC
330
D9
100
AcDbEntity
  8
Ebene 1
 62
     7
420
 16777215
370
    25
  0
ENDBLK
  5
D8
330
D5
100
AcDbEntity
  8
0
100
AcDbBlockEnd
  0
BLOCK
  5
DF
330
DD
100
AcDbEntity
  8
0
100
AcDbBlockBegin
  2
block 22
 70
     0
 10
0.0
 20
0.0
 30
0.0
  3
block 22
  1

  0
POLYLINE
  5
E1
330
DD
100
AcDbEntity
  8
Ebene 1
 62
     7
420
 16777215
370
    25
100
AcDb2dPolyline
 66
     1
 10
0.0
 20
0.0
 30
0.0
  0
VERTEX
  5
E2
330
E1
100
AcDbEntity
  8
Ebene 1
 62
     7
420
 16777215
370
    25
100
AcDbVertex
100
AcDb2dVertex
 10
216.6166666584383
 20
-13.5960476793586
 30
0.0
  0
VERTEX
  5
E3
330
E1
100
AcDbEntity
  8
Ebene 1
 62
     7
420
 16777215
370
    25
100
AcDbVertex
100
AcDb2dVertex
 10
226.6166666584386
 20
-13.59604768115344
 30
0.0
  0
SEQEND
  5
E4
330
E1
100
AcDbEntity
  8
Ebene 1
 62
     7
420
 16777215
370
    25
  0
ENDBLK
  5
E0
330
DD
100
AcDbEntity
  8
0
100
AcDbBlockEnd
  0
BLOCK
  5
E7
330
E5
100
AcDbEntity
  8
0
100
AcDbBlockBegin
  2
block 23
 70
     0
 10
0.0
 20
0.0
 30
0.0
  3
block 23
  1

  0
INSERT
  5
EA
330
E5
100
AcDbEntity
  8
Ebene 1
100
AcDbBlockReference
  2
block 24
 10
0.0
 20
0.0
 30
0.0
  0
INSERT
  5
116
330
E5
100
AcDbEntity
  8
Ebene 1
100
AcDbBlockReference
  2
block 25
 10
0.0
 20
0.0
 30
0.0
  0
INSERT
  5
11E
330
E5
100
AcDbEntity
  8
Ebene 1
100
AcDbBlockReference
  2
block 26
 10
0.0
 20
0.0
 30
0.0
  0
ENDBLK
  5
E8
330
E5
100
AcDbEntity
  8
0
100
AcDbBlockEnd
  0
BLOCK
  5
EB
330
E9
100
AcDbEntity
  8
0
100
AcDbBlockBegin
  2
block 24
 70
     0
 10
0.0
 20
0.0
 30
0.0
  3
block 24
  1

  0
POLYLINE
  5
ED
330
E9
100
AcDbEntity
  8
Ebene 1
 62
     7
420
 16777215
370
    25
100
AcDb2dPolyline
 66
     1
 10
0.0
 20
0.0
 30
0.0
  0
VERTEX
  5
EE
330
ED
100
AcDbEntity
  8
Ebene 1
 62
     7
420
 16777215
370
    25
100
AcDbVertex
100
AcDb2dVertex
 10
492.9444443747709
 20
-7.761111109170834
 30
0.0
  0
VERTEX
  5
EF
330
ED
100
AcDbEntity
  8
Ebene 1
 62
     7
420
 16777215
370
    25
100
AcDbVertex
100
AcDb2dVertex
 10
492.9444443747709
 20
-142.7611111091701
 30
0.0
  0
VERTEX
  5
F0
330
ED
100
AcDbEntity
  8
Ebene 1
 62
     7
420
 16777215
370
    25
100
AcDbVertex
100
AcDb2dVertex
 10
492.9444443747709
 20
-143.7611111091708
 30
0.0
  0
VERTEX
  5
F1
330
ED
100
AcDbEntity
  8
Ebene 1
 62
     7
420
 16777215
370
    25
100
AcDbVertex
100
AcDb2dVertex
 10
472.9444443747714
 20
-143.7611111091708
 30
0.0
  0
VERTEX
  5
F2
330
ED
100
AcDbEntity
  8
Ebene 1
 62
     7
420
 16777215
370
    25
100
AcDbVertex
100
AcDb2dVertex
 10
472.9444443747714
 20
-146.7611111091703
 30
0.0
  0
VERTEX
  5
F3
330
ED
100
AcDbEntity
  8
Ebene 1
 62
     7
420
 16777215
370
    25
100
AcDbVertex
100
AcDb2dVertex
 10
452.9444443747707
 20
-146.7611111091703
 30
0.0
  0
VERTEX
  5
F4
330
ED
100
AcDbEntity
  8
Ebene 1
 62
     7
420
 16777215
370
    25
100
AcDbVertex
100
AcDb2dVertex
 10
452.9444443747707
 20
-143.7611111091708
 30
0.0
  0
VERTEX
  5
F5
330
ED
100
AcDbEntity
  8
Ebene 1
 62
     7
420
 16777215
370
    25
100
AcDbVertex
100
AcDb2dVertex
 10
432.9444443747713
 20
-143.7611111091708
 30
0.0
  0
VERTEX
  5
F6
330
ED
100
AcDbEntity
  8
Ebene 1
 62
     7
420
 16777215
370
    25
100
AcDbVertex
100
AcDb2dVertex
 10
432.9444443747713
 20
-146.7611111091703
 30
0.0
  0
VERTEX
  5
F7
330
ED
100
AcDbEntity
  8
Ebene 1
 62
     7
420
 16777215
370
    25
100
AcDbVertex
100
AcDb2dVertex
 10
412.9444443747719
 20
-146.7611111091703
 30
0.0
  0
VERTEX
  5
F8
330
ED
100
AcDbEntity
  8
Ebene 1
 62
     7
420
 16777215
370
    25
100
AcDbVertex
100
AcDb2dVertex
 10
412.9444443747719
 20
-143.7611111091708
 30
0.0
  0
VERTEX
  5
F9
330
ED
100
AcDbEntity
  8
Ebene 1
 62
     7
420
 16777215
370
    25
100
AcDbVertex
100
AcDb2dVertex
 10
392.9444443747712
 20
-143.7611111091708
 30
0.0
  0
VERTEX
  5
FA
330
ED
100
AcDbEntity
  8
Ebene 1
 62
     7
420
 16777215
370
    25
100
AcDbVertex
100
AcDb2dVertex
 10
392.9444443747712
 20
-146.7611111091703
 30
0.0
  0
VERTEX
  5
FB
330
ED
100
AcDbEntity
  8
Ebene 1
 62
     7
420
 16777215
370
    25
100
AcDbVertex
100
AcDb2dVertex
 10
372.9444443747711
 20
-146.7611111091703
 30
0.0
  0
VERTEX
  5
FC
330
ED
100
AcDbEntity
  8
Ebene 1
 62
     7
420
 16777215
370
    25
100
AcDbVertex
100
AcDb2dVertex
 10
372.9444443747711
 20
-143.7611111091708
 30
0.0
  0
VERTEX
  5
FD
330
ED
100
AcDbEntity
  8
Ebene 1
 62
     7
420
 16777215
370
    25
100
AcDbVertex
100
AcDb2dVertex
 10
352.9444443747711
 20
-143.7611111091708
 30
0.0
  0
VERTEX
  5
FE
330
ED
100
AcDbEntity
  8
Ebene 1
 62
     7
420
 16777215
370
    25
100
AcDbVertex
100
AcDb2dVertex
 10
352.9444443747711
 20
-146.7611111091703
 30
0.0
  0
VERTEX
  5
FF
330
ED
100
AcDbEntity
  8
Ebene 1
 62
     7
420
 16777215
370
    25
100
AcDbVertex
100
AcDb2dVertex
 10
332.9444443747716
 20
-146.7611111091703
 30
0.0
  0
VERTEX
  5
100
330
ED
100
AcDbEntity
  8
Ebene 1
 62
     7
420
 16777215
370
    25
100
AcDbVertex
100
AcDb2dVertex
 10
332.9444443747716
 20
-143.7611111091708
 30
0.0
  0
VERTEX
  5
101
330
ED
100
AcDbEntity
  8
Ebene 1
 62
     7
420
 16777215
370
    25
100
AcDbVertex
100
AcDb2dVertex
 10
312.9444443747709
 20
-143.7611111091708
 30
0.0
  0
VERTEX
  5
102
330
ED
100
AcDbEntity
  8
Ebene 1
 62
     7
420
 16777215
370
    25
100
AcDbVertex
100
AcDb2dVertex
 10
312.9444443747709
 20
-7.761111109170513
 30
0.0
  0
VERTEX
  5
103
330
ED
100
AcDbEntity
  8
Ebene 1
 62
     7
420
 16777215
370
    25
100
AcDbVertex
100
AcDb2dVertex
 10
332.9444443747716
 20
-7.761111109170834
 30
0.0
  0
VERTEX
  5
104
330
ED
100
AcDbEntity
  8
Ebene 1
 62
     7
420
 16777215
370
    25
100
AcDbVertex
100
AcDb2dVertex
 10
332.9444443747716
 20
-4.761111109170728
 30
0.0
  0
VERTEX
  5
105
330
ED
100
AcDbEntity
  8
Ebene 1
 62
     7
420
 16777215
370
    25
100
AcDbVertex
100
AcDb2dVertex
 10
352.9444443747711
 20
-4.761111109170728
 30
0.0
  0
VERTEX
  5
106
330
ED
100
AcDbEntity
  8
Ebene 1
 62
     7
420
 16777215
370
    25
100
AcDbVertex
100
AcDb2dVertex
 10
352.9444443747711
 20
-7.761111109170513
 30
0.0
  0
VERTEX
  5
107
330
ED
100
AcDbEntity
  8
Ebene 1
 62
     7
420
 16777215
370
    25
100
AcDbVertex
100
AcDb2dVertex
 10
372.9444443747711
 20
-7.761111109170834
 30
0.0
  0
VERTEX
  5
108
330
ED
100
AcDbEntity
  8
Ebene 1
 62
     7
420
 16777215
370
    25
100
AcDbVertex
100
AcDb2dVertex
 10
372.9444443747711
 20
-4.761111109170728
 30
0.0
  0
VERTEX
  5
109
330
ED
100
AcDbEntity
  8
Ebene 1
 62
     7
420
 16777215
370
    25
100
AcDbVertex
100
AcDb2dVertex
 10
392.9444443747712
 20
-4.761111109170728
 30
0.0
  0
VERTEX
  5
10A
330
ED
100
AcDbEntity
  8
Ebene 1
 62
     7
420
 16777215
370
    25
100
AcDbVertex
100
AcDb2dVertex
 10
392.9444443747712
 20
-7.761111109170513
 30
0.0
  0
VERTEX
  5
10B
330
ED
100
AcDbEntity
  8
Ebene 1
 62
     7
420
 16777215
370
    25
100
AcDbVertex
100
AcDb2dVertex
 10
412.9444443747719
 20
-7.761111109170834
 30
0.0
  0
VERTEX
  5
10C
330
ED
100
AcDbEntity
  8
Ebene 1
 62
     7
420
 16777215
370
    25
100
AcDbVertex
100
AcDb2dVertex
 10
412.9444443747719
 20
-4.761111109170728
 30
0.0
  0
VERTEX
  5
10D
330
ED
100
AcDbEntity
  8
Ebene 1
 62
     7
420
 16777215
370
    25
100
AcDbVertex
100
AcDb2dVertex
 10
432.9444443747713
 20
-4.761111109170728
 30
0.0
  0
VERTEX
  5
10E
330
ED
100
AcDbEntity
  8
Ebene 1
 62
     7
420
 16777215
370
    25
100
AcDbVertex
100
AcDb2dVertex
 10
432.9444443747713
 20
-7.761111109170513
 30
0.0
  0
VERTEX
  5
10F
330
ED
100
AcDbEntity
  8
Ebene 1
 62
     7
420
 16777215
370
    25
100
AcDbVertex
100
AcDb2dVertex
 10
452.9444443747707
 20
-7.761111109170834
 30
0.0
  0
VERTEX
  5
110
330
ED
100
AcDbEntity
  8
Ebene 1
 62
     7
420
 16777215
370
    25
100
AcDbVertex
100
AcDb2dVertex
 10
452.9444443747707
 20
-4.761111109170728
 30
0.0
  0
VERTEX
  5
111
330
ED
100
AcDbEntity
  8
Ebene 1
 62
     7
420
 16777215
370
    25
100
AcDbVertex
100
AcDb2dVertex
 10
472.9444443747714
 20
-4.761111109170728
 30
0.0
  0
VERTEX
  5
112
330
ED
100
AcDbEntity
  8
Ebene 1
 62
     7
420
 16777215
370
    25
100
AcDbVertex
100
AcDb2dVertex
 10
472.9444443747714
 20
-7.761111109170513
 30
0.0
  0
VERTEX
  5
113
330
ED
100
AcDbEntity
  8
Ebene 1
 62
     7
420
 16777215
370
    25
100
AcDbVertex
100
AcDb2dVertex
 10
492.9444443747709
 20
-7.761111109170834
 30
0.0
  0
SEQEND
  5
114
330
ED
100
AcDbEntity
  8
Ebene 1
 62
     7
420
 16777215
370
    25
  0
ENDBLK
  5
EC
330
E9
100
AcDbEntity
  8
0
100
AcDbBlockEnd
  0
BLOCK
  5
117
330
115
100
AcDbEntity
  8
0
100
AcDbBlockBegin
  2
block 25
 70
     0
 10
0.0
 20
0.0
 30
0.0
  3
block 25
  1

  0
POLYLINE
  5
119
330
115
100
AcDbEntity
  8
Ebene 1
 62
     7
420
 16777215
370
    25
100
AcDb2dPolyline
 66
     1
 10
0.0
 20
0.0
 30
0.0
  0
VERTEX
  5
11A
330
119
100
AcDbEntity
  8
Ebene 1
 62
     7
420
 16777215
370
    25
100
AcDbVertex
100
AcDb2dVertex
 10
452.9444443747707
 20
-146.7611111091703
 30
0.0
  0
VERTEX
  5
11B
330
119
100
AcDbEntity
  8
Ebene 1
 62
     7
420
 16777215
370
    25
100
AcDbVertex
100
AcDb2dVertex
 10
472.9444443747714
 20
-146.7611111091703
 30
0.0
  0
SEQEND
  5
11C
330
119
100
AcDbEntity
  8
Ebene 1
 62
     7
420
 16777215
370
    25
  0
ENDBLK
  5
118
330
115
100
AcDbEntity
  8
0
100
AcDbBlockEnd
  0
BLOCK
  5
11F
330
11D
100
AcDbEntity
  8
0
100
AcDbBlockBegin
  2
block 26
 70
     0
 10
0.0
 20
0.0
 30
0.0
  3
block 26
  1

  0
POLYLINE
  5
121
330
11D
100
AcDbEntity
  8
Ebene 1
 62
     7
420
 16777215
370
    25
100
AcDb2dPolyline
 66
     1
 10
0.0
 20
0.0
 30
0.0
  0
VERTEX
  5
122
330
121
100
AcDbEntity
  8
Ebene 1
 62
     7
420
 16777215
370
    25
100
AcDbVertex
100
AcDb2dVertex
 10
312.9444443747709
 20
-75.76111110917067
 30
0.0
  0
VERTEX
  5
123
330
121
100
AcDbEntity
  8
Ebene 1
 62
     7
420
 16777215
370
    25
100
AcDbVertex
100
AcDb2dVertex
 10
492.9444443747709
 20
-75.76111110917067
 30
0.0
  0
SEQEND
  5
124
330
121
100
AcDbEntity
  8
Ebene 1
 62
     7
420
 16777215
370
    25
  0
ENDBLK
  5
120
330
11D
100
AcDbEntity
  8
0
100
AcDbBlockEnd
  0
BLOCK
  5
127
330
125
100
AcDbEntity
  8
0
100
AcDbBlockBegin
  2
block 27
 70
     0
 10
0.0
 20
0.0
 30
0.0
  3
block 27
  1

  0
INSERT
  5
12A
330
125
100
AcDbEntity
  8
Ebene 1
100
AcDbBlockReference
  2
block 28
 10
0.0
 20
0.0
 30
0.0
  0
INSERT
  5
159
330
125
100
AcDbEntity
  8
Ebene 1
100
AcDbBlockReference
  2
block 29
 10
0.0
 20
0.0
 30
0.0
  0
INSERT
  5
161
330
125
100
AcDbEntity
  8
Ebene 1
100
AcDbBlockReference
  2
block 30
 10
0.0
 20
0.0
 30
0.0
  0
INSERT
  5
169
330
125
100
AcDbEntity
  8
Ebene 1
100
AcDbBlockReference
  2
block 31
 10
0.0
 20
0.0
 30
0.0
  0
INSERT
  5
170
330
125
100
AcDbEntity
  8
Ebene 1
100
AcDbBlockReference
  2
block 32
 10
0.0
 20
0.0
 30
0.0
  0
INSERT
  5
178
330
125
100
AcDbEntity
  8
Ebene 1
100
AcDbBlockReference
  2
block 33
 10
0.0
 20
0.0
 30
0.0
  0
INSERT
  5
180
330
125
100
AcDbEntity
  8
Ebene 1
100
AcDbBlockReference
  2
block 34
 10
0.0
 20
0.0
 30
0.0
  0
INSERT
  5
188
330
125
100
AcDbEntity
  8
Ebene 1
100
AcDbBlockReference
  2
block 35
 10
0.0
 20
0.0
 30
0.0
  0
INSERT
  5
190
330
125
100
AcDbEntity
  8
Ebene 1
100
AcDbBlockReference
  2
block 36
 10
0.0
 20
0.0
 30
0.0
  0
INSERT
  5
198
330
125
100
AcDbEntity
  8
Ebene 1
100
AcDbBlockReference
  2
block 37
 10
0.0
 20
0.0
 30
0.0
  0
INSERT
  5
1A0
330
125
100
AcDbEntity
  8
Ebene 1
100
AcDbBlockReference
  2
block 38
 10
0.0
 20
0.0
 30
0.0
  0
INSERT
  5
1A8
330
125
100
AcDbEntity
  8
Ebene 1
100
AcDbBlockReference
  2
block 39
 10
0.0
 20
0.0
 30
0.0
  0
INSERT
  5
1B0
330
125
100
AcDbEntity
  8
Ebene 1
100
AcDbBlockReference
  2
block 40
 10
0.0
 20
0.0
 30
0.0
  0
INSERT
  5
1B8
330
125
100
AcDbEntity
  8
Ebene 1
100
AcDbBlockReference
  2
block 41
 10
0.0
 20
0.0
 30
0.0
  0
INSERT
  5
1C0
330
125
100
AcDbEntity
  8
Ebene 1
100
AcDbBlockReference
  2
block 42
 10
0.0
 20
0.0
 30
0.0
  0
INSERT
  5
1C8
330
125
100
AcDbEntity
  8
Ebene 1
100
AcDbBlockReference
  2
block 43
 10
0.0
 20
0.0
 30
0.0
  0
INSERT
  5
1D0
330
125
100
AcDbEntity
  8
Ebene 1
100
AcDbBlockReference
  2
block 44
 10
0.0
 20
0.0
 30
0.0
  0
INSERT
  5
1D8
330
125
100
AcDbEntity
  8
Ebene 1
100
AcDbBlockReference
  2
block 45
 10
0.0
 20
0.0
 30
0.0
  0
INSERT
  5
1E0
330
125
100
AcDbEntity
  8
Ebene 1
100
AcDbBlockReference
  2
block 46
 10
0.0
 20
0.0
 30
0.0
  0
INSERT
  5
1EB
330
125
100
AcDbEntity
  8
Ebene 1
100
AcDbBlockReference
  2
block 47
 10
0.0
 20
0.0
 30
0.0
  0
INSERT
  5
1F3
330
125
100
AcDbEntity
  8
Ebene 1
100
AcDbBlockReference
  2
block 48
 10
0.0
 20
0.0
 30
0.0
  0
INSERT
  5
1FB
330
125
100
AcDbEntity
  8
Ebene 1
100
AcDbBlockReference
  2
block 49
 10
0.0
 20
0.0
 30
0.0
  0
INSERT
  5
206
330
125
100
AcDbEntity
  8
Ebene 1
100
AcDbBlockReference
  2
block 50
 10
0.0
 20
0.0
 30
0.0
  0
INSERT
  5
211
330
125
100
AcDbEntity
  8
Ebene 1
100
AcDbBlockReference
  2
block 51
 10
0.0
 20
0.0
 30
0.0
  0
INSERT
  5
21C
330
125
100
AcDbEntity
  8
Ebene 1
100
AcDbBlockReference
  2
block 52
 10
0.0
 20
0.0
 30
0.0
  0
INSERT
  5
224
330
125
100
AcDbEntity
  8
Ebene 1
100
AcDbBlockReference
  2
block 53
 10
0.0
 20
0.0
 30
0.0
  0
INSERT
  5
229
330
125
100
AcDbEntity
  8
Ebene 1
100
AcDbBlockReference
  2
block 54
 10
0.0
 20
0.0
 30
0.0
  0
ENDBLK
  5
128
330
125
100
AcDbEntity
  8
0
100
AcDbBlockEnd
  0
BLOCK
  5
12B
330
129
100
AcDbEntity
  8
0
100
AcDbBlockBegin
  2
block 28
 70
     0
 10
0.0
 20
0.0
 30
0.0
  3
block 28
  1

  0
POLYLINE
  5
12D
330
129
100
AcDbEntity
  8
Ebene 1
 62
     7
420
 16777215
370
    25
100
AcDb2dPolyline
 66
     1
 10
0.0
 20
0.0
 30
0.0
  0
VERTEX
  5
12E
330
12D
100
AcDbEntity
  8
Ebene 1
 62
     7
420
 16777215
370
    25
100
AcDbVertex
100
AcDb2dVertex
 10
273.9444443872525
 20
-253.0388888424106
 30
0.0
  0
VERTEX
  5
12F
330
12D
100
AcDbEntity
  8
Ebene 1
 62
     7
420
 16777215
370
    25
100
AcDbVertex
100
AcDb2dVertex
 10
293.9444443872532
 20
-193.0388888424104
 30
0.0
  0
VERTEX
  5
130
330
12D
100
AcDbEntity
  8
Ebene 1
 62
     7
420
 16777215
370
    25
100
AcDbVertex
100
AcDb2dVertex
 10
314.9444443872533
 20
-193.0388888424104
 30
0.0
  0
VERTEX
  5
131
330
12D
100
AcDbEntity
  8
Ebene 1
 62
     7
420
 16777215
370
    25
100
AcDbVertex
100
AcDb2dVertex
 10
314.9444443872533
 20
-196.0388888424105
 30
0.0
  0
VERTEX
  5
132
330
12D
100
AcDbEntity
  8
Ebene 1
 62
     7
420
 16777215
370
    25
100
AcDbVertex
100
AcDb2dVertex
 10
333.9444443872534
 20
-196.0388888424105
 30
0.0
  0
VERTEX
  5
133
330
12D
100
AcDbEntity
  8
Ebene 1
 62
     7
420
 16777215
370
    25
100
AcDbVertex
100
AcDb2dVertex
 10
333.9444443872534
 20
-193.0388888424104
 30
0.0
  0
VERTEX
  5
134
330
12D
100
AcDbEntity
  8
Ebene 1
 62
     7
420
 16777215
370
    25
100
AcDbVertex
100
AcDb2dVertex
 10
353.9444443872528
 20
-193.0388888424104
 30
0.0
  0
VERTEX
  5
135
330
12D
100
AcDbEntity
  8
Ebene 1
 62
     7
420
 16777215
370
    25
100
AcDbVertex
100
AcDb2dVertex
 10
353.9444443872528
 20
-196.0388888424105
 30
0.0
  0
VERTEX
  5
136
330
12D
100
AcDbEntity
  8
Ebene 1
 62
     7
420
 16777215
370
    25
100
AcDbVertex
100
AcDb2dVertex
 10
373.9444443872529
 20
-196.0388888424105
 30
0.0
  0
VERTEX
  5
137
330
12D
100
AcDbEntity
  8
Ebene 1
 62
     7
420
 16777215
370
    25
100
AcDbVertex
100
AcDb2dVertex
 10
373.9444443872529
 20
-193.0388888424104
 30
0.0
  0
VERTEX
  5
138
330
12D
100
AcDbEntity
  8
Ebene 1
 62
     7
420
 16777215
370
    25
100
AcDbVertex
100
AcDb2dVertex
 10
393.9444443872529
 20
-193.0388888424104
 30
0.0
  0
VERTEX
  5
139
330
12D
100
AcDbEntity
  8
Ebene 1
 62
     7
420
 16777215
370
    25
100
AcDbVertex
100
AcDb2dVertex
 10
393.9444443872529
 20
-196.0388888424105
 30
0.0
  0
VERTEX
  5
13A
330
12D
100
AcDbEntity
  8
Ebene 1
 62
     7
420
 16777215
370
    25
100
AcDbVertex
100
AcDb2dVertex
 10
413.9444443872524
 20
-196.0388888424105
 30
0.0
  0
VERTEX
  5
13B
330
12D
100
AcDbEntity
  8
Ebene 1
 62
     7
420
 16777215
370
    25
100
AcDbVertex
100
AcDb2dVertex
 10
413.9444443872524
 20
-193.0388888424104
 30
0.0
  0
VERTEX
  5
13C
330
12D
100
AcDbEntity
  8
Ebene 1
 62
     7
420
 16777215
370
    25
100
AcDbVertex
100
AcDb2dVertex
 10
433.944444387253
 20
-193.0388888424104
 30
0.0
  0
VERTEX
  5
13D
330
12D
100
AcDbEntity
  8
Ebene 1
 62
     7
420
 16777215
370
    25
100
AcDbVertex
100
AcDb2dVertex
 10
433.944444387253
 20
-196.0388888424105
 30
0.0
  0
VERTEX
  5
13E
330
12D
100
AcDbEntity
  8
Ebene 1
 62
     7
420
 16777215
370
    25
100
AcDbVertex
100
AcDb2dVertex
 10
454.9444443872532
 20
-196.0388888424105
 30
0.0
  0
VERTEX
  5
13F
330
12D
100
AcDbEntity
  8
Ebene 1
 62
     7
420
 16777215
370
    25
100
AcDbVertex
100
AcDb2dVertex
 10
454.9444443872532
 20
-193.0388888424104
 30
0.0
  0
VERTEX
  5
140
330
12D
100
AcDbEntity
  8
Ebene 1
 62
     7
420
 16777215
370
    25
100
AcDbVertex
100
AcDb2dVertex
 10
473.9444443872532
 20
-193.0388888424104
 30
0.0
  0
VERTEX
  5
141
330
12D
100
AcDbEntity
  8
Ebene 1
 62
     7
420
 16777215
370
    25
100
AcDbVertex
100
AcDb2dVertex
 10
493.9444443872526
 20
-253.0388888424106
 30
0.0
  0
VERTEX
  5
142
330
12D
100
AcDbEntity
  8
Ebene 1
 62
     7
420
 16777215
370
    25
100
AcDbVertex
100
AcDb2dVertex
 10
468.9444443872524
 20
-293.0388888424108
 30
0.0
  0
VERTEX
  5
143
330
12D
100
AcDbEntity
  8
Ebene 1
 62
     7
420
 16777215
370
    25
100
AcDbVertex
100
AcDb2dVertex
 10
468.9444443872524
 20
-296.0388888424109
 30
0.0
  0
VERTEX
  5
144
330
12D
100
AcDbEntity
  8
Ebene 1
 62
     7
420
 16777215
370
    25
100
AcDbVertex
100
AcDb2dVertex
 10
458.9444443872533
 20
-296.0388888424109
 30
0.0
  0
VERTEX
  5
145
330
12D
100
AcDbEntity
  8
Ebene 1
 62
     7
420
 16777215
370
    25
100
AcDbVertex
100
AcDb2dVertex
 10
458.9444443872533
 20
-293.0388888424108
 30
0.0
  0
VERTEX
  5
146
330
12D
100
AcDbEntity
  8
Ebene 1
 62
     7
420
 16777215
370
    25
100
AcDbVertex
100
AcDb2dVertex
 10
448.9444443872529
 20
-293.0388888424108
 30
0.0
  0
VERTEX
  5
147
330
12D
100
AcDbEntity
  8
Ebene 1
 62
     7
420
 16777215
370
    25
100
AcDbVertex
100
AcDb2dVertex
 10
448.9444443872529
 20
-296.0388888424109
 30
0.0
  0
VERTEX
  5
148
330
12D
100
AcDbEntity
  8
Ebene 1
 62
     7
420
 16777215
370
    25
100
AcDbVertex
100
AcDb2dVertex
 10
438.9444443872526
 20
-296.0388888424109
 30
0.0
  0
VERTEX
  5
149
330
12D
100
AcDbEntity
  8
Ebene 1
 62
     7
420
 16777215
370
    25
100
AcDbVertex
100
AcDb2dVertex
 10
438.9444443872526
 20
-293.0388888424108
 30
0.0
  0
VERTEX
  5
14A
330
12D
100
AcDbEntity
  8
Ebene 1
 62
     7
420
 16777215
370
    25
100
AcDbVertex
100
AcDb2dVertex
 10
428.9444443872535
 20
-293.0388888424108
 30
0.0
  0
VERTEX
  5
14B
330
12D
100
AcDbEntity
  8
Ebene 1
 62
     7
420
 16777215
370
    25
100
AcDbVertex
100
AcDb2dVertex
 10
408.9444443872528
 20
-278.0388888424109
 30
0.0
  0
VERTEX
  5
14C
330
12D
100
AcDbEntity
  8
Ebene 1
 62
     7
420
 16777215
370
    25
100
AcDbVertex
100
AcDb2dVertex
 10
358.944444387253
 20
-278.0388888424109
 30
0.0
  0
VERTEX
  5
14D
330
12D
100
AcDbEntity
  8
Ebene 1
 62
     7
420
 16777215
370
    25
100
AcDbVertex
100
AcDb2dVertex
 10
338.9444443872529
 20
-293.0388888424108
 30
0.0
  0
VERTEX
  5
14E
330
12D
100
AcDbEntity
  8
Ebene 1
 62
     7
420
 16777215
370
    25
100
AcDbVertex
100
AcDb2dVertex
 10
328.9444443872525
 20
-293.0388888424108
 30
0.0
  0
VERTEX
  5
14F
330
12D
100
AcDbEntity
  8
Ebene 1
 62
     7
420
 16777215
370
    25
100
AcDbVertex
100
AcDb2dVertex
 10
328.9444443872525
 20
-296.0388888424109
 30
0.0
  0
VERTEX
  5
150
330
12D
100
AcDbEntity
  8
Ebene 1
 62
     7
420
 16777215
370
    25
100
AcDbVertex
100
AcDb2dVertex
 10
318.9444443872528
 20
-296.0388888424109
 30
0.0
  0
VERTEX
  5
151
330
12D
100
AcDbEntity
  8
Ebene 1
 62
     7
420
 16777215
370
    25
100
AcDbVertex
100
AcDb2dVertex
 10
318.9444443872528
 20
-293.0388888424108
 30
0.0
  0
VERTEX
  5
152
330
12D
100
AcDbEntity
  8
Ebene 1
 62
     7
420
 16777215
370
    25
100
AcDbVertex
100
AcDb2dVertex
 10
308.9444443872531
 20
-293.0388888424108
 30
0.0
  0
VERTEX
  5
153
330
12D
100
AcDbEntity
  8
Ebene 1
 62
     7
420
 16777215
370
    25
100
AcDbVertex
100
AcDb2dVertex
 10
308.9444443872531
 20
-296.0388888424109
 30
0.0
  0
VERTEX
  5
154
330
12D
100
AcDbEntity
  8
Ebene 1
 62
     7
420
 16777215
370
    25
100
AcDbVertex
100
AcDb2dVertex
 10
298.9444443872528
 20
-296.0388888424109
 30
0.0
  0
VERTEX
  5
155
330
12D
100
AcDbEntity
  8
Ebene 1
 62
     7
420
 16777215
370
    25
100
AcDbVertex
100
AcDb2dVertex
 10
298.9444443872528
 20
-293.0388888424108
 30
0.0
  0
VERTEX
  5
156
330
12D
100
AcDbEntity
  8
Ebene 1
 62
     7
420
 16777215
370
    25
100
AcDbVertex
100
AcDb2dVertex
 10
273.9444443872525
 20
-253.0388888424106
 30
0.0
  0
SEQEND
  5
157
330
12D
100
AcDbEntity
  8
Ebene 1
 62
     7
420
 16777215
370
    25
  0
ENDBLK
  5
12C
330
129
100
AcDbEntity
  8
0
100
AcDbBlockEnd
  0
BLOCK
  5
15A
330
158
100
AcDbEntity
  8
0
100
AcDbBlockBegin
  2
block 29
 70
     0
 10
0.0
 20
0.0
 30
0.0
  3
block 29
  1

  0
POLYLINE
  5
15C
330
158
100
AcDbEntity
  8
Ebene 1
 62
     7
420
 16777215
370
    25
100
AcDb2dPolyline
 66
     1
 10
0.0
 20
0.0
 30
0.0
  0
VERTEX
  5
15D
330
15C
100
AcDbEntity
  8
Ebene 1
 62
     7
420
 16777215
370
    25
100
AcDbVertex
100
AcDb2dVertex
 10
314.9444443872533
 20
-193.0388888424104
 30
0.0
  0
VERTEX
  5
15E
330
15C
100
AcDbEntity
  8
Ebene 1
 62
     7
420
 16777215
370
    25
100
AcDbVertex
100
AcDb2dVertex
 10
314.9444443872533
 20
-196.0388888424105
 30
0.0
  0
SEQEND
  5
15F
330
15C
100
AcDbEntity
  8
Ebene 1
 62
     7
420
 16777215
370
    25
  0
ENDBLK
  5
15B
330
158
100
AcDbEntity
  8
0
100
AcDbBlockEnd
  0
BLOCK
  5
162
330
160
100
AcDbEntity
  8
0
100
AcDbBlockBegin
  2
block 30
 70
     0
 10
0.0
 20
0.0
 30
0.0
  3
block 30
  1

  0
POLYLINE
  5
164
330
160
100
AcDbEntity
  8
Ebene 1
 62
     7
420
 16777215
370
    25
100
AcDb2dPolyline
 66
     1
 10
0.0
 20
0.0
 30
0.0
  0
VERTEX
  5
165
330
164
100
AcDbEntity
  8
Ebene 1
 62
     7
420
 16777215
370
    25
100
AcDbVertex
100
AcDb2dVertex
 10
333.9444443872534
 20
-196.0388888424105
 30
0.0
  0
VERTEX
  5
166
330
164
100
AcDbEntity
  8
Ebene 1
 62
     7
420
 16777215
370
    25
100
AcDbVertex
100
AcDb2dVertex
 10
333.9444443872534
 20
-193.0388888424104
 30
0.0
  0
SEQEND
  5
167
330
164
100
AcDbEntity
  8
Ebene 1
 62
     7
420
 16777215
370
    25
  0
ENDBLK
  5
163
330
160
100
AcDbEntity
  8
0
100
AcDbBlockEnd
  0
BLOCK
  5
16A
330
168
100
AcDbEntity
  8
0
100
AcDbBlockBegin
  2
block 31
 70
     0
 10
0.0
 20
0.0
 30
0.0
  3
block 31
  1

  0
POLYLINE
  5
16C
330
168
100
AcDbEntity
  8
Ebene 1
 62
     7
420
 16777215
370
    25
100
AcDb2dPolyline
 66
     1
 10
0.0
 20
0.0
 30
0.0
  0
VERTEX
  5
16D
330
16C
100
AcDbEntity
  8
Ebene 1
 62
     7
420
 16777215
370
    25
100
AcDbVertex
100
AcDb2dVertex
 10
454.9444443872532
 20
-196.0388888424105
 30
0.0
  0
VERTEX
  5
418
330
16C
100
AcDbEntity
  8
0
100
AcDbVertex
100
AcDb2dVertex
 10
454.9444443872532
 20
-196.0388888424105
 30
0.0
  0
SEQEND
  5
16E
330
16C
100
AcDbEntity
  8
Ebene 1
 62
     7
420
 16777215
370
    25
  0
ENDBLK
  5
16B
330
168
100
AcDbEntity
  8
0
100
AcDbBlockEnd
  0
BLOCK
  5
171
330
16F
100
AcDbEntity
  8
0
100
AcDbBlockBegin
  2
block 32
 70
     0
 10
0.0
 20
0.0
 30
0.0
  3
block 32
  1

  0
POLYLINE
  5
173
330
16F
100
AcDbEntity
  8
Ebene 1
 62
     7
420
 16777215
370
    25
100
AcDb2dPolyline
 66
     1
 10
0.0
 20
0.0
 30
0.0
  0
VERTEX
  5
174
330
173
100
AcDbEntity
  8
Ebene 1
 62
     7
420
 16777215
370
    25
100
AcDbVertex
100
AcDb2dVertex
 10
433.944444387253
 20
-196.0388888424105
 30
0.0
  0
VERTEX
  5
175
330
173
100
AcDbEntity
  8
Ebene 1
 62
     7
420
 16777215
370
    25
100
AcDbVertex
100
AcDb2dVertex
 10
433.944444387253
 20
-193.0388888424104
 30
0.0
  0
SEQEND
  5
176
330
173
100
AcDbEntity
  8
Ebene 1
 62
     7
420
 16777215
370
    25
  0
ENDBLK
  5
172
330
16F
100
AcDbEntity
  8
0
100
AcDbBlockEnd
  0
BLOCK
  5
179
330
177
100
AcDbEntity
  8
0
100
AcDbBlockBegin
  2
block 33
 70
     0
 10
0.0
 20
0.0
 30
0.0
  3
block 33
  1

  0
POLYLINE
  5
17B
330
177
100
AcDbEntity
  8
Ebene 1
 62
     7
420
 16777215
370
    25
100
AcDb2dPolyline
 66
     1
 10
0.0
 20
0.0
 30
0.0
  0
VERTEX
  5
17C
330
17B
100
AcDbEntity
  8
Ebene 1
 62
     7
420
 16777215
370
    25
100
AcDbVertex
100
AcDb2dVertex
 10
353.9444443872528
 20
-196.0388888424105
 30
0.0
  0
VERTEX
  5
17D
330
17B
100
AcDbEntity
  8
Ebene 1
 62
     7
420
 16777215
370
    25
100
AcDbVertex
100
AcDb2dVertex
 10
353.9444443872528
 20
-193.0388888424104
 30
0.0
  0
SEQEND
  5
17E
330
17B
100
AcDbEntity
  8
Ebene 1
 62
     7
420
 16777215
370
    25
  0
ENDBLK
  5
17A
330
177
100
AcDbEntity
  8
0
100
AcDbBlockEnd
  0
BLOCK
  5
181
330
17F
100
AcDbEntity
  8
0
100
AcDbBlockBegin
  2
block 34
 70
     0
 10
0.0
 20
0.0
 30
0.0
  3
block 34
  1

  0
POLYLINE
  5
183
330
17F
100
AcDbEntity
  8
Ebene 1
 62
     7
420
 16777215
370
    25
100
AcDb2dPolyline
 66
     1
 10
0.0
 20
0.0
 30
0.0
  0
VERTEX
  5
184
330
183
100
AcDbEntity
  8
Ebene 1
 62
     7
420
 16777215
370
    25
100
AcDbVertex
100
AcDb2dVertex
 10
413.9444443872524
 20
-193.0388888424104
 30
0.0
  0
VERTEX
  5
185
330
183
100
AcDbEntity
  8
Ebene 1
 62
     7
420
 16777215
370
    25
100
AcDbVertex
100
AcDb2dVertex
 10
413.9444443872524
 20
-196.0388888424105
 30
0.0
  0
SEQEND
  5
186
330
183
100
AcDbEntity
  8
Ebene 1
 62
     7
420
 16777215
370
    25
  0
ENDBLK
  5
182
330
17F
100
AcDbEntity
  8
0
100
AcDbBlockEnd
  0
BLOCK
  5
189
330
187
100
AcDbEntity
  8
0
100
AcDbBlockBegin
  2
block 35
 70
     0
 10
0.0
 20
0.0
 30
0.0
  3
block 35
  1

  0
POLYLINE
  5
18B
330
187
100
AcDbEntity
  8
Ebene 1
 62
     7
420
 16777215
370
    25
100
AcDb2dPolyline
 66
     1
 10
0.0
 20
0.0
 30
0.0
  0
VERTEX
  5
18C
330
18B
100
AcDbEntity
  8
Ebene 1
 62
     7
420
 16777215
370
    25
100
AcDbVertex
100
AcDb2dVertex
 10
413.9444443872524
 20
-193.0388888424104
 30
0.0
  0
VERTEX
  5
18D
330
18B
100
AcDbEntity
  8
Ebene 1
 62
     7
420
 16777215
370
    25
100
AcDbVertex
100
AcDb2dVertex
 10
433.944444387253
 20
-193.0388888424104
 30
0.0
  0
SEQEND
  5
18E
330
18B
100
AcDbEntity
  8
Ebene 1
 62
     7
420
 16777215
370
    25
  0
ENDBLK
  5
18A
330
187
100
AcDbEntity
  8
0
100
AcDbBlockEnd
  0
BLOCK
  5
191
330
18F
100
AcDbEntity
  8
0
100
AcDbBlockBegin
  2
block 36
 70
     0
 10
0.0
 20
0.0
 30
0.0
  3
block 36
  1

  0
POLYLINE
  5
193
330
18F
100
AcDbEntity
  8
Ebene 1
 62
     7
420
 16777215
370
    25
100
AcDb2dPolyline
 66
     1
 10
0.0
 20
0.0
 30
0.0
  0
VERTEX
  5
194
330
193
100
AcDbEntity
  8
Ebene 1
 62
     7
420
 16777215
370
    25
100
AcDbVertex
100
AcDb2dVertex
 10
333.9444443872534
 20
-193.0388888424104
 30
0.0
  0
VERTEX
  5
195
330
193
100
AcDbEntity
  8
Ebene 1
 62
     7
420
 16777215
370
    25
100
AcDbVertex
100
AcDb2dVertex
 10
353.9444443872528
 20
-193.0388888424104
 30
0.0
  0
SEQEND
  5
196
330
193
100
AcDbEntity
  8
Ebene 1
 62
     7
420
 16777215
370
    25
  0
ENDBLK
  5
192
330
18F
100
AcDbEntity
  8
0
100
AcDbBlockEnd
  0
BLOCK
  5
199
330
197
100
AcDbEntity
  8
0
100
AcDbBlockBegin
  2
block 37
 70
     0
 10
0.0
 20
0.0
 30
0.0
  3
block 37
  1

  0
POLYLINE
  5
19B
330
197
100
AcDbEntity
  8
Ebene 1
 62
     7
420
 16777215
370
    25
100
AcDb2dPolyline
 66
     1
 10
0.0
 20
0.0
 30
0.0
  0
VERTEX
  5
19C
330
19B
100
AcDbEntity
  8
Ebene 1
 62
     7
420
 16777215
370
    25
100
AcDbVertex
100
AcDb2dVertex
 10
428.9444443872535
 20
-293.0388888424108
 30
0.0
  0
VERTEX
  5
19D
330
19B
100
AcDbEntity
  8
Ebene 1
 62
     7
420
 16777215
370
    25
100
AcDbVertex
100
AcDb2dVertex
 10
438.9444443872526
 20
-293.0388888424108
 30
0.0
  0
SEQEND
  5
19E
330
19B
100
AcDbEntity
  8
Ebene 1
 62
     7
420
 16777215
370
    25
  0
ENDBLK
  5
19A
330
197
100
AcDbEntity
  8
0
100
AcDbBlockEnd
  0
BLOCK
  5
1A1
330
19F
100
AcDbEntity
  8
0
100
AcDbBlockBegin
  2
block 38
 70
     0
 10
0.0
 20
0.0
 30
0.0
  3
block 38
  1

  0
POLYLINE
  5
1A3
330
19F
100
AcDbEntity
  8
Ebene 1
 62
     7
420
 16777215
370
    25
100
AcDb2dPolyline
 66
     1
 10
0.0
 20
0.0
 30
0.0
  0
VERTEX
  5
1A4
330
1A3
100
AcDbEntity
  8
Ebene 1
 62
     7
420
 16777215
370
    25
100
AcDbVertex
100
AcDb2dVertex
 10
458.9444443872533
 20
-293.0388888424108
 30
0.0
  0
VERTEX
  5
1A5
330
1A3
100
AcDbEntity
  8
Ebene 1
 62
     7
420
 16777215
370
    25
100
AcDbVertex
100
AcDb2dVertex
 10
448.9444443872529
 20
-293.0388888424108
 30
0.0
  0
SEQEND
  5
1A6
330
1A3
100
AcDbEntity
  8
Ebene 1
 62
     7
420
 16777215
370
    25
  0
ENDBLK
  5
1A2
330
19F
100
AcDbEntity
  8
0
100
AcDbBlockEnd
  0
BLOCK
  5
1A9
330
1A7
100
AcDbEntity
  8
0
100
AcDbBlockBegin
  2
block 39
 70
     0
 10
0.0
 20
0.0
 30
0.0
  3
block 39
  1

  0
POLYLINE
  5
1AB
330
1A7
100
AcDbEntity
  8
Ebene 1
 62
     7
420
 16777215
370
    25
100
AcDb2dPolyline
 66
     1
 10
0.0
 20
0.0
 30
0.0
  0
VERTEX
  5
1AC
330
1AB
100
AcDbEntity
  8
Ebene 1
 62
     7
420
 16777215
370
    25
100
AcDbVertex
100
AcDb2dVertex
 10
438.9444443872526
 20
-293.0388888424108
 30
0.0
  0
VERTEX
  5
1AD
330
1AB
100
AcDbEntity
  8
Ebene 1
 62
     7
420
 16777215
370
    25
100
AcDbVertex
100
AcDb2dVertex
 10
428.9444443872535
 20
-293.0388888424108
 30
0.0
  0
SEQEND
  5
1AE
330
1AB
100
AcDbEntity
  8
Ebene 1
 62
     7
420
 16777215
370
    25
  0
ENDBLK
  5
1AA
330
1A7
100
AcDbEntity
  8
0
100
AcDbBlockEnd
  0
BLOCK
  5
1B1
330
1AF
100
AcDbEntity
  8
0
100
AcDbBlockBegin
  2
block 40
 70
     0
 10
0.0
 20
0.0
 30
0.0
  3
block 40
  1

  0
POLYLINE
  5
1B3
330
1AF
100
AcDbEntity
  8
Ebene 1
 62
     7
420
 16777215
370
    25
100
AcDb2dPolyline
 66
     1
 10
0.0
 20
0.0
 30
0.0
  0
VERTEX
  5
1B4
330
1B3
100
AcDbEntity
  8
Ebene 1
 62
     7
420
 16777215
370
    25
100
AcDbVertex
100
AcDb2dVertex
 10
313.9444443872526
 20
-253.0388888424106
 30
0.0
  0
VERTEX
  5
1B5
330
1B3
100
AcDbEntity
  8
Ebene 1
 62
     7
420
 16777215
370
    25
100
AcDbVertex
100
AcDb2dVertex
 10
313.9444443872526
 20
-250.0388888424105
 30
0.0
  0
SEQEND
  5
1B6
330
1B3
100
AcDbEntity
  8
Ebene 1
 62
     7
420
 16777215
370
    25
  0
ENDBLK
  5
1B2
330
1AF
100
AcDbEntity
  8
0
100
AcDbBlockEnd
  0
BLOCK
  5
1B9
330
1B7
100
AcDbEntity
  8
0
100
AcDbBlockBegin
  2
block 41
 70
     0
 10
0.0
 20
0.0
 30
0.0
  3
block 41
  1

  0
POLYLINE
  5
1BB
330
1B7
100
AcDbEntity
  8
Ebene 1
 62
     7
420
 16777215
370
    25
100
AcDb2dPolyline
 66
     1
 10
0.0
 20
0.0
 30
0.0
  0
VERTEX
  5
1BC
330
1BB
100
AcDbEntity
  8
Ebene 1
 62
     7
420
 16777215
370
    25
100
AcDbVertex
100
AcDb2dVertex
 10
353.9444443872528
 20
-250.0388888424105
 30
0.0
  0
VERTEX
  5
1BD
330
1BB
100
AcDbEntity
  8
Ebene 1
 62
     7
420
 16777215
370
    25
100
AcDbVertex
100
AcDb2dVertex
 10
353.9444443872528
 20
-253.0388888424106
 30
0.0
  0
SEQEND
  5
1BE
330
1BB
100
AcDbEntity
  8
Ebene 1
 62
     7
420
 16777215
370
    25
  0
ENDBLK
  5
1BA
330
1B7
100
AcDbEntity
  8
0
100
AcDbBlockEnd
  0
BLOCK
  5
1C1
330
1BF
100
AcDbEntity
  8
0
100
AcDbBlockBegin
  2
block 42
 70
     0
 10
0.0
 20
0.0
 30
0.0
  3
block 42
  1

  0
POLYLINE
  5
1C3
330
1BF
100
AcDbEntity
  8
Ebene 1
 62
     7
420
 16777215
370
    25
100
AcDb2dPolyline
 66
     1
 10
0.0
 20
0.0
 30
0.0
  0
VERTEX
  5
1C4
330
1C3
100
AcDbEntity
  8
Ebene 1
 62
     7
420
 16777215
370
    25
100
AcDbVertex
100
AcDb2dVertex
 10
393.9444443872529
 20
-250.0388888424105
 30
0.0
  0
VERTEX
  5
1C5
330
1C3
100
AcDbEntity
  8
Ebene 1
 62
     7
420
 16777215
370
    25
100
AcDbVertex
100
AcDb2dVertex
 10
393.9444443872529
 20
-253.0388888424106
 30
0.0
  0
SEQEND
  5
1C6
330
1C3
100
AcDbEntity
  8
Ebene 1
 62
     7
420
 16777215
370
    25
  0
ENDBLK
  5
1C2
330
1BF
100
AcDbEntity
  8
0
100
AcDbBlockEnd
  0
BLOCK
  5
1C9
330
1C7
100
AcDbEntity
  8
0
100
AcDbBlockBegin
  2
block 43
 70
     0
 10
0.0
 20
0.0
 30
0.0
  3
block 43
  1

  0
POLYLINE
  5
1CB
330
1C7
100
AcDbEntity
  8
Ebene 1
 62
     7
420
 16777215
370
    25
100
AcDb2dPolyline
 66
     1
 10
0.0
 20
0.0
 30
0.0
  0
VERTEX
  5
1CC
330
1CB
100
AcDbEntity
  8
Ebene 1
 62
     7
420
 16777215
370
    25
100
AcDbVertex
100
AcDb2dVertex
 10
373.9444443872529
 20
-253.0388888424106
 30
0.0
  0
VERTEX
  5
1CD
330
1CB
100
AcDbEntity
  8
Ebene 1
 62
     7
420
 16777215
370
    25
100
AcDbVertex
100
AcDb2dVertex
 10
373.9444443872529
 20
-249.0388888424105
 30
0.0
  0
SEQEND
  5
1CE
330
1CB
100
AcDbEntity
  8
Ebene 1
 62
     7
420
 16777215
370
    25
  0
ENDBLK
  5
1CA
330
1C7
100
AcDbEntity
  8
0
100
AcDbBlockEnd
  0
BLOCK
  5
1D1
330
1CF
100
AcDbEntity
  8
0
100
AcDbBlockBegin
  2
block 44
 70
     0
 10
0.0
 20
0.0
 30
0.0
  3
block 44
  1

  0
POLYLINE
  5
1D3
330
1CF
100
AcDbEntity
  8
Ebene 1
 62
     7
420
 16777215
370
    25
100
AcDb2dPolyline
 66
     1
 10
0.0
 20
0.0
 30
0.0
  0
VERTEX
  5
1D4
330
1D3
100
AcDbEntity
  8
Ebene 1
 62
     7
420
 16777215
370
    25
100
AcDbVertex
100
AcDb2dVertex
 10
433.944444387253
 20
-250.0388888424105
 30
0.0
  0
VERTEX
  5
1D5
330
1D3
100
AcDbEntity
  8
Ebene 1
 62
     7
420
 16777215
370
    25
100
AcDbVertex
100
AcDb2dVertex
 10
433.944444387253
 20
-253.0388888424106
 30
0.0
  0
SEQEND
  5
1D6
330
1D3
100
AcDbEntity
  8
Ebene 1
 62
     7
420
 16777215
370
    25
  0
ENDBLK
  5
1D2
330
1CF
100
AcDbEntity
  8
0
100
AcDbBlockEnd
  0
BLOCK
  5
1D9
330
1D7
100
AcDbEntity
  8
0
100
AcDbBlockBegin
  2
block 45
 70
     0
 10
0.0
 20
0.0
 30
0.0
  3
block 45
  1

  0
POLYLINE
  5
1DB
330
1D7
100
AcDbEntity
  8
Ebene 1
 62
     7
420
 16777215
370
    25
100
AcDb2dPolyline
 66
     1
 10
0.0
 20
0.0
 30
0.0
  0
VERTEX
  5
1DC
330
1DB
100
AcDbEntity
  8
Ebene 1
 62
     7
420
 16777215
370
    25
100
AcDbVertex
100
AcDb2dVertex
 10
413.9444443872524
 20
-253.0388888424106
 30
0.0
  0
VERTEX
  5
1DD
330
1DB
100
AcDbEntity
  8
Ebene 1
 62
     7
420
 16777215
370
    25
100
AcDbVertex
100
AcDb2dVertex
 10
413.9444443872524
 20
-249.0388888424105
 30
0.0
  0
SEQEND
  5
1DE
330
1DB
100
AcDbEntity
  8
Ebene 1
 62
     7
420
 16777215
370
    25
  0
ENDBLK
  5
1DA
330
1D7
100
AcDbEntity
  8
0
100
AcDbBlockEnd
  0
BLOCK
  5
1E1
330
1DF
100
AcDbEntity
  8
0
100
AcDbBlockBegin
  2
block 46
 70
     0
 10
0.0
 20
0.0
 30
0.0
  3
block 46
  1

  0
POLYLINE
  5
1E3
330
1DF
100
AcDbEntity
  8
Ebene 1
 62
     7
420
 16777215
370
    25
100
AcDb2dPolyline
 66
     1
 10
0.0
 20
0.0
 30
0.0
  0
VERTEX
  5
1E4
330
1E3
100
AcDbEntity
  8
Ebene 1
 62
     7
420
 16777215
370
    25
100
AcDbVertex
100
AcDb2dVertex
 10
453.9444443872525
 20
-253.0388888424106
 30
0.0
  0
VERTEX
  5
1E5
330
1E3
100
AcDbEntity
  8
Ebene 1
 62
     7
420
 16777215
370
    25
100
AcDbVertex
100
AcDb2dVertex
 10
453.9444443872525
 20
-250.0388888424105
 30
0.0
  0
VERTEX
  5
1E6
330
1E3
100
AcDbEntity
  8
Ebene 1
 62
     7
420
 16777215
370
    25
100
AcDbVertex
100
AcDb2dVertex
 10
433.944444387253
 20
-250.0388888424105
 30
0.0
  0
VERTEX
  5
1E7
330
1E3
100
AcDbEntity
  8
Ebene 1
 62
     7
420
 16777215
370
    25
100
AcDbVertex
100
AcDb2dVertex
 10
433.944444387253
 20
-253.0388888424106
 30
0.0
  0
VERTEX
  5
1E8
330
1E3
100
AcDbEntity
  8
Ebene 1
 62
     7
420
 16777215
370
    25
100
AcDbVertex
100
AcDb2dVertex
 10
453.9444443872525
 20
-253.0388888424106
 30
0.0
  0
SEQEND
  5
1E9
330
1E3
100
AcDbEntity
  8
Ebene 1
 62
     7
420
 16777215
370
    25
  0
ENDBLK
  5
1E2
330
1DF
100
AcDbEntity
  8
0
100
AcDbBlockEnd
  0
BLOCK
  5
1EC
330
1EA
100
AcDbEntity
  8
0
100
AcDbBlockBegin
  2
block 47
 70
     0
 10
0.0
 20
0.0
 30
0.0
  3
block 47
  1

  0
POLYLINE
  5
1EE
330
1EA
100
AcDbEntity
  8
Ebene 1
 62
     7
420
 16777215
370
    25
100
AcDb2dPolyline
 66
     1
 10
0.0
 20
0.0
 30
0.0
  0
VERTEX
  5
1EF
330
1EE
100
AcDbEntity
  8
Ebene 1
 62
     7
420
 16777215
370
    25
100
AcDbVertex
100
AcDb2dVertex
 10
308.9444443872531
 20
-293.0388888424108
 30
0.0
  0
VERTEX
  5
1F0
330
1EE
100
AcDbEntity
  8
Ebene 1
 62
     7
420
 16777215
370
    25
100
AcDbVertex
100
AcDb2dVertex
 10
318.9444443872528
 20
-293.0388888424108
 30
0.0
  0
SEQEND
  5
1F1
330
1EE
100
AcDbEntity
  8
Ebene 1
 62
     7
420
 16777215
370
    25
  0
ENDBLK
  5
1ED
330
1EA
100
AcDbEntity
  8
0
100
AcDbBlockEnd
  0
BLOCK
  5
1F4
330
1F2
100
AcDbEntity
  8
0
100
AcDbBlockBegin
  2
block 48
 70
     0
 10
0.0
 20
0.0
 30
0.0
  3
block 48
  1

  0
POLYLINE
  5
1F6
330
1F2
100
AcDbEntity
  8
Ebene 1
 62
     7
420
 16777215
370
    25
100
AcDb2dPolyline
 66
     1
 10
0.0
 20
0.0
 30
0.0
  0
VERTEX
  5
1F7
330
1F6
100
AcDbEntity
  8
Ebene 1
 62
     7
420
 16777215
370
    25
100
AcDbVertex
100
AcDb2dVertex
 10
328.9444443872525
 20
-293.0388888424108
 30
0.0
  0
VERTEX
  5
1F8
330
1F6
100
AcDbEntity
  8
Ebene 1
 62
     7
420
 16777215
370
    25
100
AcDbVertex
100
AcDb2dVertex
 10
338.9444443872529
 20
-293.0388888424108
 30
0.0
  0
SEQEND
  5
1F9
330
1F6
100
AcDbEntity
  8
Ebene 1
 62
     7
420
 16777215
370
    25
  0
ENDBLK
  5
1F5
330
1F2
100
AcDbEntity
  8
0
100
AcDbBlockEnd
  0
BLOCK
  5
1FC
330
1FA
100
AcDbEntity
  8
0
100
AcDbBlockBegin
  2
block 49
 70
     0
 10
0.0
 20
0.0
 30
0.0
  3
block 49
  1

  0
POLYLINE
  5
1FE
330
1FA
100
AcDbEntity
  8
Ebene 1
 62
     7
420
 16777215
370
    25
100
AcDb2dPolyline
 66
     1
 10
0.0
 20
0.0
 30
0.0
  0
VERTEX
  5
1FF
330
1FE
100
AcDbEntity
  8
Ebene 1
 62
     7
420
 16777215
370
    25
100
AcDbVertex
100
AcDb2dVertex
 10
333.9444443872534
 20
-250.0388888424105
 30
0.0
  0
VERTEX
  5
200
330
1FE
100
AcDbEntity
  8
Ebene 1
 62
     7
420
 16777215
370
    25
100
AcDbVertex
100
AcDb2dVertex
 10
313.9444443872526
 20
-250.0388888424105
 30
0.0
  0
VERTEX
  5
201
330
1FE
100
AcDbEntity
  8
Ebene 1
 62
     7
420
 16777215
370
    25
100
AcDbVertex
100
AcDb2dVertex
 10
313.9444443872526
 20
-253.0388888424106
 30
0.0
  0
VERTEX
  5
202
330
1FE
100
AcDbEntity
  8
Ebene 1
 62
     7
420
 16777215
370
    25
100
AcDbVertex
100
AcDb2dVertex
 10
333.9444443872534
 20
-253.0388888424106
 30
0.0
  0
VERTEX
  5
203
330
1FE
100
AcDbEntity
  8
Ebene 1
 62
     7
420
 16777215
370
    25
100
AcDbVertex
100
AcDb2dVertex
 10
333.9444443872534
 20
-250.0388888424105
 30
0.0
  0
SEQEND
  5
204
330
1FE
100
AcDbEntity
  8
Ebene 1
 62
     7
420
 16777215
370
    25
  0
ENDBLK
  5
1FD
330
1FA
100
AcDbEntity
  8
0
100
AcDbBlockEnd
  0
BLOCK
  5
207
330
205
100
AcDbEntity
  8
0
100
AcDbBlockBegin
  2
block 50
 70
     0
 10
0.0
 20
0.0
 30
0.0
  3
block 50
  1

  0
POLYLINE
  5
209
330
205
100
AcDbEntity
  8
Ebene 1
 62
     7
420
 16777215
370
    25
100
AcDb2dPolyline
 66
     1
 10
0.0
 20
0.0
 30
0.0
  0
VERTEX
  5
20A
330
209
100
AcDbEntity
  8
Ebene 1
 62
     7
420
 16777215
370
    25
100
AcDbVertex
100
AcDb2dVertex
 10
373.9444443872529
 20
-250.0388888424105
 30
0.0
  0
VERTEX
  5
20B
330
209
100
AcDbEntity
  8
Ebene 1
 62
     7
420
 16777215
370
    25
100
AcDbVertex
100
AcDb2dVertex
 10
353.9444443872528
 20
-250.0388888424105
 30
0.0
  0
VERTEX
  5
20C
330
209
100
AcDbEntity
  8
Ebene 1
 62
     7
420
 16777215
370
    25
100
AcDbVertex
100
AcDb2dVertex
 10
353.9444443872528
 20
-253.0388888424106
 30
0.0
  0
VERTEX
  5
20D
330
209
100
AcDbEntity
  8
Ebene 1
 62
     7
420
 16777215
370
    25
100
AcDbVertex
100
AcDb2dVertex
 10
373.9444443872529
 20
-253.0388888424106
 30
0.0
  0
VERTEX
  5
20E
330
209
100
AcDbEntity
  8
Ebene 1
 62
     7
420
 16777215
370
    25
100
AcDbVertex
100
AcDb2dVertex
 10
373.9444443872529
 20
-250.0388888424105
 30
0.0
  0
SEQEND
  5
20F
330
209
100
AcDbEntity
  8
Ebene 1
 62
     7
420
 16777215
370
    25
  0
ENDBLK
  5
208
330
205
100
AcDbEntity
  8
0
100
AcDbBlockEnd
  0
BLOCK
  5
212
330
210
100
AcDbEntity
  8
0
100
AcDbBlockBegin
  2
block 51
 70
     0
 10
0.0
 20
0.0
 30
0.0
  3
block 51
  1

  0
POLYLINE
  5
214
330
210
100
AcDbEntity
  8
Ebene 1
 62
     7
420
 16777215
370
    25
100
AcDb2dPolyline
 66
     1
 10
0.0
 20
0.0
 30
0.0
  0
VERTEX
  5
215
330
214
100
AcDbEntity
  8
Ebene 1
 62
     7
420
 16777215
370
    25
100
AcDbVertex
100
AcDb2dVertex
 10
413.9444443872524
 20
-250.0388888424105
 30
0.0
  0
VERTEX
  5
216
330
214
100
AcDbEntity
  8
Ebene 1
 62
     7
420
 16777215
370
    25
100
AcDbVertex
100
AcDb2dVertex
 10
393.9444443872529
 20
-250.0388888424105
 30
0.0
  0
VERTEX
  5
217
330
214
100
AcDbEntity
  8
Ebene 1
 62
     7
420
 16777215
370
    25
100
AcDbVertex
100
AcDb2dVertex
 10
393.9444443872529
 20
-253.0388888424106
 30
0.0
  0
VERTEX
  5
218
330
214
100
AcDbEntity
  8
Ebene 1
 62
     7
420
 16777215
370
    25
100
AcDbVertex
100
AcDb2dVertex
 10
413.9444443872524
 20
-253.0388888424106
 30
0.0
  0
VERTEX
  5
219
330
214
100
AcDbEntity
  8
Ebene 1
 62
     7
420
 16777215
370
    25
100
AcDbVertex
100
AcDb2dVertex
 10
413.9444443872524
 20
-250.0388888424105
 30
0.0
  0
SEQEND
  5
21A
330
214
100
AcDbEntity
  8
Ebene 1
 62
     7
420
 16777215
370
    25
  0
ENDBLK
  5
213
330
210
100
AcDbEntity
  8
0
100
AcDbBlockEnd
  0
BLOCK
  5
21D
330
21B
100
AcDbEntity
  8
0
100
AcDbBlockBegin
  2
block 52
 70
     0
 10
0.0
 20
0.0
 30
0.0
  3
block 52
  1

  0
POLYLINE
  5
21F
330
21B
100
AcDbEntity
  8
Ebene 1
 62
     7
420
 16777215
370
    25
100
AcDb2dPolyline
 66
     1
 10
0.0
 20
0.0
 30
0.0
  0
VERTEX
  5
220
330
21F
100
AcDbEntity
  8
Ebene 1
 62
     7
420
 16777215
370
    25
100
AcDbVertex
100
AcDb2dVertex
 10
453.9444443872525
 20
-250.0388888424105
 30
0.0
  0
VERTEX
  5
221
330
21F
100
AcDbEntity
  8
Ebene 1
 62
     7
420
 16777215
370
    25
100
AcDbVertex
100
AcDb2dVertex
 10
453.9444443872525
 20
-253.0388888424106
 30
0.0
  0
SEQEND
  5
222
330
21F
100
AcDbEntity
  8
Ebene 1
 62
     7
420
 16777215
370
    25
  0
ENDBLK
  5
21E
330
21B
100
AcDbEntity
  8
0
100
AcDbBlockEnd
  0
BLOCK
  5
225
330
223
100
AcDbEntity
  8
0
100
AcDbBlockBegin
  2
block 53
 70
     0
 10
0.0
 20
0.0
 30
0.0
  3
block 53
  1

  0
SPLINE
  5
227
330
223
100
AcDbEntity
  8
Ebene 1
 62
     7
420
 16777215
370
    25
100
AcDbSpline
210
0.0
220
0.0
230
1.0
 70
    11
 71
     3
 72
    20
 73
    16
 74
     0
 42
0.0000000001
 43
0.0000000001
 12
1.0
 22
0.0
 32
0.0
 13
1.0
 23
0.0
 33
0.0
 40
0.0
 40
0.0
 40
0.0
 40
0.0
 40
1.0
 40
1.0
 40
1.0
 40
2.0
 40
2.0
 40
2.0
 40
3.0
 40
3.0
 40
3.0
 40
4.0
 40
4.0
 40
4.0
 40
5.0
 40
5.0
 40
5.0
 40
5.0
 10
314.9444443872533
 20
-281.038888842411
 30
0.0
 10
314.9444443872533
 20
-278.8297498430871
 30
0.0
 10
316.7353053879297
 20
-277.0388888424108
 30
0.0
 10
318.9444443872528
 20
-277.0388888424108
 30
0.0
 10
321.153583386576
 20
-277.0388888424108
 30
0.0
 10
322.944444387253
 20
-278.8297498430871
 30
0.0
 10
322.944444387253
 20
-281.038888842411
 30
0.0
 10
322.944444387253
 20
-283.2480278417335
 30
0.0
 10
321.153583386576
 20
-285.0388888424105
 30
0.0
 10
318.9444443872528
 20
-285.0388888424105
 30
0.0
 10
316.7353053879297
 20
-285.0388888424105
 30
0.0
 10
314.9444443872533
 20
-283.2480278417335
 30
0.0
 10
314.9444443872533
 20
-281.038888842411
 30
0.0
 10
314.9444443872533
 20
-281.038888842411
 30
0.0
 10
314.9444443872533
 20
-281.038888842411
 30
0.0
 10
314.9444443872533
 20
-281.038888842411
 30
0.0
  0
ENDBLK
  5
226
330
223
100
AcDbEntity
  8
0
100
AcDbBlockEnd
  0
BLOCK
  5
22A
330
228
100
AcDbEntity
  8
0
100
AcDbBlockBegin
  2
block 54
 70
     0
 10
0.0
 20
0.0
 30
0.0
  3
block 54
  1

  0
SPLINE
  5
22C
330
228
100
AcDbEntity
  8
Ebene 1
 62
     7
420
 16777215
370
    25
100
AcDbSpline
210
0.0
220
0.0
230
1.0
 70
    11
 71
     3
 72
    20
 73
    16
 74
     0
 42
0.0000000001
 43
0.0000000001
 12
1.0
 22
0.0
 32
0.0
 13
1.0
 23
0.0
 33
0.0
 40
0.0
 40
0.0
 40
0.0
 40
0.0
 40
1.0
 40
1.0
 40
1.0
 40
2.0
 40
2.0
 40
2.0
 40
3.0
 40
3.0
 40
3.0
 40
4.0
 40
4.0
 40
4.0
 40
5.0
 40
5.0
 40
5.0
 40
5.0
 10
444.9444443872528
 20
-281.038888842411
 30
0.0
 10
444.9444443872528
 20
-278.8297498430871
 30
0.0
 10
446.7353053879291
 20
-277.0388888424108
 30
0.0
 10
448.9444443872529
 20
-277.0388888424108
 30
0.0
 10
451.1535833865755
 20
-277.0388888424108
 30
0.0
 10
452.944444387253
 20
-278.8297498430871
 30
0.0
 10
452.944444387253
 20
-281.038888842411
 30
0.0
 10
452.944444387253
 20
-283.2480278417335
 30
0.0
 10
451.1535833865755
 20
-285.0388888424105
 30
0.0
 10
448.9444443872529
 20
-285.0388888424105
 30
0.0
 10
446.7353053879291
 20
-285.0388888424105
 30
0.0
 10
444.9444443872528
 20
-283.2480278417335
 30
0.0
 10
444.9444443872528
 20
-281.038888842411
 30
0.0
 10
444.9444443872528
 20
-281.038888842411
 30
0.0
 10
444.9444443872528
 20
-281.038888842411
 30
0.0
 10
444.9444443872528
 20
-281.038888842411
 30
0.0
  0
ENDBLK
  5
22B
330
228
100
AcDbEntity
  8
0
100
AcDbBlockEnd
  0
BLOCK
  5
22F
330
22D
100
AcDbEntity
  8
0
100
AcDbBlockBegin
  2
block 55
 70
     0
 10
0.0
 20
0.0
 30
0.0
  3
block 55
  1

  0
INSERT
  5
232
330
22D
100
AcDbEntity
  8
Ebene 1
100
AcDbBlockReference
  2
block 56
 10
0.0
 20
0.0
 30
0.0
  0
INSERT
  5
25E
330
22D
100
AcDbEntity
  8
Ebene 1
100
AcDbBlockReference
  2
block 57
 10
0.0
 20
0.0
 30
0.0
  0
INSERT
  5
266
330
22D
100
AcDbEntity
  8
Ebene 1
100
AcDbBlockReference
  2
block 58
 10
0.0
 20
0.0
 30
0.0
  0
ENDBLK
  5
230
330
22D
100
AcDbEntity
  8
0
100
AcDbBlockEnd
  0
BLOCK
  5
233
330
231
100
AcDbEntity
  8
0
100
AcDbBlockBegin
  2
block 56
 70
     0
 10
0.0
 20
0.0
 30
0.0
  3
block 56
  1

  0
POLYLINE
  5
235
330
231
100
AcDbEntity
  8
Ebene 1
 62
     7
420
 16777215
370
    25
100
AcDb2dPolyline
 66
     1
 10
0.0
 20
0.0
 30
0.0
  0
VERTEX
  5
236
330
235
100
AcDbEntity
  8
Ebene 1
 62
     7
420
 16777215
370
    25
100
AcDbVertex
100
AcDb2dVertex
 10
184.3621960558043
 20
-7.761111109170834
 30
0.0
  0
VERTEX
  5
237
330
235
100
AcDbEntity
  8
Ebene 1
 62
     7
420
 16777215
370
    25
100
AcDbVertex
100
AcDb2dVertex
 10
184.3621960558043
 20
-142.7611111091698
 30
0.0
  0
VERTEX
  5
238
330
235
100
AcDbEntity
  8
Ebene 1
 62
     7
420
 16777215
370
    25
100
AcDbVertex
100
AcDb2dVertex
 10
184.3621960558043
 20
-143.7611111091705
 30
0.0
  0
VERTEX
  5
239
330
235
100
AcDbEntity
  8
Ebene 1
 62
     7
420
 16777215
370
    25
100
AcDbVertex
100
AcDb2dVertex
 10
164.3621960558052
 20
-143.7611111091705
 30
0.0
  0
VERTEX
  5
23A
330
235
100
AcDbEntity
  8
Ebene 1
 62
     7
420
 16777215
370
    25
100
AcDbVertex
100
AcDb2dVertex
 10
164.3621960558052
 20
-146.76111110917
 30
0.0
  0
VERTEX
  5
23B
330
235
100
AcDbEntity
  8
Ebene 1
 62
     7
420
 16777215
370
    25
100
AcDbVertex
100
AcDb2dVertex
 10
144.3621960558045
 20
-146.76111110917
 30
0.0
  0
VERTEX
  5
23C
330
235
100
AcDbEntity
  8
Ebene 1
 62
     7
420
 16777215
370
    25
100
AcDbVertex
100
AcDb2dVertex
 10
144.3621960558045
 20
-143.7611111091705
 30
0.0
  0
VERTEX
  5
23D
330
235
100
AcDbEntity
  8
Ebene 1
 62
     7
420
 16777215
370
    25
100
AcDbVertex
100
AcDb2dVertex
 10
124.3621960558051
 20
-143.7611111091705
 30
0.0
  0
VERTEX
  5
23E
330
235
100
AcDbEntity
  8
Ebene 1
 62
     7
420
 16777215
370
    25
100
AcDbVertex
100
AcDb2dVertex
 10
124.3621960558051
 20
-146.76111110917
 30
0.0
  0
VERTEX
  5
23F
330
235
100
AcDbEntity
  8
Ebene 1
 62
     7
420
 16777215
370
    25
100
AcDbVertex
100
AcDb2dVertex
 10
104.3621960558057
 20
-146.76111110917
 30
0.0
  0
VERTEX
  5
240
330
235
100
AcDbEntity
  8
Ebene 1
 62
     7
420
 16777215
370
    25
100
AcDbVertex
100
AcDb2dVertex
 10
104.3621960558057
 20
-143.7611111091705
 30
0.0
  0
VERTEX
  5
241
330
235
100
AcDbEntity
  8
Ebene 1
 62
     7
420
 16777215
370
    25
100
AcDbVertex
100
AcDb2dVertex
 10
84.36219605580499
 20
-143.7611111091705
 30
0.0
  0
VERTEX
  5
242
330
235
100
AcDbEntity
  8
Ebene 1
 62
     7
420
 16777215
370
    25
100
AcDbVertex
100
AcDb2dVertex
 10
84.36219605580499
 20
-146.76111110917
 30
0.0
  0
VERTEX
  5
243
330
235
100
AcDbEntity
  8
Ebene 1
 62
     7
420
 16777215
370
    25
100
AcDbVertex
100
AcDb2dVertex
 10
64.36219605580492
 20
-146.76111110917
 30
0.0
  0
VERTEX
  5
244
330
235
100
AcDbEntity
  8
Ebene 1
 62
     7
420
 16777215
370
    25
100
AcDbVertex
100
AcDb2dVertex
 10
64.36219605580492
 20
-143.7611111091705
 30
0.0
  0
VERTEX
  5
245
330
235
100
AcDbEntity
  8
Ebene 1
 62
     7
420
 16777215
370
    25
100
AcDbVertex
100
AcDb2dVertex
 10
44.36219605580486
 20
-143.7611111091705
 30
0.0
  0
VERTEX
  5
246
330
235
100
AcDbEntity
  8
Ebene 1
 62
     7
420
 16777215
370
    25
100
AcDbVertex
100
AcDb2dVertex
 10
44.36219605580486
 20
-146.76111110917
 30
0.0
  0
VERTEX
  5
247
330
235
100
AcDbEntity
  8
Ebene 1
 62
     7
420
 16777215
370
    25
100
AcDbVertex
100
AcDb2dVertex
 10
24.36219605580543
 20
-146.76111110917
 30
0.0
  0
VERTEX
  5
248
330
235
100
AcDbEntity
  8
Ebene 1
 62
     7
420
 16777215
370
    25
100
AcDbVertex
100
AcDb2dVertex
 10
24.36219605580543
 20
-143.7611111091705
 30
0.0
  0
VERTEX
  5
249
330
235
100
AcDbEntity
  8
Ebene 1
 62
     7
420
 16777215
370
    25
100
AcDbVertex
100
AcDb2dVertex
 10
4.362196055804729
 20
-143.7611111091705
 30
0.0
  0
VERTEX
  5
24A
330
235
100
AcDbEntity
  8
Ebene 1
 62
     7
420
 16777215
370
    25
100
AcDbVertex
100
AcDb2dVertex
 10
4.362196055804729
 20
-7.761111109170513
 30
0.0
  0
VERTEX
  5
24B
330
235
100
AcDbEntity
  8
Ebene 1
 62
     7
420
 16777215
370
    25
100
AcDbVertex
100
AcDb2dVertex
 10
24.36219605580543
 20
-7.761111109170834
 30
0.0
  0
VERTEX
  5
24C
330
235
100
AcDbEntity
  8
Ebene 1
 62
     7
420
 16777215
370
    25
100
AcDbVertex
100
AcDb2dVertex
 10
24.36219605580543
 20
-4.761111109170728
 30
0.0
  0
VERTEX
  5
24D
330
235
100
AcDbEntity
  8
Ebene 1
 62
     7
420
 16777215
370
    25
100
AcDbVertex
100
AcDb2dVertex
 10
44.36219605580486
 20
-4.761111109170728
 30
0.0
  0
VERTEX
  5
24E
330
235
100
AcDbEntity
  8
Ebene 1
 62
     7
420
 16777215
370
    25
100
AcDbVertex
100
AcDb2dVertex
 10
44.36219605580486
 20
-7.761111109170513
 30
0.0
  0
VERTEX
  5
24F
330
235
100
AcDbEntity
  8
Ebene 1
 62
     7
420
 16777215
370
    25
100
AcDbVertex
100
AcDb2dVertex
 10
64.36219605580492
 20
-7.761111109170834
 30
0.0
  0
VERTEX
  5
250
330
235
100
AcDbEntity
  8
Ebene 1
 62
     7
420
 16777215
370
    25
100
AcDbVertex
100
AcDb2dVertex
 10
64.36219605580492
 20
-4.761111109170728
 30
0.0
  0
VERTEX
  5
251
330
235
100
AcDbEntity
  8
Ebene 1
 62
     7
420
 16777215
370
    25
100
AcDbVertex
100
AcDb2dVertex
 10
84.36219605580499
 20
-4.761111109170728
 30
0.0
  0
VERTEX
  5
252
330
235
100
AcDbEntity
  8
Ebene 1
 62
     7
420
 16777215
370
    25
100
AcDbVertex
100
AcDb2dVertex
 10
84.36219605580499
 20
-7.761111109170513
 30
0.0
  0
VERTEX
  5
253
330
235
100
AcDbEntity
  8
Ebene 1
 62
     7
420
 16777215
370
    25
100
AcDbVertex
100
AcDb2dVertex
 10
104.3621960558057
 20
-7.761111109170834
 30
0.0
  0
VERTEX
  5
254
330
235
100
AcDbEntity
  8
Ebene 1
 62
     7
420
 16777215
370
    25
100
AcDbVertex
100
AcDb2dVertex
 10
104.3621960558057
 20
-4.761111109170728
 30
0.0
  0
VERTEX
  5
255
330
235
100
AcDbEntity
  8
Ebene 1
 62
     7
420
 16777215
370
    25
100
AcDbVertex
100
AcDb2dVertex
 10
124.3621960558051
 20
-4.761111109170728
 30
0.0
  0
VERTEX
  5
256
330
235
100
AcDbEntity
  8
Ebene 1
 62
     7
420
 16777215
370
    25
100
AcDbVertex
100
AcDb2dVertex
 10
124.3621960558051
 20
-7.761111109170513
 30
0.0
  0
VERTEX
  5
257
330
235
100
AcDbEntity
  8
Ebene 1
 62
     7
420
 16777215
370
    25
100
AcDbVertex
100
AcDb2dVertex
 10
144.3621960558045
 20
-7.761111109170834
 30
0.0
  0
VERTEX
  5
258
330
235
100
AcDbEntity
  8
Ebene 1
 62
     7
420
 16777215
370
    25
100
AcDbVertex
100
AcDb2dVertex
 10
144.3621960558045
 20
-4.761111109170728
 30
0.0
  0
VERTEX
  5
259
330
235
100
AcDbEntity
  8
Ebene 1
 62
     7
420
 16777215
370
    25
100
AcDbVertex
100
AcDb2dVertex
 10
164.3621960558052
 20
-4.761111109170728
 30
0.0
  0
VERTEX
  5
25A
330
235
100
AcDbEntity
  8
Ebene 1
 62
     7
420
 16777215
370
    25
100
AcDbVertex
100
AcDb2dVertex
 10
164.3621960558052
 20
-7.761111109170513
 30
0.0
  0
VERTEX
  5
25B
330
235
100
AcDbEntity
  8
Ebene 1
 62
     7
420
 16777215
370
    25
100
AcDbVertex
100
AcDb2dVertex
 10
184.3621960558043
 20
-7.761111109170834
 30
0.0
  0
SEQEND
  5
25C
330
235
100
AcDbEntity
  8
Ebene 1
 62
     7
420
 16777215
370
    25
  0
ENDBLK
  5
234
330
231
100
AcDbEntity
  8
0
100
AcDbBlockEnd
  0
BLOCK
  5
25F
330
25D
100
AcDbEntity
  8
0
100
AcDbBlockBegin
  2
block 57
 70
     0
 10
0.0
 20
0.0
 30
0.0
  3
block 57
  1

  0
POLYLINE
  5
261
330
25D
100
AcDbEntity
  8
Ebene 1
 62
     7
420
 16777215
370
    25
100
AcDb2dPolyline
 66
     1
 10
0.0
 20
0.0
 30
0.0
  0
VERTEX
  5
262
330
261
100
AcDbEntity
  8
Ebene 1
 62
     7
420
 16777215
370
    25
100
AcDbVertex
100
AcDb2dVertex
 10
144.3621960558045
 20
-146.76111110917
 30
0.0
  0
VERTEX
  5
263
330
261
100
AcDbEntity
  8
Ebene 1
 62
     7
420
 16777215
370
    25
100
AcDbVertex
100
AcDb2dVertex
 10
164.3621960558052
 20
-146.76111110917
 30
0.0
  0
SEQEND
  5
264
330
261
100
AcDbEntity
  8
Ebene 1
 62
     7
420
 16777215
370
    25
  0
ENDBLK
  5
260
330
25D
100
AcDbEntity
  8
0
100
AcDbBlockEnd
  0
BLOCK
  5
267
330
265
100
AcDbEntity
  8
0
100
AcDbBlockBegin
  2
block 58
 70
     0
 10
0.0
 20
0.0
 30
0.0
  3
block 58
  1

  0
POLYLINE
  5
269
330
265
100
AcDbEntity
  8
Ebene 1
 62
     7
420
 16777215
370
    25
100
AcDb2dPolyline
 66
     1
 10
0.0
 20
0.0
 30
0.0
  0
VERTEX
  5
26A
330
269
100
AcDbEntity
  8
Ebene 1
 62
     7
420
 16777215
370
    25
100
AcDbVertex
100
AcDb2dVertex
 10
4.362196055804729
 20
-75.76111110917067
 30
0.0
  0
VERTEX
  5
26B
330
269
100
AcDbEntity
  8
Ebene 1
 62
     7
420
 16777215
370
    25
100
AcDbVertex
100
AcDb2dVertex
 10
184.3621960558043
 20
-75.76111110917067
 30
0.0
  0
SEQEND
  5
26C
330
269
100
AcDbEntity
  8
Ebene 1
 62
     7
420
 16777215
370
    25
  0
ENDBLK
  5
268
330
265
100
AcDbEntity
  8
0
100
AcDbBlockEnd
  0
BLOCK
  5
26F
330
26D
100
AcDbEntity
  8
0
100
AcDbBlockBegin
  2
block 59
 70
     0
 10
0.0
 20
0.0
 30
0.0
  3
block 59
  1

  0
INSERT
  5
272
330
26D
100
AcDbEntity
  8
Ebene 1
100
AcDbBlockReference
  2
block 60
 10
0.0
 20
0.0
 30
0.0
  0
INSERT
  5
29F
330
26D
100
AcDbEntity
  8
Ebene 1
100
AcDbBlockReference
  2
block 61
 10
0.0
 20
0.0
 30
0.0
  0
INSERT
  5
2A7
330
26D
100
AcDbEntity
  8
Ebene 1
100
AcDbBlockReference
  2
block 62
 10
0.0
 20
0.0
 30
0.0
  0
INSERT
  5
2AF
330
26D
100
AcDbEntity
  8
Ebene 1
100
AcDbBlockReference
  2
block 63
 10
0.0
 20
0.0
 30
0.0
  0
INSERT
  5
2B7
330
26D
100
AcDbEntity
  8
Ebene 1
100
AcDbBlockReference
  2
block 64
 10
0.0
 20
0.0
 30
0.0
  0
INSERT
  5
2BF
330
26D
100
AcDbEntity
  8
Ebene 1
100
AcDbBlockReference
  2
block 65
 10
0.0
 20
0.0
 30
0.0
  0
INSERT
  5
2C7
330
26D
100
AcDbEntity
  8
Ebene 1
100
AcDbBlockReference
  2
block 66
 10
0.0
 20
0.0
 30
0.0
  0
INSERT
  5
2CF
330
26D
100
AcDbEntity
  8
Ebene 1
100
AcDbBlockReference
  2
block 67
 10
0.0
 20
0.0
 30
0.0
  0
INSERT
  5
2D7
330
26D
100
AcDbEntity
  8
Ebene 1
100
AcDbBlockReference
  2
block 68
 10
0.0
 20
0.0
 30
0.0
  0
INSERT
  5
2DF
330
26D
100
AcDbEntity
  8
Ebene 1
100
AcDbBlockReference
  2
block 69
 10
0.0
 20
0.0
 30
0.0
  0
INSERT
  5
2E7
330
26D
100
AcDbEntity
  8
Ebene 1
100
AcDbBlockReference
  2
block 70
 10
0.0
 20
0.0
 30
0.0
  0
INSERT
  5
2EF
330
26D
100
AcDbEntity
  8
Ebene 1
100
AcDbBlockReference
  2
block 71
 10
0.0
 20
0.0
 30
0.0
  0
INSERT
  5
2F7
330
26D
100
AcDbEntity
  8
Ebene 1
100
AcDbBlockReference
  2
block 72
 10
0.0
 20
0.0
 30
0.0
  0
INSERT
  5
2FF
330
26D
100
AcDbEntity
  8
Ebene 1
100
AcDbBlockReference
  2
block 73
 10
0.0
 20
0.0
 30
0.0
  0
INSERT
  5
307
330
26D
100
AcDbEntity
  8
Ebene 1
100
AcDbBlockReference
  2
block 74
 10
0.0
 20
0.0
 30
0.0
  0
INSERT
  5
30F
330
26D
100
AcDbEntity
  8
Ebene 1
100
AcDbBlockReference
  2
block 75
 10
0.0
 20
0.0
 30
0.0
  0
INSERT
  5
317
330
26D
100
AcDbEntity
  8
Ebene 1
100
AcDbBlockReference
  2
block 76
 10
0.0
 20
0.0
 30
0.0
  0
INSERT
  5
31F
330
26D
100
AcDbEntity
  8
Ebene 1
100
AcDbBlockReference
  2
block 77
 10
0.0
 20
0.0
 30
0.0
  0
INSERT
  5
327
330
26D
100
AcDbEntity
  8
Ebene 1
100
AcDbBlockReference
  2
block 78
 10
0.0
 20
0.0
 30
0.0
  0
INSERT
  5
332
330
26D
100
AcDbEntity
  8
Ebene 1
100
AcDbBlockReference
  2
block 79
 10
0.0
 20
0.0
 30
0.0
  0
INSERT
  5
33A
330
26D
100
AcDbEntity
  8
Ebene 1
100
AcDbBlockReference
  2
block 80
 10
0.0
 20
0.0
 30
0.0
  0
INSERT
  5
342
330
26D
100
AcDbEntity
  8
Ebene 1
100
AcDbBlockReference
  2
block 81
 10
0.0
 20
0.0
 30
0.0
  0
INSERT
  5
34D
330
26D
100
AcDbEntity
  8
Ebene 1
100
AcDbBlockReference
  2
block 82
 10
0.0
 20
0.0
 30
0.0
  0
INSERT
  5
358
330
26D
100
AcDbEntity
  8
Ebene 1
100
AcDbBlockReference
  2
block 83
 10
0.0
 20
0.0
 30
0.0
  0
INSERT
  5
363
330
26D
100
AcDbEntity
  8
Ebene 1
100
AcDbBlockReference
  2
block 84
 10
0.0
 20
0.0
 30
0.0
  0
INSERT
  5
36B
330
26D
100
AcDbEntity
  8
Ebene 1
100
AcDbBlockReference
  2
block 85
 10
0.0
 20
0.0
 30
0.0
  0
INSERT
  5
370
330
26D
100
AcDbEntity
  8
Ebene 1
100
AcDbBlockReference
  2
block 86
 10
0.0
 20
0.0
 30
0.0
  0
ENDBLK
  5
270
330
26D
100
AcDbEntity
  8
0
100
AcDbBlockEnd
  0
BLOCK
  5
273
330
271
100
AcDbEntity
  8
0
100
AcDbBlockBegin
  2
block 60
 70
     0
 10
0.0
 20
0.0
 30
0.0
  3
block 60
  1

  0
POLYLINE
  5
275
330
271
100
AcDbEntity
  8
Ebene 1
 62
     7
420
 16777215
370
    25
100
AcDb2dPolyline
 66
     1
 10
0.0
 20
0.0
 30
0.0
  0
VERTEX
  5
276
330
275
100
AcDbEntity
  8
Ebene 1
 62
     7
420
 16777215
370
    25
100
AcDbVertex
100
AcDb2dVertex
 10
211.6166666462949
 20
-193.0388888424104
 30
0.0
  0
VERTEX
  5
277
330
275
100
AcDbEntity
  8
Ebene 1
 62
     7
420
 16777215
370
    25
100
AcDbVertex
100
AcDb2dVertex
 10
231.6166666462943
 20
-253.0388888424106
 30
0.0
  0
VERTEX
  5
278
330
275
100
AcDbEntity
  8
Ebene 1
 62
     7
420
 16777215
370
    25
100
AcDbVertex
100
AcDb2dVertex
 10
206.6166666462941
 20
-293.0388888424108
 30
0.0
  0
VERTEX
  5
279
330
275
100
AcDbEntity
  8
Ebene 1
 62
     7
420
 16777215
370
    25
100
AcDbVertex
100
AcDb2dVertex
 10
206.6166666462941
 20
-296.0388888424109
 30
0.0
  0
VERTEX
  5
27A
330
275
100
AcDbEntity
  8
Ebene 1
 62
     7
420
 16777215
370
    25
100
AcDbVertex
100
AcDb2dVertex
 10
196.616666646295
 20
-296.0388888424109
 30
0.0
  0
VERTEX
  5
27B
330
275
100
AcDbEntity
  8
Ebene 1
 62
     7
420
 16777215
370
    25
100
AcDbVertex
100
AcDb2dVertex
 10
196.616666646295
 20
-293.0388888424108
 30
0.0
  0
VERTEX
  5
27C
330
275
100
AcDbEntity
  8
Ebene 1
 62
     7
420
 16777215
370
    25
100
AcDbVertex
100
AcDb2dVertex
 10
186.6166666462946
 20
-293.0388888424108
 30
0.0
  0
VERTEX
  5
27D
330
275
100
AcDbEntity
  8
Ebene 1
 62
     7
420
 16777215
370
    25
100
AcDbVertex
100
AcDb2dVertex
 10
186.6166666462946
 20
-296.0388888424109
 30
0.0
  0
VERTEX
  5
27E
330
275
100
AcDbEntity
  8
Ebene 1
 62
     7
420
 16777215
370
    25
100
AcDbVertex
100
AcDb2dVertex
 10
176.6166666462943
 20
-296.0388888424109
 30
0.0
  0
VERTEX
  5
27F
330
275
100
AcDbEntity
  8
Ebene 1
 62
     7
420
 16777215
370
    25
100
AcDbVertex
100
AcDb2dVertex
 10
176.6166666462943
 20
-293.0388888424108
 30
0.0
  0
VERTEX
  5
280
330
275
100
AcDbEntity
  8
Ebene 1
 62
     7
420
 16777215
370
    25
100
AcDbVertex
100
AcDb2dVertex
 10
166.6166666462952
 20
-293.0388888424108
 30
0.0
  0
VERTEX
  5
281
330
275
100
AcDbEntity
  8
Ebene 1
 62
     7
420
 16777215
370
    25
100
AcDbVertex
100
AcDb2dVertex
 10
146.6166666462945
 20
-278.0388888424109
 30
0.0
  0
VERTEX
  5
282
330
275
100
AcDbEntity
  8
Ebene 1
 62
     7
420
 16777215
370
    25
100
AcDbVertex
100
AcDb2dVertex
 10
96.61666664629469
 20
-278.0388888424109
 30
0.0
  0
VERTEX
  5
283
330
275
100
AcDbEntity
  8
Ebene 1
 62
     7
420
 16777215
370
    25
100
AcDbVertex
100
AcDb2dVertex
 10
76.61666664629462
 20
-293.0388888424108
 30
0.0
  0
VERTEX
  5
284
330
275
100
AcDbEntity
  8
Ebene 1
 62
     7
420
 16777215
370
    25
100
AcDbVertex
100
AcDb2dVertex
 10
66.61666664629428
 20
-293.0388888424108
 30
0.0
  0
VERTEX
  5
285
330
275
100
AcDbEntity
  8
Ebene 1
 62
     7
420
 16777215
370
    25
100
AcDbVertex
100
AcDb2dVertex
 10
66.61666664629428
 20
-296.0388888424109
 30
0.0
  0
VERTEX
  5
286
330
275
100
AcDbEntity
  8
Ebene 1
 62
     7
420
 16777215
370
    25
100
AcDbVertex
100
AcDb2dVertex
 10
56.61666664629456
 20
-296.0388888424109
 30
0.0
  0
VERTEX
  5
287
330
275
100
AcDbEntity
  8
Ebene 1
 62
     7
420
 16777215
370
    25
100
AcDbVertex
100
AcDb2dVertex
 10
56.61666664629456
 20
-293.0388888424108
 30
0.0
  0
VERTEX
  5
288
330
275
100
AcDbEntity
  8
Ebene 1
 62
     7
420
 16777215
370
    25
100
AcDbVertex
100
AcDb2dVertex
 10
46.61666664629485
 20
-293.0388888424108
 30
0.0
  0
VERTEX
  5
289
330
275
100
AcDbEntity
  8
Ebene 1
 62
     7
420
 16777215
370
    25
100
AcDbVertex
100
AcDb2dVertex
 10
46.61666664629485
 20
-296.0388888424109
 30
0.0
  0
VERTEX
  5
28A
330
275
100
AcDbEntity
  8
Ebene 1
 62
     7
420
 16777215
370
    25
100
AcDbVertex
100
AcDb2dVertex
 10
36.6166666462945
 20
-296.0388888424109
 30
0.0
  0
VERTEX
  5
28B
330
275
100
AcDbEntity
  8
Ebene 1
 62
     7
420
 16777215
370
    25
100
AcDbVertex
100
AcDb2dVertex
 10
36.6166666462945
 20
-293.0388888424108
 30
0.0
  0
VERTEX
  5
28C
330
275
100
AcDbEntity
  8
Ebene 1
 62
     7
420
 16777215
370
    25
100
AcDbVertex
100
AcDb2dVertex
 10
11.61666664629426
 20
-253.0388888424106
 30
0.0
  0
VERTEX
  5
28D
330
275
100
AcDbEntity
  8
Ebene 1
 62
     7
420
 16777215
370
    25
100
AcDbVertex
100
AcDb2dVertex
 10
31.61666664629496
 20
-193.0388888424104
 30
0.0
  0
VERTEX
  5
28E
330
275
100
AcDbEntity
  8
Ebene 1
 62
     7
420
 16777215
370
    25
100
AcDbVertex
100
AcDb2dVertex
 10
52.61666664629506
 20
-193.0388888424104
 30
0.0
  0
VERTEX
  5
28F
330
275
100
AcDbEntity
  8
Ebene 1
 62
     7
420
 16777215
370
    25
100
AcDbVertex
100
AcDb2dVertex
 10
52.61666664629506
 20
-196.0388888424105
 30
0.0
  0
VERTEX
  5
290
330
275
100
AcDbEntity
  8
Ebene 1
 62
     7
420
 16777215
370
    25
100
AcDbVertex
100
AcDb2dVertex
 10
71.61666664629509
 20
-196.0388888424105
 30
0.0
  0
VERTEX
  5
291
330
275
100
AcDbEntity
  8
Ebene 1
 62
     7
420
 16777215
370
    25
100
AcDbVertex
100
AcDb2dVertex
 10
71.61666664629509
 20
-193.0388888424104
 30
0.0
  0
VERTEX
  5
292
330
275
100
AcDbEntity
  8
Ebene 1
 62
     7
420
 16777215
370
    25
100
AcDbVertex
100
AcDb2dVertex
 10
91.61666664629452
 20
-193.0388888424104
 30
0.0
  0
VERTEX
  5
293
330
275
100
AcDbEntity
  8
Ebene 1
 62
     7
420
 16777215
370
    25
100
AcDbVertex
100
AcDb2dVertex
 10
91.61666664629452
 20
-196.0388888424105
 30
0.0
  0
VERTEX
  5
294
330
275
100
AcDbEntity
  8
Ebene 1
 62
     7
420
 16777215
370
    25
100
AcDbVertex
100
AcDb2dVertex
 10
111.6166666462946
 20
-195.9011399081053
 30
0.0
  0
VERTEX
  5
295
330
275
100
AcDbEntity
  8
Ebene 1
 62
     7
420
 16777215
370
    25
100
AcDbVertex
100
AcDb2dVertex
 10
111.6166666462946
 20
-193.0388888424104
 30
0.0
  0
VERTEX
  5
296
330
275
100
AcDbEntity
  8
Ebene 1
 62
     7
420
 16777215
370
    25
100
AcDbVertex
100
AcDb2dVertex
 10
131.6166666462946
 20
-193.0388888424104
 30
0.0
  0
VERTEX
  5
297
330
275
100
AcDbEntity
  8
Ebene 1
 62
     7
420
 16777215
370
    25
100
AcDbVertex
100
AcDb2dVertex
 10
131.6166666462946
 20
-196.0388888424105
 30
0.0
  0
VERTEX
  5
298
330
275
100
AcDbEntity
  8
Ebene 1
 62
     7
420
 16777215
370
    25
100
AcDbVertex
100
AcDb2dVertex
 10
151.616666646294
 20
-196.0388888424105
 30
0.0
  0
VERTEX
  5
299
330
275
100
AcDbEntity
  8
Ebene 1
 62
     7
420
 16777215
370
    25
100
AcDbVertex
100
AcDb2dVertex
 10
151.616666646294
 20
-193.0388888424104
 30
0.0
  0
VERTEX
  5
29A
330
275
100
AcDbEntity
  8
Ebene 1
 62
     7
420
 16777215
370
    25
100
AcDbVertex
100
AcDb2dVertex
 10
171.6166666462948
 20
-193.0388888424104
 30
0.0
  0
VERTEX
  5
29B
330
275
100
AcDbEntity
  8
Ebene 1
 62
     7
420
 16777215
370
    25
100
AcDbVertex
100
AcDb2dVertex
 10
171.6166666462948
 20
-196.0388888424105
 30
0.0
  0
VERTEX
  5
29C
330
275
100
AcDbEntity
  8
Ebene 1
 62
     7
420
 16777215
370
    25
100
AcDbVertex
100
AcDb2dVertex
 10
192.6166666462949
 20
-196.0388888424105
 30
0.0
  0
SEQEND
  5
29D
330
275
100
AcDbEntity
  8
Ebene 1
 62
     7
420
 16777215
370
    25
  0
ENDBLK
  5
274
330
271
100
AcDbEntity
  8
0
100
AcDbBlockEnd
  0
BLOCK
  5
2A0
330
29E
100
AcDbEntity
  8
0
100
AcDbBlockBegin
  2
block 61
 70
     0
 10
0.0
 20
0.0
 30
0.0
  3
block 61
  1

  0
POLYLINE
  5
2A2
330
29E
100
AcDbEntity
  8
Ebene 1
 62
     7
420
 16777215
370
    25
100
AcDb2dPolyline
 66
     1
 10
0.0
 20
0.0
 30
0.0
  0
VERTEX
  5
2A3
330
2A2
100
AcDbEntity
  8
Ebene 1
 62
     7
420
 16777215
370
    25
100
AcDbVertex
100
AcDb2dVertex
 10
52.61666664629506
 20
-193.0388888424104
 30
0.0
  0
VERTEX
  5
2A4
330
2A2
100
AcDbEntity
  8
Ebene 1
 62
     7
420
 16777215
370
    25
100
AcDbVertex
100
AcDb2dVertex
 10
52.61666664629506
 20
-196.0388888424105
 30
0.0
  0
SEQEND
  5
2A5
330
2A2
100
AcDbEntity
  8
Ebene 1
 62
     7
420
 16777215
370
    25
  0
ENDBLK
  5
2A1
330
29E
100
AcDbEntity
  8
0
100
AcDbBlockEnd
  0
BLOCK
  5
2A8
330
2A6
100
AcDbEntity
  8
0
100
AcDbBlockBegin
  2
block 62
 70
     0
 10
0.0
 20
0.0
 30
0.0
  3
block 62
  1

  0
POLYLINE
  5
2AA
330
2A6
100
AcDbEntity
  8
Ebene 1
 62
     7
420
 16777215
370
    25
100
AcDb2dPolyline
 66
     1
 10
0.0
 20
0.0
 30
0.0
  0
VERTEX
  5
2AB
330
2AA
100
AcDbEntity
  8
Ebene 1
 62
     7
420
 16777215
370
    25
100
AcDbVertex
100
AcDb2dVertex
 10
71.61666664629509
 20
-196.0388888424105
 30
0.0
  0
VERTEX
  5
2AC
330
2AA
100
AcDbEntity
  8
Ebene 1
 62
     7
420
 16777215
370
    25
100
AcDbVertex
100
AcDb2dVertex
 10
71.61666664629509
 20
-193.0388888424104
 30
0.0
  0
SEQEND
  5
2AD
330
2AA
100
AcDbEntity
  8
Ebene 1
 62
     7
420
 16777215
370
    25
  0
ENDBLK
  5
2A9
330
2A6
100
AcDbEntity
  8
0
100
AcDbBlockEnd
  0
BLOCK
  5
2B0
330
2AE
100
AcDbEntity
  8
0
100
AcDbBlockBegin
  2
block 63
 70
     0
 10
0.0
 20
0.0
 30
0.0
  3
block 63
  1

  0
POLYLINE
  5
2B2
330
2AE
100
AcDbEntity
  8
Ebene 1
 62
     7
420
 16777215
370
    25
100
AcDb2dPolyline
 66
     1
 10
0.0
 20
0.0
 30
0.0
  0
VERTEX
  5
2B3
330
2B2
100
AcDbEntity
  8
Ebene 1
 62
     7
420
 16777215
370
    25
100
AcDbVertex
100
AcDb2dVertex
 10
192.6166666462949
 20
-193.0388888424104
 30
0.0
  0
VERTEX
  5
2B4
330
2B2
100
AcDbEntity
  8
Ebene 1
 62
     7
420
 16777215
370
    25
100
AcDbVertex
100
AcDb2dVertex
 10
192.6166666462949
 20
-196.0388888424105
 30
0.0
  0
SEQEND
  5
2B5
330
2B2
100
AcDbEntity
  8
Ebene 1
 62
     7
420
 16777215
370
    25
  0
ENDBLK
  5
2B1
330
2AE
100
AcDbEntity
  8
0
100
AcDbBlockEnd
  0
BLOCK
  5
2B8
330
2B6
100
AcDbEntity
  8
0
100
AcDbBlockBegin
  2
block 64
 70
     0
 10
0.0
 20
0.0
 30
0.0
  3
block 64
  1

  0
POLYLINE
  5
2BA
330
2B6
100
AcDbEntity
  8
Ebene 1
 62
     7
420
 16777215
370
    25
100
AcDb2dPolyline
 66
     1
 10
0.0
 20
0.0
 30
0.0
  0
VERTEX
  5
2BB
330
2BA
100
AcDbEntity
  8
Ebene 1
 62
     7
420
 16777215
370
    25
100
AcDbVertex
100
AcDb2dVertex
 10
171.6166666462948
 20
-196.0388888424105
 30
0.0
  0
VERTEX
  5
2BC
330
2BA
100
AcDbEntity
  8
Ebene 1
 62
     7
420
 16777215
370
    25
100
AcDbVertex
100
AcDb2dVertex
 10
171.6166666462948
 20
-193.0388888424104
 30
0.0
  0
SEQEND
  5
2BD
330
2BA
100
AcDbEntity
  8
Ebene 1
 62
     7
420
 16777215
370
    25
  0
ENDBLK
  5
2B9
330
2B6
100
AcDbEntity
  8
0
100
AcDbBlockEnd
  0
BLOCK
  5
2C0
330
2BE
100
AcDbEntity
  8
0
100
AcDbBlockBegin
  2
block 65
 70
     0
 10
0.0
 20
0.0
 30
0.0
  3
block 65
  1

  0
POLYLINE
  5
2C2
330
2BE
100
AcDbEntity
  8
Ebene 1
 62
     7
420
 16777215
370
    25
100
AcDb2dPolyline
 66
     1
 10
0.0
 20
0.0
 30
0.0
  0
VERTEX
  5
2C3
330
2C2
100
AcDbEntity
  8
Ebene 1
 62
     7
420
 16777215
370
    25
100
AcDbVertex
100
AcDb2dVertex
 10
151.616666646294
 20
-193.0388888424104
 30
0.0
  0
VERTEX
  5
2C4
330
2C2
100
AcDbEntity
  8
Ebene 1
 62
     7
420
 16777215
370
    25
100
AcDbVertex
100
AcDb2dVertex
 10
151.616666646294
 20
-196.0388888424105
 30
0.0
  0
SEQEND
  5
2C5
330
2C2
100
AcDbEntity
  8
Ebene 1
 62
     7
420
 16777215
370
    25
  0
ENDBLK
  5
2C1
330
2BE
100
AcDbEntity
  8
0
100
AcDbBlockEnd
  0
BLOCK
  5
2C8
330
2C6
100
AcDbEntity
  8
0
100
AcDbBlockBegin
  2
block 66
 70
     0
 10
0.0
 20
0.0
 30
0.0
  3
block 66
  1

  0
POLYLINE
  5
2CA
330
2C6
100
AcDbEntity
  8
Ebene 1
 62
     7
420
 16777215
370
    25
100
AcDb2dPolyline
 66
     1
 10
0.0
 20
0.0
 30
0.0
  0
VERTEX
  5
2CB
330
2CA
100
AcDbEntity
  8
Ebene 1
 62
     7
420
 16777215
370
    25
100
AcDbVertex
100
AcDb2dVertex
 10
192.6166666462949
 20
-193.0388888424104
 30
0.0
  0
VERTEX
  5
2CC
330
2CA
100
AcDbEntity
  8
Ebene 1
 62
     7
420
 16777215
370
    25
100
AcDbVertex
100
AcDb2dVertex
 10
211.6166666462949
 20
-193.0388888424104
 30
0.0
  0
SEQEND
  5
2CD
330
2CA
100
AcDbEntity
  8
Ebene 1
 62
     7
420
 16777215
370
    25
  0
ENDBLK
  5
2C9
330
2C6
100
AcDbEntity
  8
0
100
AcDbBlockEnd
  0
BLOCK
  5
2D0
330
2CE
100
AcDbEntity
  8
0
100
AcDbBlockBegin
  2
block 67
 70
     0
 10
0.0
 20
0.0
 30
0.0
  3
block 67
  1

  0
POLYLINE
  5
2D2
330
2CE
100
AcDbEntity
  8
Ebene 1
 62
     7
420
 16777215
370
    25
100
AcDb2dPolyline
 66
     1
 10
0.0
 20
0.0
 30
0.0
  0
VERTEX
  5
2D3
330
2D2
100
AcDbEntity
  8
Ebene 1
 62
     7
420
 16777215
370
    25
100
AcDbVertex
100
AcDb2dVertex
 10
151.616666646294
 20
-193.0388888424104
 30
0.0
  0
VERTEX
  5
2D4
330
2D2
100
AcDbEntity
  8
Ebene 1
 62
     7
420
 16777215
370
    25
100
AcDbVertex
100
AcDb2dVertex
 10
171.6166666462948
 20
-193.0388888424104
 30
0.0
  0
SEQEND
  5
2D5
330
2D2
100
AcDbEntity
  8
Ebene 1
 62
     7
420
 16777215
370
    25
  0
ENDBLK
  5
2D1
330
2CE
100
AcDbEntity
  8
0
100
AcDbBlockEnd
  0
BLOCK
  5
2D8
330
2D6
100
AcDbEntity
  8
0
100
AcDbBlockBegin
  2
block 68
 70
     0
 10
0.0
 20
0.0
 30
0.0
  3
block 68
  1

  0
POLYLINE
  5
2DA
330
2D6
100
AcDbEntity
  8
Ebene 1
 62
     7
420
 16777215
370
    25
100
AcDb2dPolyline
 66
     1
 10
0.0
 20
0.0
 30
0.0
  0
VERTEX
  5
2DB
330
2DA
100
AcDbEntity
  8
Ebene 1
 62
     7
420
 16777215
370
    25
100
AcDbVertex
100
AcDb2dVertex
 10
71.61666664629509
 20
-193.0388888424104
 30
0.0
  0
VERTEX
  5
2DC
330
2DA
100
AcDbEntity
  8
Ebene 1
 62
     7
420
 16777215
370
    25
100
AcDbVertex
100
AcDb2dVertex
 10
91.61666664629452
 20
-193.0388888424104
 30
0.0
  0
SEQEND
  5
2DD
330
2DA
100
AcDbEntity
  8
Ebene 1
 62
     7
420
 16777215
370
    25
  0
ENDBLK
  5
2D9
330
2D6
100
AcDbEntity
  8
0
100
AcDbBlockEnd
  0
BLOCK
  5
2E0
330
2DE
100
AcDbEntity
  8
0
100
AcDbBlockBegin
  2
block 69
 70
     0
 10
0.0
 20
0.0
 30
0.0
  3
block 69
  1

  0
POLYLINE
  5
2E2
330
2DE
100
AcDbEntity
  8
Ebene 1
 62
     7
420
 16777215
370
    25
100
AcDb2dPolyline
 66
     1
 10
0.0
 20
0.0
 30
0.0
  0
VERTEX
  5
2E3
330
2E2
100
AcDbEntity
  8
Ebene 1
 62
     7
420
 16777215
370
    25
100
AcDbVertex
100
AcDb2dVertex
 10
166.6166666462952
 20
-293.0388888424108
 30
0.0
  0
VERTEX
  5
2E4
330
2E2
100
AcDbEntity
  8
Ebene 1
 62
     7
420
 16777215
370
    25
100
AcDbVertex
100
AcDb2dVertex
 10
176.6166666462943
 20
-293.0388888424108
 30
0.0
  0
SEQEND
  5
2E5
330
2E2
100
AcDbEntity
  8
Ebene 1
 62
     7
420
 16777215
370
    25
  0
ENDBLK
  5
2E1
330
2DE
100
AcDbEntity
  8
0
100
AcDbBlockEnd
  0
BLOCK
  5
2E8
330
2E6
100
AcDbEntity
  8
0
100
AcDbBlockBegin
  2
block 70
 70
     0
 10
0.0
 20
0.0
 30
0.0
  3
block 70
  1

  0
POLYLINE
  5
2EA
330
2E6
100
AcDbEntity
  8
Ebene 1
 62
     7
420
 16777215
370
    25
100
AcDb2dPolyline
 66
     1
 10
0.0
 20
0.0
 30
0.0
  0
VERTEX
  5
2EB
330
2EA
100
AcDbEntity
  8
Ebene 1
 62
     7
420
 16777215
370
    25
100
AcDbVertex
100
AcDb2dVertex
 10
196.616666646295
 20
-293.0388888424108
 30
0.0
  0
VERTEX
  5
2EC
330
2EA
100
AcDbEntity
  8
Ebene 1
 62
     7
420
 16777215
370
    25
100
AcDbVertex
100
AcDb2dVertex
 10
186.6166666462946
 20
-293.0388888424108
 30
0.0
  0
SEQEND
  5
2ED
330
2EA
100
AcDbEntity
  8
Ebene 1
 62
     7
420
 16777215
370
    25
  0
ENDBLK
  5
2E9
330
2E6
100
AcDbEntity
  8
0
100
AcDbBlockEnd
  0
BLOCK
  5
2F0
330
2EE
100
AcDbEntity
  8
0
100
AcDbBlockBegin
  2
block 71
 70
     0
 10
0.0
 20
0.0
 30
0.0
  3
block 71
  1

  0
POLYLINE
  5
2F2
330
2EE
100
AcDbEntity
  8
Ebene 1
 62
     7
420
 16777215
370
    25
100
AcDb2dPolyline
 66
     1
 10
0.0
 20
0.0
 30
0.0
  0
VERTEX
  5
2F3
330
2F2
100
AcDbEntity
  8
Ebene 1
 62
     7
420
 16777215
370
    25
100
AcDbVertex
100
AcDb2dVertex
 10
176.6166666462943
 20
-293.0388888424108
 30
0.0
  0
VERTEX
  5
2F4
330
2F2
100
AcDbEntity
  8
Ebene 1
 62
     7
420
 16777215
370
    25
100
AcDbVertex
100
AcDb2dVertex
 10
166.6166666462952
 20
-293.0388888424108
 30
0.0
  0
SEQEND
  5
2F5
330
2F2
100
AcDbEntity
  8
Ebene 1
 62
     7
420
 16777215
370
    25
  0
ENDBLK
  5
2F1
330
2EE
100
AcDbEntity
  8
0
100
AcDbBlockEnd
  0
BLOCK
  5
2F8
330
2F6
100
AcDbEntity
  8
0
100
AcDbBlockBegin
  2
block 72
 70
     0
 10
0.0
 20
0.0
 30
0.0
  3
block 72
  1

  0
POLYLINE
  5
2FA
330
2F6
100
AcDbEntity
  8
Ebene 1
 62
     7
420
 16777215
370
    25
100
AcDb2dPolyline
 66
     1
 10
0.0
 20
0.0
 30
0.0
  0
VERTEX
  5
2FB
330
2FA
100
AcDbEntity
  8
Ebene 1
 62
     7
420
 16777215
370
    25
100
AcDbVertex
100
AcDb2dVertex
 10
51.61666664629438
 20
-253.0388888424106
 30
0.0
  0
VERTEX
  5
2FC
330
2FA
100
AcDbEntity
  8
Ebene 1
 62
     7
420
 16777215
370
    25
100
AcDbVertex
100
AcDb2dVertex
 10
51.61666664629438
 20
-250.0388888424105
 30
0.0
  0
SEQEND
  5
2FD
330
2FA
100
AcDbEntity
  8
Ebene 1
 62
     7
420
 16777215
370
    25
  0
ENDBLK
  5
2F9
330
2F6
100
AcDbEntity
  8
0
100
AcDbBlockEnd
  0
BLOCK
  5
300
330
2FE
100
AcDbEntity
  8
0
100
AcDbBlockBegin
  2
block 73
 70
     0
 10
0.0
 20
0.0
 30
0.0
  3
block 73
  1

  0
POLYLINE
  5
302
330
2FE
100
AcDbEntity
  8
Ebene 1
 62
     7
420
 16777215
370
    25
100
AcDb2dPolyline
 66
     1
 10
0.0
 20
0.0
 30
0.0
  0
VERTEX
  5
303
330
302
100
AcDbEntity
  8
Ebene 1
 62
     7
420
 16777215
370
    25
100
AcDbVertex
100
AcDb2dVertex
 10
91.61666664629452
 20
-250.0388888424105
 30
0.0
  0
VERTEX
  5
304
330
302
100
AcDbEntity
  8
Ebene 1
 62
     7
420
 16777215
370
    25
100
AcDbVertex
100
AcDb2dVertex
 10
91.61666664629452
 20
-253.0388888424106
 30
0.0
  0
SEQEND
  5
305
330
302
100
AcDbEntity
  8
Ebene 1
 62
     7
420
 16777215
370
    25
  0
ENDBLK
  5
301
330
2FE
100
AcDbEntity
  8
0
100
AcDbBlockEnd
  0
BLOCK
  5
308
330
306
100
AcDbEntity
  8
0
100
AcDbBlockBegin
  2
block 74
 70
     0
 10
0.0
 20
0.0
 30
0.0
  3
block 74
  1

  0
POLYLINE
  5
30A
330
306
100
AcDbEntity
  8
Ebene 1
 62
     7
420
 16777215
370
    25
100
AcDb2dPolyline
 66
     1
 10
0.0
 20
0.0
 30
0.0
  0
VERTEX
  5
30B
330
30A
100
AcDbEntity
  8
Ebene 1
 62
     7
420
 16777215
370
    25
100
AcDbVertex
100
AcDb2dVertex
 10
131.6166666462946
 20
-250.0388888424105
 30
0.0
  0
VERTEX
  5
30C
330
30A
100
AcDbEntity
  8
Ebene 1
 62
     7
420
 16777215
370
    25
100
AcDbVertex
100
AcDb2dVertex
 10
131.6166666462946
 20
-253.0388888424106
 30
0.0
  0
SEQEND
  5
30D
330
30A
100
AcDbEntity
  8
Ebene 1
 62
     7
420
 16777215
370
    25
  0
ENDBLK
  5
309
330
306
100
AcDbEntity
  8
0
100
AcDbBlockEnd
  0
BLOCK
  5
310
330
30E
100
AcDbEntity
  8
0
100
AcDbBlockBegin
  2
block 75
 70
     0
 10
0.0
 20
0.0
 30
0.0
  3
block 75
  1

  0
POLYLINE
  5
312
330
30E
100
AcDbEntity
  8
Ebene 1
 62
     7
420
 16777215
370
    25
100
AcDb2dPolyline
 66
     1
 10
0.0
 20
0.0
 30
0.0
  0
VERTEX
  5
313
330
312
100
AcDbEntity
  8
Ebene 1
 62
     7
420
 16777215
370
    25
100
AcDbVertex
100
AcDb2dVertex
 10
111.6166666462946
 20
-253.0388888424106
 30
0.0
  0
VERTEX
  5
314
330
312
100
AcDbEntity
  8
Ebene 1
 62
     7
420
 16777215
370
    25
100
AcDbVertex
100
AcDb2dVertex
 10
111.6166666462946
 20
-249.0388888424105
 30
0.0
  0
SEQEND
  5
315
330
312
100
AcDbEntity
  8
Ebene 1
 62
     7
420
 16777215
370
    25
  0
ENDBLK
  5
311
330
30E
100
AcDbEntity
  8
0
100
AcDbBlockEnd
  0
BLOCK
  5
318
330
316
100
AcDbEntity
  8
0
100
AcDbBlockBegin
  2
block 76
 70
     0
 10
0.0
 20
0.0
 30
0.0
  3
block 76
  1

  0
POLYLINE
  5
31A
330
316
100
AcDbEntity
  8
Ebene 1
 62
     7
420
 16777215
370
    25
100
AcDb2dPolyline
 66
     1
 10
0.0
 20
0.0
 30
0.0
  0
VERTEX
  5
31B
330
31A
100
AcDbEntity
  8
Ebene 1
 62
     7
420
 16777215
370
    25
100
AcDbVertex
100
AcDb2dVertex
 10
171.6166666462948
 20
-250.0388888424105
 30
0.0
  0
VERTEX
  5
31C
330
31A
100
AcDbEntity
  8
Ebene 1
 62
     7
420
 16777215
370
    25
100
AcDbVertex
100
AcDb2dVertex
 10
171.6166666462948
 20
-253.0388888424106
 30
0.0
  0
SEQEND
  5
31D
330
31A
100
AcDbEntity
  8
Ebene 1
 62
     7
420
 16777215
370
    25
  0
ENDBLK
  5
319
330
316
100
AcDbEntity
  8
0
100
AcDbBlockEnd
  0
BLOCK
  5
320
330
31E
100
AcDbEntity
  8
0
100
AcDbBlockBegin
  2
block 77
 70
     0
 10
0.0
 20
0.0
 30
0.0
  3
block 77
  1

  0
POLYLINE
  5
322
330
31E
100
AcDbEntity
  8
Ebene 1
 62
     7
420
 16777215
370
    25
100
AcDb2dPolyline
 66
     1
 10
0.0
 20
0.0
 30
0.0
  0
VERTEX
  5
323
330
322
100
AcDbEntity
  8
Ebene 1
 62
     7
420
 16777215
370
    25
100
AcDbVertex
100
AcDb2dVertex
 10
151.616666646294
 20
-253.0388888424106
 30
0.0
  0
VERTEX
  5
324
330
322
100
AcDbEntity
  8
Ebene 1
 62
     7
420
 16777215
370
    25
100
AcDbVertex
100
AcDb2dVertex
 10
151.616666646294
 20
-249.0388888424105
 30
0.0
  0
SEQEND
  5
325
330
322
100
AcDbEntity
  8
Ebene 1
 62
     7
420
 16777215
370
    25
  0
ENDBLK
  5
321
330
31E
100
AcDbEntity
  8
0
100
AcDbBlockEnd
  0
BLOCK
  5
328
330
326
100
AcDbEntity
  8
0
100
AcDbBlockBegin
  2
block 78
 70
     0
 10
0.0
 20
0.0
 30
0.0
  3
block 78
  1

  0
POLYLINE
  5
32A
330
326
100
AcDbEntity
  8
Ebene 1
 62
     7
420
 16777215
370
    25
100
AcDb2dPolyline
 66
     1
 10
0.0
 20
0.0
 30
0.0
  0
VERTEX
  5
32B
330
32A
100
AcDbEntity
  8
Ebene 1
 62
     7
420
 16777215
370
    25
100
AcDbVertex
100
AcDb2dVertex
 10
191.6166666462942
 20
-253.0388888424106
 30
0.0
  0
VERTEX
  5
32C
330
32A
100
AcDbEntity
  8
Ebene 1
 62
     7
420
 16777215
370
    25
100
AcDbVertex
100
AcDb2dVertex
 10
191.6166666462942
 20
-250.0388888424105
 30
0.0
  0
VERTEX
  5
32D
330
32A
100
AcDbEntity
  8
Ebene 1
 62
     7
420
 16777215
370
    25
100
AcDbVertex
100
AcDb2dVertex
 10
171.6166666462948
 20
-250.0388888424105
 30
0.0
  0
VERTEX
  5
32E
330
32A
100
AcDbEntity
  8
Ebene 1
 62
     7
420
 16777215
370
    25
100
AcDbVertex
100
AcDb2dVertex
 10
171.6166666462948
 20
-253.0388888424106
 30
0.0
  0
VERTEX
  5
32F
330
32A
100
AcDbEntity
  8
Ebene 1
 62
     7
420
 16777215
370
    25
100
AcDbVertex
100
AcDb2dVertex
 10
191.6166666462942
 20
-253.0388888424106
 30
0.0
  0
SEQEND
  5
330
330
32A
100
AcDbEntity
  8
Ebene 1
 62
     7
420
 16777215
370
    25
  0
ENDBLK
  5
329
330
326
100
AcDbEntity
  8
0
100
AcDbBlockEnd
  0
BLOCK
  5
333
330
331
100
AcDbEntity
  8
0
100
AcDbBlockBegin
  2
block 79
 70
     0
 10
0.0
 20
0.0
 30
0.0
  3
block 79
  1

  0
POLYLINE
  5
335
330
331
100
AcDbEntity
  8
Ebene 1
 62
     7
420
 16777215
370
    25
100
AcDb2dPolyline
 66
     1
 10
0.0
 20
0.0
 30
0.0
  0
VERTEX
  5
336
330
335
100
AcDbEntity
  8
Ebene 1
 62
     7
420
 16777215
370
    25
100
AcDbVertex
100
AcDb2dVertex
 10
46.61666664629485
 20
-293.0388888424108
 30
0.0
  0
VERTEX
  5
337
330
335
100
AcDbEntity
  8
Ebene 1
 62
     7
420
 16777215
370
    25
100
AcDbVertex
100
AcDb2dVertex
 10
56.61666664629456
 20
-293.0388888424108
 30
0.0
  0
SEQEND
  5
338
330
335
100
AcDbEntity
  8
Ebene 1
 62
     7
420
 16777215
370
    25
  0
ENDBLK
  5
334
330
331
100
AcDbEntity
  8
0
100
AcDbBlockEnd
  0
BLOCK
  5
33B
330
339
100
AcDbEntity
  8
0
100
AcDbBlockBegin
  2
block 80
 70
     0
 10
0.0
 20
0.0
 30
0.0
  3
block 80
  1

  0
POLYLINE
  5
33D
330
339
100
AcDbEntity
  8
Ebene 1
 62
     7
420
 16777215
370
    25
100
AcDb2dPolyline
 66
     1
 10
0.0
 20
0.0
 30
0.0
  0
VERTEX
  5
33E
330
33D
100
AcDbEntity
  8
Ebene 1
 62
     7
420
 16777215
370
    25
100
AcDbVertex
100
AcDb2dVertex
 10
66.61666664629428
 20
-293.0388888424108
 30
0.0
  0
VERTEX
  5
33F
330
33D
100
AcDbEntity
  8
Ebene 1
 62
     7
420
 16777215
370
    25
100
AcDbVertex
100
AcDb2dVertex
 10
76.61666664629462
 20
-293.0388888424108
 30
0.0
  0
SEQEND
  5
340
330
33D
100
AcDbEntity
  8
Ebene 1
 62
     7
420
 16777215
370
    25
  0
ENDBLK
  5
33C
330
339
100
AcDbEntity
  8
0
100
AcDbBlockEnd
  0
BLOCK
  5
343
330
341
100
AcDbEntity
  8
0
100
AcDbBlockBegin
  2
block 81
 70
     0
 10
0.0
 20
0.0
 30
0.0
  3
block 81
  1

  0
POLYLINE
  5
345
330
341
100
AcDbEntity
  8
Ebene 1
 62
     7
420
 16777215
370
    25
100
AcDb2dPolyline
 66
     1
 10
0.0
 20
0.0
 30
0.0
  0
VERTEX
  5
346
330
345
100
AcDbEntity
  8
Ebene 1
 62
     7
420
 16777215
370
    25
100
AcDbVertex
100
AcDb2dVertex
 10
71.61666664629509
 20
-250.0388888424105
 30
0.0
  0
VERTEX
  5
347
330
345
100
AcDbEntity
  8
Ebene 1
 62
     7
420
 16777215
370
    25
100
AcDbVertex
100
AcDb2dVertex
 10
51.61666664629438
 20
-250.0388888424105
 30
0.0
  0
VERTEX
  5
348
330
345
100
AcDbEntity
  8
Ebene 1
 62
     7
420
 16777215
370
    25
100
AcDbVertex
100
AcDb2dVertex
 10
51.61666664629438
 20
-253.0388888424106
 30
0.0
  0
VERTEX
  5
349
330
345
100
AcDbEntity
  8
Ebene 1
 62
     7
420
 16777215
370
    25
100
AcDbVertex
100
AcDb2dVertex
 10
71.61666664629509
 20
-253.0388888424106
 30
0.0
  0
VERTEX
  5
34A
330
345
100
AcDbEntity
  8
Ebene 1
 62
     7
420
 16777215
370
    25
100
AcDbVertex
100
AcDb2dVertex
 10
71.61666664629509
 20
-250.0388888424105
 30
0.0
  0
SEQEND
  5
34B
330
345
100
AcDbEntity
  8
Ebene 1
 62
     7
420
 16777215
370
    25
  0
ENDBLK
  5
344
330
341
100
AcDbEntity
  8
0
100
AcDbBlockEnd
  0
BLOCK
  5
34E
330
34C
100
AcDbEntity
  8
0
100
AcDbBlockBegin
  2
block 82
 70
     0
 10
0.0
 20
0.0
 30
0.0
  3
block 82
  1

  0
POLYLINE
  5
350
330
34C
100
AcDbEntity
  8
Ebene 1
 62
     7
420
 16777215
370
    25
100
AcDb2dPolyline
 66
     1
 10
0.0
 20
0.0
 30
0.0
  0
VERTEX
  5
351
330
350
100
AcDbEntity
  8
Ebene 1
 62
     7
420
 16777215
370
    25
100
AcDbVertex
100
AcDb2dVertex
 10
111.6166666462946
 20
-250.0388888424105
 30
0.0
  0
VERTEX
  5
352
330
350
100
AcDbEntity
  8
Ebene 1
 62
     7
420
 16777215
370
    25
100
AcDbVertex
100
AcDb2dVertex
 10
91.61666664629452
 20
-250.0388888424105
 30
0.0
  0
VERTEX
  5
353
330
350
100
AcDbEntity
  8
Ebene 1
 62
     7
420
 16777215
370
    25
100
AcDbVertex
100
AcDb2dVertex
 10
91.61666664629452
 20
-253.0388888424106
 30
0.0
  0
VERTEX
  5
354
330
350
100
AcDbEntity
  8
Ebene 1
 62
     7
420
 16777215
370
    25
100
AcDbVertex
100
AcDb2dVertex
 10
111.6166666462946
 20
-253.0388888424106
 30
0.0
  0
VERTEX
  5
355
330
350
100
AcDbEntity
  8
Ebene 1
 62
     7
420
 16777215
370
    25
100
AcDbVertex
100
AcDb2dVertex
 10
111.6166666462946
 20
-250.0388888424105
 30
0.0
  0
SEQEND
  5
356
330
350
100
AcDbEntity
  8
Ebene 1
 62
     7
420
 16777215
370
    25
  0
ENDBLK
  5
34F
330
34C
100
AcDbEntity
  8
0
100
AcDbBlockEnd
  0
BLOCK
  5
359
330
357
100
AcDbEntity
  8
0
100
AcDbBlockBegin
  2
block 83
 70
     0
 10
0.0
 20
0.0
 30
0.0
  3
block 83
  1

  0
POLYLINE
  5
35B
330
357
100
AcDbEntity
  8
Ebene 1
 62
     7
420
 16777215
370
    25
100
AcDb2dPolyline
 66
     1
 10
0.0
 20
0.0
 30
0.0
  0
VERTEX
  5
35C
330
35B
100
AcDbEntity
  8
Ebene 1
 62
     7
420
 16777215
370
    25
100
AcDbVertex
100
AcDb2dVertex
 10
151.616666646294
 20
-250.0388888424105
 30
0.0
  0
VERTEX
  5
35D
330
35B
100
AcDbEntity
  8
Ebene 1
 62
     7
420
 16777215
370
    25
100
AcDbVertex
100
AcDb2dVertex
 10
131.6166666462946
 20
-250.0388888424105
 30
0.0
  0
VERTEX
  5
35E
330
35B
100
AcDbEntity
  8
Ebene 1
 62
     7
420
 16777215
370
    25
100
AcDbVertex
100
AcDb2dVertex
 10
131.6166666462946
 20
-253.0388888424106
 30
0.0
  0
VERTEX
  5
35F
330
35B
100
AcDbEntity
  8
Ebene 1
 62
     7
420
 16777215
370
    25
100
AcDbVertex
100
AcDb2dVertex
 10
151.616666646294
 20
-253.0388888424106
 30
0.0
  0
VERTEX
  5
360
330
35B
100
AcDbEntity
  8
Ebene 1
 62
     7
420
 16777215
370
    25
100
AcDbVertex
100
AcDb2dVertex
 10
151.616666646294
 20
-250.0388888424105
 30
0.0
  0
SEQEND
  5
361
330
35B
100
AcDbEntity
  8
Ebene 1
 62
     7
420
 16777215
370
    25
  0
ENDBLK
  5
35A
330
357
100
AcDbEntity
  8
0
100
AcDbBlockEnd
  0
BLOCK
  5
364
330
362
100
AcDbEntity
  8
0
100
AcDbBlockBegin
  2
block 84
 70
     0
 10
0.0
 20
0.0
 30
0.0
  3
block 84
  1

  0
POLYLINE
  5
366
330
362
100
AcDbEntity
  8
Ebene 1
 62
     7
420
 16777215
370
    25
100
AcDb2dPolyline
 66
     1
 10
0.0
 20
0.0
 30
0.0
  0
VERTEX
  5
367
330
366
100
AcDbEntity
  8
Ebene 1
 62
     7
420
 16777215
370
    25
100
AcDbVertex
100
AcDb2dVertex
 10
191.6166666462942
 20
-250.0388888424105
 30
0.0
  0
VERTEX
  5
368
330
366
100
AcDbEntity
  8
Ebene 1
 62
     7
420
 16777215
370
    25
100
AcDbVertex
100
AcDb2dVertex
 10
191.6166666462942
 20
-253.0388888424106
 30
0.0
  0
SEQEND
  5
369
330
366
100
AcDbEntity
  8
Ebene 1
 62
     7
420
 16777215
370
    25
  0
ENDBLK
  5
365
330
362
100
AcDbEntity
  8
0
100
AcDbBlockEnd
  0
BLOCK
  5
36C
330
36A
100
AcDbEntity
  8
0
100
AcDbBlockBegin
  2
block 85
 70
     0
 10
0.0
 20
0.0
 30
0.0
  3
block 85
  1

  0
SPLINE
  5
36E
330
36A
100
AcDbEntity
  8
Ebene 1
 62
     7
420
 16777215
370
    25
100
AcDbSpline
210
0.0
220
0.0
230
1.0
 70
    11
 71
     3
 72
    20
 73
    16
 74
     0
 42
0.0000000001
 43
0.0000000001
 12
1.0
 22
0.0
 32
0.0
 13
1.0
 23
0.0
 33
0.0
 40
0.0
 40
0.0
 40
0.0
 40
0.0
 40
1.0
 40
1.0
 40
1.0
 40
2.0
 40
2.0
 40
2.0
 40
3.0
 40
3.0
 40
3.0
 40
4.0
 40
4.0
 40
4.0
 40
5.0
 40
5.0
 40
5.0
 40
5.0
 10
52.61666664629506
 20
-281.038888842411
 30
0.0
 10
52.61666664629506
 20
-278.8297498430871
 30
0.0
 10
54.40752764697138
 20
-277.0388888424108
 30
0.0
 10
56.61666664629456
 20
-277.0388888424108
 30
0.0
 10
58.82580564561774
 20
-277.0388888424108
 30
0.0
 10
60.6166666462947
 20
-278.8297498430871
 30
0.0
 10
60.6166666462947
 20
-281.038888842411
 30
0.0
 10
60.6166666462947
 20
-283.2480278417335
 30
0.0
 10
58.82580564561774
 20
-285.0388888424105
 30
0.0
 10
56.61666664629456
 20
-285.0388888424105
 30
0.0
 10
54.40752764697138
 20
-285.0388888424105
 30
0.0
 10
52.61666664629506
 20
-283.2480278417335
 30
0.0
 10
52.61666664629506
 20
-281.038888842411
 30
0.0
 10
52.61666664629506
 20
-281.038888842411
 30
0.0
 10
52.61666664629506
 20
-281.038888842411
 30
0.0
 10
52.61666664629506
 20
-281.038888842411
 30
0.0
  0
ENDBLK
  5
36D
330
36A
100
AcDbEntity
  8
0
100
AcDbBlockEnd
  0
BLOCK
  5
371
330
36F
100
AcDbEntity
  8
0
100
AcDbBlockBegin
  2
block 86
 70
     0
 10
0.0
 20
0.0
 30
0.0
  3
block 86
  1

  0
SPLINE
  5
373
330
36F
100
AcDbEntity
  8
Ebene 1
 62
     7
420
 16777215
370
    25
100
AcDbSpline
210
0.0
220
0.0
230
1.0
 70
    11
 71
     3
 72
    20
 73
    16
 74
     0
 42
0.0000000001
 43
0.0000000001
 12
1.0
 22
0.0
 32
0.0
 13
1.0
 23
0.0
 33
0.0
 40
0.0
 40
0.0
 40
0.0
 40
0.0
 40
1.0
 40
1.0
 40
1.0
 40
2.0
 40
2.0
 40
2.0
 40
3.0
 40
3.0
 40
3.0
 40
4.0
 40
4.0
 40
4.0
 40
5.0
 40
5.0
 40
5.0
 40
5.0
 10
182.6166666462945
 20
-281.038888842411
 30
0.0
 10
182.6166666462945
 20
-278.8297498430871
 30
0.0
 10
184.4075276469708
 20
-277.0388888424108
 30
0.0
 10
186.6166666462946
 20
-277.0388888424108
 30
0.0
 10
188.8258056456172
 20
-277.0388888424108
 30
0.0
 10
190.6166666462948
 20
-278.8297498430871
 30
0.0
 10
190.6166666462948
 20
-281.038888842411
 30
0.0
 10
190.6166666462948
 20
-283.2480278417335
 30
0.0
 10
188.8258056456172
 20
-285.0388888424105
 30
0.0
 10
186.6166666462946
 20
-285.0388888424105
 30
0.0
 10
184.4075276469708
 20
-285.0388888424105
 30
0.0
 10
182.6166666462945
 20
-283.2480278417335
 30
0.0
 10
182.6166666462945
 20
-281.038888842411
 30
0.0
 10
182.6166666462945
 20
-281.038888842411
 30
0.0
 10
182.6166666462945
 20
-281.038888842411
 30
0.0
 10
182.6166666462945
 20
-281.038888842411
 30
0.0
  0
ENDBLK
  5
372
330
36F
100
AcDbEntity
  8
0
100
AcDbBlockEnd
  0
BLOCK
  5
376
330
374
100
AcDbEntity
  8
0
100
AcDbBlockBegin
  2
block 87
 70
     0
 10
0.0
 20
0.0
 30
0.0
  3
block 87
  1

  0
INSERT
  5
379
330
374
100
AcDbEntity
  8
Ebene 1
100
AcDbBlockReference
  2
block 88
 10
0.0
 20
0.0
 30
0.0
  0
INSERT
  5
381
330
374
100
AcDbEntity
  8
Ebene 1
100
AcDbBlockReference
  2
block 89
 10
0.0
 20
0.0
 30
0.0
  0
INSERT
  5
389
330
374
100
AcDbEntity
  8
Ebene 1
100
AcDbBlockReference
  2
block 90
 10
0.0
 20
0.0
 30
0.0
  0
INSERT
  5
391
330
374
100
AcDbEntity
  8
Ebene 1
100
AcDbBlockReference
  2
block 91
 10
0.0
 20
0.0
 30
0.0
  0
INSERT
  5
399
330
374
100
AcDbEntity
  8
Ebene 1
100
AcDbBlockReference
  2
block 92
 10
0.0
 20
0.0
 30
0.0
  0
INSERT
  5
3A1
330
374
100
AcDbEntity
  8
Ebene 1
100
AcDbBlockReference
  2
block 93
 10
0.0
 20
0.0
 30
0.0
  0
INSERT
  5
3A9
330
374
100
AcDbEntity
  8
Ebene 1
100
AcDbBlockReference
  2
block 94
 10
0.0
 20
0.0
 30
0.0
  0
INSERT
  5
3B1
330
374
100
AcDbEntity
  8
Ebene 1
100
AcDbBlockReference
  2
block 95
 10
0.0
 20
0.0
 30
0.0
  0
INSERT
  5
3B9
330
374
100
AcDbEntity
  8
Ebene 1
100
AcDbBlockReference
  2
block 96
 10
0.0
 20
0.0
 30
0.0
  0
INSERT
  5
3C1
330
374
100
AcDbEntity
  8
Ebene 1
100
AcDbBlockReference
  2
block 97
 10
0.0
 20
0.0
 30
0.0
  0
INSERT
  5
3C9
330
374
100
AcDbEntity
  8
Ebene 1
100
AcDbBlockReference
  2
block 98
 10
0.0
 20
0.0
 30
0.0
  0
INSERT
  5
3D1
330
374
100
AcDbEntity
  8
Ebene 1
100
AcDbBlockReference
  2
block 99
 10
0.0
 20
0.0
 30
0.0
  0
INSERT
  5
3D9
330
374
100
AcDbEntity
  8
Ebene 1
100
AcDbBlockReference
  2
block 100
 10
0.0
 20
0.0
 30
0.0
  0
INSERT
  5
3E1
330
374
100
AcDbEntity
  8
Ebene 1
100
AcDbBlockReference
  2
block 101
 10
0.0
 20
0.0
 30
0.0
  0
INSERT
  5
3E9
330
374
100
AcDbEntity
  8
Ebene 1
100
AcDbBlockReference
  2
block 102
 10
0.0
 20
0.0
 30
0.0
  0
INSERT
  5
3F1
330
374
100
AcDbEntity
  8
Ebene 1
100
AcDbBlockReference
  2
block 103
 10
0.0
 20
0.0
 30
0.0
  0
INSERT
  5
3F9
330
374
100
AcDbEntity
  8
Ebene 1
100
AcDbBlockReference
  2
block 104
 10
0.0
 20
0.0
 30
0.0
  0
INSERT
  5
401
330
374
100
AcDbEntity
  8
Ebene 1
100
AcDbBlockReference
  2
block 105
 10
0.0
 20
0.0
 30
0.0
  0
INSERT
  5
409
330
374
100
AcDbEntity
  8
Ebene 1
100
AcDbBlockReference
  2
block 106
 10
0.0
 20
0.0
 30
0.0
  0
INSERT
  5
411
330
374
100
AcDbEntity
  8
Ebene 1
100
AcDbBlockReference
  2
block 107
 10
0.0
 20
0.0
 30
0.0
  0
ENDBLK
  5
377
330
374
100
AcDbEntity
  8
0
100
AcDbBlockEnd
  0
BLOCK
  5
37A
330
378
100
AcDbEntity
  8
0
100
AcDbBlockBegin
  2
block 88
 70
     0
 10
0.0
 20
0.0
 30
0.0
  3
block 88
  1

  0
POLYLINE
  5
37C
330
378
100
AcDbEntity
  8
Ebene 1
 62
     7
420
 16777215
370
    25
100
AcDb2dPolyline
 66
     1
 10
0.0
 20
0.0
 30
0.0
  0
VERTEX
  5
37D
330
37C
100
AcDbEntity
  8
Ebene 1
 62
     7
420
 16777215
370
    25
100
AcDbVertex
100
AcDb2dVertex
 10
268.9444443872524
 20
-8.829380996656994
 30
0.0
  0
VERTEX
  5
37E
330
37C
100
AcDbEntity
  8
Ebene 1
 62
     7
420
 16777215
370
    25
100
AcDbVertex
100
AcDb2dVertex
 10
278.9444443872527
 20
-8.82938099845375
 30
0.0
  0
SEQEND
  5
37F
330
37C
100
AcDbEntity
  8
Ebene 1
 62
     7
420
 16777215
370
    25
  0
ENDBLK
  5
37B
330
378
100
AcDbEntity
  8
0
100
AcDbBlockEnd
  0
BLOCK
  5
382
330
380
100
AcDbEntity
  8
0
100
AcDbBlockBegin
  2
block 89
 70
     0
 10
0.0
 20
0.0
 30
0.0
  3
block 89
  1

  0
POLYLINE
  5
384
330
380
100
AcDbEntity
  8
Ebene 1
 62
     7
420
 16777215
370
    25
100
AcDb2dPolyline
 66
     1
 10
0.0
 20
0.0
 30
0.0
  0
VERTEX
  5
385
330
384
100
AcDbEntity
  8
Ebene 1
 62
     7
420
 16777215
370
    25
100
AcDbVertex
100
AcDb2dVertex
 10
278.9444443872527
 20
-8.82938099845375
 30
0.0
  0
VERTEX
  5
386
330
384
100
AcDbEntity
  8
Ebene 1
 62
     7
420
 16777215
370
    25
100
AcDbVertex
100
AcDb2dVertex
 10
278.9444443867137
 20
-11.82938099845322
 30
0.0
  0
SEQEND
  5
387
330
384
100
AcDbEntity
  8
Ebene 1
 62
     7
420
 16777215
370
    25
  0
ENDBLK
  5
383
330
380
100
AcDbEntity
  8
0
100
AcDbBlockEnd
  0
BLOCK
  5
38A
330
388
100
AcDbEntity
  8
0
100
AcDbBlockBegin
  2
block 90
 70
     0
 10
0.0
 20
0.0
 30
0.0
  3
block 90
  1

  0
POLYLINE
  5
38C
330
388
100
AcDbEntity
  8
Ebene 1
 62
     7
420
 16777215
370
    25
100
AcDb2dPolyline
 66
     1
 10
0.0
 20
0.0
 30
0.0
  0
VERTEX
  5
38D
330
38C
100
AcDbEntity
  8
Ebene 1
 62
     7
420
 16777215
370
    25
100
AcDbVertex
100
AcDb2dVertex
 10
268.9444443867133
 20
-11.8293809966571
 30
0.0
  0
VERTEX
  5
38E
330
38C
100
AcDbEntity
  8
Ebene 1
 62
     7
420
 16777215
370
    25
100
AcDbVertex
100
AcDb2dVertex
 10
268.9444443872524
 20
-8.829380996656994
 30
0.0
  0
SEQEND
  5
38F
330
38C
100
AcDbEntity
  8
Ebene 1
 62
     7
420
 16777215
370
    25
  0
ENDBLK
  5
38B
330
388
100
AcDbEntity
  8
0
100
AcDbBlockEnd
  0
BLOCK
  5
392
330
390
100
AcDbEntity
  8
0
100
AcDbBlockBegin
  2
block 91
 70
     0
 10
0.0
 20
0.0
 30
0.0
  3
block 91
  1

  0
POLYLINE
  5
394
330
390
100
AcDbEntity
  8
Ebene 1
 62
     7
420
 16777215
370
    25
100
AcDb2dPolyline
 66
     1
 10
0.0
 20
0.0
 30
0.0
  0
VERTEX
  5
395
330
394
100
AcDbEntity
  8
Ebene 1
 62
     7
420
 16777215
370
    25
100
AcDbVertex
100
AcDb2dVertex
 10
288.9444443872537
 20
-8.829381000248583
 30
0.0
  0
VERTEX
  5
396
330
394
100
AcDbEntity
  8
Ebene 1
 62
     7
420
 16777215
370
    25
100
AcDbVertex
100
AcDb2dVertex
 10
298.9444443872528
 20
-8.829381002045341
 30
0.0
  0
SEQEND
  5
397
330
394
100
AcDbEntity
  8
Ebene 1
 62
     7
420
 16777215
370
    25
  0
ENDBLK
  5
393
330
390
100
AcDbEntity
  8
0
100
AcDbBlockEnd
  0
BLOCK
  5
39A
330
398
100
AcDbEntity
  8
0
100
AcDbBlockBegin
  2
block 92
 70
     0
 10
0.0
 20
0.0
 30
0.0
  3
block 92
  1

  0
POLYLINE
  5
39C
330
398
100
AcDbEntity
  8
Ebene 1
 62
     7
420
 16777215
370
    25
100
AcDb2dPolyline
 66
     1
 10
0.0
 20
0.0
 30
0.0
  0
VERTEX
  5
39D
330
39C
100
AcDbEntity
  8
Ebene 1
 62
     7
420
 16777215
370
    25
100
AcDbVertex
100
AcDb2dVertex
 10
298.9444443872528
 20
-8.829381002045341
 30
0.0
  0
VERTEX
  5
39E
330
39C
100
AcDbEntity
  8
Ebene 1
 62
     7
420
 16777215
370
    25
100
AcDbVertex
100
AcDb2dVertex
 10
298.9444443867137
 20
-11.82938100204416
 30
0.0
  0
SEQEND
  5
39F
330
39C
100
AcDbEntity
  8
Ebene 1
 62
     7
420
 16777215
370
    25
  0
ENDBLK
  5
39B
330
398
100
AcDbEntity
  8
0
100
AcDbBlockEnd
  0
BLOCK
  5
3A2
330
3A0
100
AcDbEntity
  8
0
100
AcDbBlockBegin
  2
block 93
 70
     0
 10
0.0
 20
0.0
 30
0.0
  3
block 93
  1

  0
POLYLINE
  5
3A4
330
3A0
100
AcDbEntity
  8
Ebene 1
 62
     7
420
 16777215
370
    25
100
AcDb2dPolyline
 66
     1
 10
0.0
 20
0.0
 30
0.0
  0
VERTEX
  5
3A5
330
3A4
100
AcDbEntity
  8
Ebene 1
 62
     7
420
 16777215
370
    25
100
AcDbVertex
100
AcDb2dVertex
 10
288.9444443867147
 20
-11.82938100024805
 30
0.0
  0
VERTEX
  5
3A6
330
3A4
100
AcDbEntity
  8
Ebene 1
 62
     7
420
 16777215
370
    25
100
AcDbVertex
100
AcDb2dVertex
 10
288.9444443872537
 20
-8.829381000248583
 30
0.0
  0
SEQEND
  5
3A7
330
3A4
100
AcDbEntity
  8
Ebene 1
 62
     7
420
 16777215
370
    25
  0
ENDBLK
  5
3A3
330
3A0
100
AcDbEntity
  8
0
100
AcDbBlockEnd
  0
BLOCK
  5
3AA
330
3A8
100
AcDbEntity
  8
0
100
AcDbBlockBegin
  2
block 94
 70
     0
 10
0.0
 20
0.0
 30
0.0
  3
block 94
  1

  0
POLYLINE
  5
3AC
330
3A8
100
AcDbEntity
  8
Ebene 1
 62
     7
420
 16777215
370
    25
100
AcDb2dPolyline
 66
     1
 10
0.0
 20
0.0
 30
0.0
  0
VERTEX
  5
3AD
330
3AC
100
AcDbEntity
  8
Ebene 1
 62
     7
420
 16777215
370
    25
100
AcDbVertex
100
AcDb2dVertex
 10
298.9444443867137
 20
-11.82938100204416
 30
0.0
  0
VERTEX
  5
3AE
330
3AC
100
AcDbEntity
  8
Ebene 1
 62
     7
420
 16777215
370
    25
100
AcDbVertex
100
AcDb2dVertex
 10
298.9444443617517
 20
-150.8293810020436
 30
0.0
  0
SEQEND
  5
3AF
330
3AC
100
AcDbEntity
  8
Ebene 1
 62
     7
420
 16777215
370
    25
  0
ENDBLK
  5
3AB
330
3A8
100
AcDbEntity
  8
0
100
AcDbBlockEnd
  0
BLOCK
  5
3B2
330
3B0
100
AcDbEntity
  8
0
100
AcDbBlockBegin
  2
block 95
 70
     0
 10
0.0
 20
0.0
 30
0.0
  3
block 95
  1

  0
POLYLINE
  5
3B4
330
3B0
100
AcDbEntity
  8
Ebene 1
 62
     7
420
 16777215
370
    25
100
AcDb2dPolyline
 66
     1
 10
0.0
 20
0.0
 30
0.0
  0
VERTEX
  5
3B5
330
3B4
100
AcDbEntity
  8
Ebene 1
 62
     7
420
 16777215
370
    25
100
AcDbVertex
100
AcDb2dVertex
 10
258.9444443622912
 20
-147.8293809948613
 30
0.0
  0
VERTEX
  5
3B6
330
3B4
100
AcDbEntity
  8
Ebene 1
 62
     7
420
 16777215
370
    25
100
AcDbVertex
100
AcDb2dVertex
 10
258.9444443867143
 20
-11.82938099486098
 30
0.0
  0
SEQEND
  5
3B7
330
3B4
100
AcDbEntity
  8
Ebene 1
 62
     7
420
 16777215
370
    25
  0
ENDBLK
  5
3B3
330
3B0
100
AcDbEntity
  8
0
100
AcDbBlockEnd
  0
BLOCK
  5
3BA
330
3B8
100
AcDbEntity
  8
0
100
AcDbBlockBegin
  2
block 96
 70
     0
 10
0.0
 20
0.0
 30
0.0
  3
block 96
  1

  0
POLYLINE
  5
3BC
330
3B8
100
AcDbEntity
  8
Ebene 1
 62
     7
420
 16777215
370
    25
100
AcDb2dPolyline
 66
     1
 10
0.0
 20
0.0
 30
0.0
  0
VERTEX
  5
3BD
330
3BC
100
AcDbEntity
  8
Ebene 1
 62
     7
420
 16777215
370
    25
100
AcDbVertex
100
AcDb2dVertex
 10
268.9444443617525
 20
-150.8293809966572
 30
0.0
  0
VERTEX
  5
3BE
330
3BC
100
AcDbEntity
  8
Ebene 1
 62
     7
420
 16777215
370
    25
100
AcDbVertex
100
AcDb2dVertex
 10
278.9444443617516
 20
-150.8293809984527
 30
0.0
  0
SEQEND
  5
3BF
330
3BC
100
AcDbEntity
  8
Ebene 1
 62
     7
420
 16777215
370
    25
  0
ENDBLK
  5
3BB
330
3B8
100
AcDbEntity
  8
0
100
AcDbBlockEnd
  0
BLOCK
  5
3C2
330
3C0
100
AcDbEntity
  8
0
100
AcDbBlockBegin
  2
block 97
 70
     0
 10
0.0
 20
0.0
 30
0.0
  3
block 97
  1

  0
POLYLINE
  5
3C4
330
3C0
100
AcDbEntity
  8
Ebene 1
 62
     7
420
 16777215
370
    25
100
AcDb2dPolyline
 66
     1
 10
0.0
 20
0.0
 30
0.0
  0
VERTEX
  5
3C5
330
3C4
100
AcDbEntity
  8
Ebene 1
 62
     7
420
 16777215
370
    25
100
AcDbVertex
100
AcDb2dVertex
 10
278.9444443617516
 20
-150.8293809984527
 30
0.0
  0
VERTEX
  5
3C6
330
3C4
100
AcDbEntity
  8
Ebene 1
 62
     7
420
 16777215
370
    25
100
AcDbVertex
100
AcDb2dVertex
 10
278.9444443622906
 20
-147.8293809984535
 30
0.0
  0
SEQEND
  5
3C7
330
3C4
100
AcDbEntity
  8
Ebene 1
 62
     7
420
 16777215
370
    25
  0
ENDBLK
  5
3C3
330
3C0
100
AcDbEntity
  8
0
100
AcDbBlockEnd
  0
BLOCK
  5
3CA
330
3C8
100
AcDbEntity
  8
0
100
AcDbBlockBegin
  2
block 98
 70
     0
 10
0.0
 20
0.0
 30
0.0
  3
block 98
  1

  0
POLYLINE
  5
3CC
330
3C8
100
AcDbEntity
  8
Ebene 1
 62
     7
420
 16777215
370
    25
100
AcDb2dPolyline
 66
     1
 10
0.0
 20
0.0
 30
0.0
  0
VERTEX
  5
3CD
330
3CC
100
AcDbEntity
  8
Ebene 1
 62
     7
420
 16777215
370
    25
100
AcDbVertex
100
AcDb2dVertex
 10
268.9444443622916
 20
-147.829380996658
 30
0.0
  0
VERTEX
  5
3CE
330
3CC
100
AcDbEntity
  8
Ebene 1
 62
     7
420
 16777215
370
    25
100
AcDbVertex
100
AcDb2dVertex
 10
268.9444443617525
 20
-150.8293809966572
 30
0.0
  0
SEQEND
  5
3CF
330
3CC
100
AcDbEntity
  8
Ebene 1
 62
     7
420
 16777215
370
    25
  0
ENDBLK
  5
3CB
330
3C8
100
AcDbEntity
  8
0
100
AcDbBlockEnd
  0
BLOCK
  5
3D2
330
3D0
100
AcDbEntity
  8
0
100
AcDbBlockBegin
  2
block 99
 70
     0
 10
0.0
 20
0.0
 30
0.0
  3
block 99
  1

  0
POLYLINE
  5
3D4
330
3D0
100
AcDbEntity
  8
Ebene 1
 62
     7
420
 16777215
370
    25
100
AcDb2dPolyline
 66
     1
 10
0.0
 20
0.0
 30
0.0
  0
VERTEX
  5
3D5
330
3D4
100
AcDbEntity
  8
Ebene 1
 62
     7
420
 16777215
370
    25
100
AcDbVertex
100
AcDb2dVertex
 10
298.9444443622907
 20
-147.8293810020445
 30
0.0
  0
VERTEX
  5
3D6
330
3D4
100
AcDbEntity
  8
Ebene 1
 62
     7
420
 16777215
370
    25
100
AcDbVertex
100
AcDb2dVertex
 10
298.9444443617517
 20
-150.8293810020436
 30
0.0
  0
SEQEND
  5
3D7
330
3D4
100
AcDbEntity
  8
Ebene 1
 62
     7
420
 16777215
370
    25
  0
ENDBLK
  5
3D3
330
3D0
100
AcDbEntity
  8
0
100
AcDbBlockEnd
  0
BLOCK
  5
3DA
330
3D8
100
AcDbEntity
  8
0
100
AcDbBlockBegin
  2
block 100
 70
     0
 10
0.0
 20
0.0
 30
0.0
  3
block 100
  1

  0
POLYLINE
  5
3DC
330
3D8
100
AcDbEntity
  8
Ebene 1
 62
     7
420
 16777215
370
    25
100
AcDb2dPolyline
 66
     1
 10
0.0
 20
0.0
 30
0.0
  0
VERTEX
  5
3DD
330
3DC
100
AcDbEntity
  8
Ebene 1
 62
     7
420
 16777215
370
    25
100
AcDbVertex
100
AcDb2dVertex
 10
298.9444443617517
 20
-150.8293810020436
 30
0.0
  0
VERTEX
  5
3DE
330
3DC
100
AcDbEntity
  8
Ebene 1
 62
     7
420
 16777215
370
    25
100
AcDbVertex
100
AcDb2dVertex
 10
288.9444443617526
 20
-150.8293810002481
 30
0.0
  0
SEQEND
  5
3DF
330
3DC
100
AcDbEntity
  8
Ebene 1
 62
     7
420
 16777215
370
    25
  0
ENDBLK
  5
3DB
330
3D8
100
AcDbEntity
  8
0
100
AcDbBlockEnd
  0
BLOCK
  5
3E2
330
3E0
100
AcDbEntity
  8
0
100
AcDbBlockBegin
  2
block 101
 70
     0
 10
0.0
 20
0.0
 30
0.0
  3
block 101
  1

  0
POLYLINE
  5
3E4
330
3E0
100
AcDbEntity
  8
Ebene 1
 62
     7
420
 16777215
370
    25
100
AcDb2dPolyline
 66
     1
 10
0.0
 20
0.0
 30
0.0
  0
VERTEX
  5
3E5
330
3E4
100
AcDbEntity
  8
Ebene 1
 62
     7
420
 16777215
370
    25
100
AcDbVertex
100
AcDb2dVertex
 10
288.9444443617526
 20
-150.8293810002481
 30
0.0
  0
VERTEX
  5
3E6
330
3E4
100
AcDbEntity
  8
Ebene 1
 62
     7
420
 16777215
370
    25
100
AcDbVertex
100
AcDb2dVertex
 10
288.9444443622916
 20
-147.829381000249
 30
0.0
  0
SEQEND
  5
3E7
330
3E4
100
AcDbEntity
  8
Ebene 1
 62
     7
420
 16777215
370
    25
  0
ENDBLK
  5
3E3
330
3E0
100
AcDbEntity
  8
0
100
AcDbBlockEnd
  0
BLOCK
  5
3EA
330
3E8
100
AcDbEntity
  8
0
100
AcDbBlockBegin
  2
block 102
 70
     0
 10
0.0
 20
0.0
 30
0.0
  3
block 102
  1

  0
POLYLINE
  5
3EC
330
3E8
100
AcDbEntity
  8
Ebene 1
 62
     7
420
 16777215
370
    25
100
AcDb2dPolyline
 66
     1
 10
0.0
 20
0.0
 30
0.0
  0
VERTEX
  5
3ED
330
3EC
100
AcDbEntity
  8
Ebene 1
 62
     7
420
 16777215
370
    25
100
AcDbVertex
100
AcDb2dVertex
 10
268.9444443622916
 20
-147.829380996658
 30
0.0
  0
VERTEX
  5
3EE
330
3EC
100
AcDbEntity
  8
Ebene 1
 62
     7
420
 16777215
370
    25
100
AcDbVertex
100
AcDb2dVertex
 10
258.9444443622912
 20
-147.8293809948613
 30
0.0
  0
SEQEND
  5
3EF
330
3EC
100
AcDbEntity
  8
Ebene 1
 62
     7
420
 16777215
370
    25
  0
ENDBLK
  5
3EB
330
3E8
100
AcDbEntity
  8
0
100
AcDbBlockEnd
  0
BLOCK
  5
3F2
330
3F0
100
AcDbEntity
  8
0
100
AcDbBlockBegin
  2
block 103
 70
     0
 10
0.0
 20
0.0
 30
0.0
  3
block 103
  1

  0
POLYLINE
  5
3F4
330
3F0
100
AcDbEntity
  8
Ebene 1
 62
     7
420
 16777215
370
    25
100
AcDb2dPolyline
 66
     1
 10
0.0
 20
0.0
 30
0.0
  0
VERTEX
  5
3F5
330
3F4
100
AcDbEntity
  8
Ebene 1
 62
     7
420
 16777215
370
    25
100
AcDbVertex
100
AcDb2dVertex
 10
278.9444443622906
 20
-147.8293809984535
 30
0.0
  0
VERTEX
  5
3F6
330
3F4
100
AcDbEntity
  8
Ebene 1
 62
     7
420
 16777215
370
    25
100
AcDbVertex
100
AcDb2dVertex
 10
288.9444443622916
 20
-147.829381000249
 30
0.0
  0
SEQEND
  5
3F7
330
3F4
100
AcDbEntity
  8
Ebene 1
 62
     7
420
 16777215
370
    25
  0
ENDBLK
  5
3F3
330
3F0
100
AcDbEntity
  8
0
100
AcDbBlockEnd
  0
BLOCK
  5
3FA
330
3F8
100
AcDbEntity
  8
0
100
AcDbBlockBegin
  2
block 104
 70
     0
 10
0.0
 20
0.0
 30
0.0
  3
block 104
  1

  0
POLYLINE
  5
3FC
330
3F8
100
AcDbEntity
  8
Ebene 1
 62
     7
420
 16777215
370
    25
100
AcDb2dPolyline
 66
     1
 10
0.0
 20
0.0
 30
0.0
  0
VERTEX
  5
3FD
330
3FC
100
AcDbEntity
  8
Ebene 1
 62
     7
420
 16777215
370
    25
100
AcDbVertex
100
AcDb2dVertex
 10
298.9444443617517
 20
-150.8293810020436
 30
0.0
  0
VERTEX
  5
3FE
330
3FC
100
AcDbEntity
  8
Ebene 1
 62
     7
420
 16777215
370
    25
100
AcDbVertex
100
AcDb2dVertex
 10
288.9444443617526
 20
-150.8293810002481
 30
0.0
  0
SEQEND
  5
3FF
330
3FC
100
AcDbEntity
  8
Ebene 1
 62
     7
420
 16777215
370
    25
  0
ENDBLK
  5
3FB
330
3F8
100
AcDbEntity
  8
0
100
AcDbBlockEnd
  0
BLOCK
  5
402
330
400
100
AcDbEntity
  8
0
100
AcDbBlockBegin
  2
block 105
 70
     0
 10
0.0
 20
0.0
 30
0.0
  3
block 105
  1

  0
POLYLINE
  5
404
330
400
100
AcDbEntity
  8
Ebene 1
 62
     7
420
 16777215
370
    25
100
AcDb2dPolyline
 66
     1
 10
0.0
 20
0.0
 30
0.0
  0
VERTEX
  5
405
330
404
100
AcDbEntity
  8
Ebene 1
 62
     7
420
 16777215
370
    25
100
AcDbVertex
100
AcDb2dVertex
 10
278.9444443617516
 20
-150.8293809984527
 30
0.0
  0
VERTEX
  5
406
330
404
100
AcDbEntity
  8
Ebene 1
 62
     7
420
 16777215
370
    25
100
AcDbVertex
100
AcDb2dVertex
 10
268.9444443617525
 20
-150.8293809966572
 30
0.0
  0
SEQEND
  5
407
330
404
100
AcDbEntity
  8
Ebene 1
 62
     7
420
 16777215
370
    25
  0
ENDBLK
  5
403
330
400
100
AcDbEntity
  8
0
100
AcDbBlockEnd
  0
BLOCK
  5
40A
330
408
100
AcDbEntity
  8
0
100
AcDbBlockBegin
  2
block 106
 70
     0
 10
0.0
 20
0.0
 30
0.0
  3
block 106
  1

  0
POLYLINE
  5
40C
330
408
100
AcDbEntity
  8
Ebene 1
 62
     7
420
 16777215
370
    25
100
AcDb2dPolyline
 66
     1
 10
0.0
 20
0.0
 30
0.0
  0
VERTEX
  5
40D
330
40C
100
AcDbEntity
  8
Ebene 1
 62
     7
420
 16777215
370
    25
100
AcDbVertex
100
AcDb2dVertex
 10
258.9444443867143
 20
-11.82938099486098
 30
0.0
  0
VERTEX
  5
40E
330
40C
100
AcDbEntity
  8
Ebene 1
 62
     7
420
 16777215
370
    25
100
AcDbVertex
100
AcDb2dVertex
 10
268.9444443867133
 20
-11.8293809966571
 30
0.0
  0
SEQEND
  5
40F
330
40C
100
AcDbEntity
  8
Ebene 1
 62
     7
420
 16777215
370
    25
  0
ENDBLK
  5
40B
330
408
100
AcDbEntity
  8
0
100
AcDbBlockEnd
  0
BLOCK
  5
412
330
410
100
AcDbEntity
  8
0
100
AcDbBlockBegin
  2
block 107
 70
     0
 10
0.0
 20
0.0
 30
0.0
  3
block 107
  1

  0
POLYLINE
  5
414
330
410
100
AcDbEntity
  8
Ebene 1
 62
     7
420
 16777215
370
    25
100
AcDb2dPolyline
 66
     1
 10
0.0
 20
0.0
 30
0.0
  0
VERTEX
  5
415
330
414
100
AcDbEntity
  8
Ebene 1
 62
     7
420
 16777215
370
    25
100
AcDbVertex
100
AcDb2dVertex
 10
278.9444443867137
 20
-11.82938099845322
 30
0.0
  0
VERTEX
  5
416
330
414
100
AcDbEntity
  8
Ebene 1
 62
     7
420
 16777215
370
    25
100
AcDbVertex
100
AcDb2dVertex
 10
288.9444443867147
 20
-11.82938100024805
 30
0.0
  0
SEQEND
  5
417
330
414
100
AcDbEntity
  8
Ebene 1
 62
     7
420
 16777215
370
    25
  0
ENDBLK
  5
413
330
410
100
AcDbEntity
  8
0
100
AcDbBlockEnd
  0
ENDSEC
  0
SECTION
  2
ENTITIES
  0
INSERT
  5
42
330
1F
100
AcDbEntity
  8
Ebene 1
100
AcDbBlockReference
  2
block 2
 10
0.0
 20
0.0
 30
0.0
  0
INSERT
  5
E6
330
1F
100
AcDbEntity
  8
Ebene 1
100
AcDbBlockReference
  2
block 23
 10
0.0
 20
0.0
 30
0.0
  0
INSERT
  5
126
330
1F
100
AcDbEntity
  8
Ebene 1
100
AcDbBlockReference
  2
block 27
 10
0.0
 20
0.0
 30
0.0
  0
INSERT
  5
22E
330
1F
100
AcDbEntity
  8
Ebene 1
100
AcDbBlockReference
  2
block 55
 10
0.0
 20
0.0
 30
0.0
  0
INSERT
  5
26E
330
1F
100
AcDbEntity
  8
Ebene 1
100
AcDbBlockReference
  2
block 59
 10
0.0
 20
0.0
 30
0.0
  0
INSERT
  5
375
330
1F
100
AcDbEntity
  8
Ebene 1
100
AcDbBlockReference
  2
block 87
 10
0.0
 20
0.0
 30
0.0
  0
ENDSEC
  0
SECTION
  2
OBJECTS
  0
DICTIONARY
  5
C
330
0
100
AcDbDictionary
281
     1
  3
ACAD_GROUP
350
D
  3
ACAD_LAYOUT
350
1A
  3
ACAD_MATERIAL
350
3B
  3
ACAD_MLEADERSTYLE
350
41A
  3
ACAD_MLINESTYLE
350
17
  3
ACAD_PLOTSETTINGS
350
19
  3
ACAD_PLOTSTYLENAME
350
E
  3
ACAD_TABLESTYLE
350
419
  3
ACAD_VISUALSTYLE
350
2A
  0
SUN
  5
3F
330
29
100
AcDbSun
 90
        1
290
     0
 63
     7
421
 16777215
 40
1.0
291
     1
 91
  2455826
 92
 54000000
292
     0
 70
     2
 71
   256
280
     1
  0
DICTIONARY
  5
D
102
{ACAD_REACTORS
330
C
102
}
330
C
100
AcDbDictionary
281
     1
  0
DICTIONARY
  5
1A
102
{ACAD_REACTORS
330
C
102
}
330
C
100
AcDbDictionary
281
     1
  3
Layout1
350
1E
  3
Layout2
350
26
  3
Model
350
22
  0
DICTIONARY
  5
3B
102
{ACAD_REACTORS
330
C
102
}
330
C
100
AcDbDictionary
281
     1
  3
ByBlock
350
3D
  3
ByLayer
350
3C
  3
Global
350
3E
  0
DICTIONARY
  5
41A
102
{ACAD_REACTORS
330
C
102
}
330
C
100
AcDbDictionary
281
     1
  0
DICTIONARY
  5
17
102
{ACAD_REACTORS
330
C
102
}
330
C
100
AcDbDictionary
281
     1
  3
Standard
350
18
  0
DICTIONARY
  5
19
102
{ACAD_REACTORS
330
C
102
}
330
C
100
AcDbDictionary
281
     1
  0
ACDBDICTIONARYWDFLT
  5
E
102
{ACAD_REACTORS
330
C
102
}
330
C
100
AcDbDictionary
281
     1
  3
Normal
350
F
100
AcDbDictionaryWithDefault
340
F
  0
DICTIONARY
  5
419
102
{ACAD_REACTORS
330
C
102
}
330
C
100
AcDbDictionary
281
     1
  0
DICTIONARY
  5
2A
102
{ACAD_REACTORS
330
C
102
}
330
C
100
AcDbDictionary
281
     1
  3
2dWireframe
350
2F
  3
3D Hidden
350
31
  3
3dWireframe
350
30
  3
Basic
350
32
  3
Brighten
350
36
  3
ColorChange
350
3A
  3
Conceptual
350
34
  3
Dim
350
35
  3
Facepattern
350
39
  3
Flat
350
2B
  3
FlatWithEdges
350
2C
  3
Gouraud
350
2D
  3
GouraudWithEdges
350
2E
  3
Linepattern
350
38
  3
Realistic
350
33
  3
Thicken
350
37
  0
LAYOUT
  5
1E
102
{ACAD_REACTORS
330
1A
102
}
330
1A
100
AcDbPlotSettings
  1

  2
none_device
  4

  6

 40
0.0
 41
0.0
 42
0.0
 43
0.0
 44
0.0
 45
0.0
 46
0.0
 47
0.0
 48
0.0
 49
0.0
140
0.0
141
0.0
142
1.0
143
1.0
 70
   688
 72
     0
 73
     0
 74
     5
  7

 75
    16
 76
     0
 77
     2
 78
   300
147
1.0
148
0.0
149
0.0
100
AcDbLayout
  1
Layout1
 70
     1
 71
     1
 10
0.0
 20
0.0
 11
12.0
 21
9.0
 12
0.0
 22
0.0
 32
0.0
 14
1.000000000000000E+20
 24
1.000000000000000E+20
 34
1.000000000000000E+20
 15
-1.000000000000000E+20
 25
-1.000000000000000E+20
 35
-1.000000000000000E+20
146
0.0
 13
0.0
 23
0.0
 33
0.0
 16
1.0
 26
0.0
 36
0.0
 17
0.0
 27
1.0
 37
0.0
 76
     0
330
1B
  0
LAYOUT
  5
26
102
{ACAD_REACTORS
330
1A
102
}
330
1A
100
AcDbPlotSettings
  1

  2
none_device
  4

  6

 40
0.0
 41
0.0
 42
0.0
 43
0.0
 44
0.0
 45
0.0
 46
0.0
 47
0.0
 48
0.0
 49
0.0
140
0.0
141
0.0
142
1.0
143
1.0
 70
   688
 72
     0
 73
     0
 74
     5
  7

 75
    16
 76
     0
 77
     2
 78
   300
147
1.0
148
0.0
149
0.0
100
AcDbLayout
  1
Layout2
 70
     1
 71
     2
 10
0.0
 20
0.0
 11
0.0
 21
0.0
 12
0.0
 22
0.0
 32
0.0
 14
0.0
 24
0.0
 34
0.0
 15
0.0
 25
0.0
 35
0.0
146
0.0
 13
0.0
 23
0.0
 33
0.0
 16
1.0
 26
0.0
 36
0.0
 17
0.0
 27
1.0
 37
0.0
 76
     0
330
23
  0
LAYOUT
  5
22
102
{ACAD_REACTORS
330
1A
102
}
330
1A
100
AcDbPlotSettings
  1

  2
none_device
  4

  6

 40
0.0
 41
0.0
 42
0.0
 43
0.0
 44
0.0
 45
0.0
 46
0.0
 47
0.0
 48
0.0
 49
0.0
140
0.0
141
0.0
142
1.0
143
1.0
 70
  1712
 72
     0
 73
     0
 74
     0
  7

 75
     0
 76
     0
 77
     2
 78
   300
147
1.0
148
0.0
149
0.0
100
AcDbLayout
  1
Model
 70
     1
 71
     0
 10
0.0
 20
0.0
 11
12.0
 21
9.0
 12
0.0
 22
0.0
 32
0.0
 14
1.000000000000000E+20
 24
1.000000000000000E+20
 34
1.000000000000000E+20
 15
-1.000000000000000E+20
 25
-1.000000000000000E+20
 35
-1.000000000000000E+20
146
0.0
 13
0.0
 23
0.0
 33
0.0
 16
1.0
 26
0.0
 36
0.0
 17
0.0
 27
1.0
 37
0.0
 76
     0
330
1F
331
29
  0
MATERIAL
  5
3D
102
{ACAD_REACTORS
330
3B
102
}
330
3B
100
AcDbMaterial
  1
ByBlock
 72
     1
 94
      127
  0
MATERIAL
  5
3C
102
{ACAD_REACTORS
330
3B
102
}
330
3B
100
AcDbMaterial
  1
ByLayer
 72
     1
 94
      127
  0
MATERIAL
  5
3E
102
{ACAD_REACTORS
330
3B
102
}
330
3B
100
AcDbMaterial
  1
Global
 72
     1
 94
      127
  0
MLINESTYLE
  5
18
102
{ACAD_REACTORS
330
17
102
}
330
17
100
AcDbMlineStyle
  2
Standard
 70
     0
  3

 62
   256
 51
90.0
 52
90.0
 71
     2
 49
0.5
 62
   256
  6
BYLAYER
 49
-0.5
 62
   256
  6
BYLAYER
  0
ACDBPLACEHOLDER
  5
F
102
{ACAD_REACTORS
330
E
102
}
330
E
  0
VISUALSTYLE
  5
2F
102
{ACAD_REACTORS
330
2A
102
}
330
2A
100
AcDbVisualStyle
  2
2dWireframe
 70
     4
177
     2
291
     0
 71
     0
176
     1
 72
     2
176
     1
 73
     0
176
     1
 90
        0
176
     1
 40
-0.6
176
     1
 41
-30.0
176
     1
 62
     5
 63
     7
421
 16777215
176
     1
 74
     1
176
     1
 91
        4
176
     1
 64
     7
176
     1
 65
   257
176
     1
 75
     1
176
     1
175
     1
176
     1
 42
1.0
176
     1
 92
        0
176
     1
 66
   257
176
     1
 43
1.0
176
     1
 76
     1
176
     1
 77
     6
176
     1
 78
     2
176
     1
 67
     7
176
     1
 79
     5
176
     1
170
     0
176
     1
171
     0
176
     1
290
     0
176
     1
 93
        1
176
     1
 44
0.0
176
     1
173
     0
176
     1
  0
VISUALSTYLE
  5
31
102
{ACAD_REACTORS
330
2A
102
}
330
2A
100
AcDbVisualStyle
  2
3D Hidden
 70
     6
177
     2
291
     0
 71
     1
176
     1
 72
     2
176
     1
 73
     2
176
     1
 90
        0
176
     1
 40
-0.6
176
     1
 41
-30.0
176
     1
 62
     5
 63
     7
421
 16777215
176
     1
 74
     2
176
     1
 91
        2
176
     1
 64
     7
176
     1
 65
   257
176
     1
 75
     2
176
     1
175
     1
176
     1
 42
40.0
176
     1
 92
        0
176
     1
 66
   257
176
     1
 43
1.0
176
     1
 76
     1
176
     1
 77
     6
176
     1
 78
     2
176
     1
 67
     7
176
     1
 79
     3
176
     1
170
     0
176
     1
171
     0
176
     1
290
     0
176
     1
 93
        1
176
     1
 44
0.0
176
     1
173
     0
176
     1
  0
VISUALSTYLE
  5
30
102
{ACAD_REACTORS
330
2A
102
}
330
2A
100
AcDbVisualStyle
  2
3dWireframe
 70
     5
177
     2
291
     0
 71
     0
176
     1
 72
     2
176
     1
 73
     0
176
     1
 90
        0
176
     1
 40
-0.6
176
     1
 41
-30.0
176
     1
 62
     5
 63
     7
421
 16777215
176
     1
 74
     1
176
     1
 91
        4
176
     1
 64
     7
176
     1
 65
   257
176
     1
 75
     1
176
     1
175
     1
176
     1
 42
1.0
176
     1
 92
        0
176
     1
 66
   257
176
     1
 43
1.0
176
     1
 76
     1
176
     1
 77
     6
176
     1
 78
     2
176
     1
 67
     7
176
     1
 79
     5
176
     1
170
     0
176
     1
171
     0
176
     1
290
     0
176
     1
 93
        1
176
     1
 44
0.0
176
     1
173
     0
176
     1
  0
VISUALSTYLE
  5
32
102
{ACAD_REACTORS
330
2A
102
}
330
2A
100
AcDbVisualStyle
  2
Basic
 70
     7
177
     2
291
     1
 71
     1
176
     1
 72
     0
176
     1
 73
     1
176
     1
 90
        0
176
     1
 40
-0.6
176
     1
 41
-30.0
176
     1
 62
     5
 63
     7
421
 16777215
176
     1
 74
     0
176
     1
 91
        4
176
     1
 64
     7
176
     1
 65
   257
176
     1
 75
     1
176
     1
175
     1
176
     1
 42
1.0
176
     1
 92
        8
176
     1
 66
     7
176
     1
 43
1.0
176
     1
 76
     1
176
     1
 77
     6
176
     1
 78
     2
176
     1
 67
     7
176
     1
 79
     5
176
     1
170
     0
176
     1
171
     0
176
     1
290
     0
176
     1
 93
        1
176
     1
 44
0.0
176
     1
173
     0
176
     1
  0
VISUALSTYLE
  5
36
102
{ACAD_REACTORS
330
2A
102
}
330
2A
100
AcDbVisualStyle
  2
Brighten
 70
    12
177
     2
291
     1
 71
     2
176
     1
 72
     2
176
     1
 73
     0
176
     1
 90
        0
176
     1
 40
-0.6
176
     1
 41
-30.0
176
     1
 62
     5
 63
     7
421
 16777215
176
     1
 74
     1
176
     1
 91
        4
176
     1
 64
     7
176
     1
 65
   257
176
     1
 75
     1
176
     1
175
     1
176
     1
 42
1.0
176
     1
 92
        8
176
     1
 66
     7
176
     1
 43
1.0
176
     1
 76
     1
176
     1
 77
     6
176
     1
 78
     2
176
     1
 67
     7
176
     1
 79
     5
176
     1
170
     0
176
     1
171
     0
176
     1
290
     0
176
     1
 93
        1
176
     1
 44
50.0
176
     1
173
     0
176
     1
  0
VISUALSTYLE
  5
3A
102
{ACAD_REACTORS
330
2A
102
}
330
2A
100
AcDbVisualStyle
  2
ColorChange
 70
    16
177
     2
291
     1
 71
     2
176
     1
 72
     2
176
     1
 73
     3
176
     1
 90
        0
176
     1
 40
-0.6
176
     1
 41
-30.0
176
     1
 62
     5
 63
     8
421
  8421504
176
     1
 74
     1
176
     1
 91
        4
176
     1
 64
     7
176
     1
 65
   257
176
     1
 75
     1
176
     1
175
     1
176
     1
 42
1.0
176
     1
 92
        8
176
     1
 66
     8
424
  8421504
176
     1
 43
1.0
176
     1
 76
     1
176
     1
 77
     6
176
     1
 78
     2
176
     1
 67
     7
176
     1
 79
     5
176
     1
170
     0
176
     1
171
     0
176
     1
290
     0
176
     1
 93
        1
176
     1
 44
0.0
176
     1
173
     0
176
     1
  0
VISUALSTYLE
  5
34
102
{ACAD_REACTORS
330
2A
102
}
330
2A
100
AcDbVisualStyle
  2
Conceptual
 70
     9
177
     2
291
     0
 71
     3
176
     1
 72
     2
176
     1
 73
     0
176
     1
 90
        0
176
     1
 40
-0.6
176
     1
 41
-30.0
176
     1
 62
     5
 63
     7
421
 16777215
176
     1
 74
     2
176
     1
 91
        2
176
     1
 64
     7
176
     1
 65
   257
176
     1
 75
     1
176
     1
175
     1
176
     1
 42
40.0
176
     1
 92
        8
176
     1
 66
     7
176
     1
 43
1.0
176
     1
 76
     1
176
     1
 77
     6
176
     1
 78
     2
176
     1
 67
     7
176
     1
 79
     3
176
     1
170
     0
176
     1
171
     0
176
     1
290
     0
176
     1
 93
        1
176
     1
 44
0.0
176
     1
173
     0
176
     1
  0
VISUALSTYLE
  5
35
102
{ACAD_REACTORS
330
2A
102
}
330
2A
100
AcDbVisualStyle
  2
Dim
 70
    11
177
     2
291
     1
 71
     2
176
     1
 72
     2
176
     1
 73
     0
176
     1
 90
        0
176
     1
 40
-0.6
176
     1
 41
-30.0
176
     1
 62
     5
 63
     7
421
 16777215
176
     1
 74
     1
176
     1
 91
        4
176
     1
 64
     7
176
     1
 65
   257
176
     1
 75
     1
176
     1
175
     1
176
     1
 42
1.0
176
     1
 92
        8
176
     1
 66
     7
176
     1
 43
1.0
176
     1
 76
     1
176
     1
 77
     6
176
     1
 78
     2
176
     1
 67
     7
176
     1
 79
     5
176
     1
170
     0
176
     1
171
     0
176
     1
290
     0
176
     1
 93
        1
176
     1
 44
-50.0
176
     1
173
     0
176
     1
  0
VISUALSTYLE
  5
39
102
{ACAD_REACTORS
330
2A
102
}
330
2A
100
AcDbVisualStyle
  2
Facepattern
 70
    15
177
     2
291
     1
 71
     2
176
     1
 72
     2
176
     1
 73
     0
176
     1
 90
        0
176
     1
 40
-0.6
176
     1
 41
-30.0
176
     1
 62
     5
 63
     7
421
 16777215
176
     1
 74
     1
176
     1
 91
        4
176
     1
 64
     7
176
     1
 65
   257
176
     1
 75
     1
176
     1
175
     1
176
     1
 42
1.0
176
     1
 92
        8
176
     1
 66
     7
176
     1
 43
1.0
176
     1
 76
     1
176
     1
 77
     6
176
     1
 78
     2
176
     1
 67
     7
176
     1
 79
     5
176
     1
170
     0
176
     1
171
     0
176
     1
290
     0
176
     1
 93
        1
176
     1
 44
0.0
176
     1
173
     0
176
     1
  0
VISUALSTYLE
  5
2B
102
{ACAD_REACTORS
330
2A
102
}
330
2A
100
AcDbVisualStyle
  2
Flat
 70
     0
177
     2
291
     1
 71
     2
176
     1
 72
     1
176
     1
 73
     1
176
     1
 90
        2
176
     1
 40
-0.6
176
     1
 41
30.0
176
     1
 62
     5
 63
     7
421
 16777215
176
     1
 74
     0
176
     1
 91
        4
176
     1
 64
     7
176
     1
 65
   257
176
     1
 75
     1
176
     1
175
     1
176
     1
 42
1.0
176
     1
 92
        8
176
     1
 66
     7
176
     1
 43
1.0
176
     1
 76
     1
176
     1
 77
     6
176
     1
 78
     2
176
     1
 67
     7
176
     1
 79
     5
176
     1
170
     0
176
     1
171
     0
176
     1
290
     0
176
     1
 93
       13
176
     1
 44
0.0
176
     1
173
     0
176
     1
  0
VISUALSTYLE
  5
2C
102
{ACAD_REACTORS
330
2A
102
}
330
2A
100
AcDbVisualStyle
  2
FlatWithEdges
 70
     1
177
     2
291
     1
 71
     2
176
     1
 72
     1
176
     1
 73
     1
176
     1
 90
        2
176
     1
 40
-0.6
176
     1
 41
30.0
176
     1
 62
     5
 63
     7
421
 16777215
176
     1
 74
     1
176
     1
 91
        4
176
     1
 64
     7
176
     1
 65
   257
176
     1
 75
     1
176
     1
175
     1
176
     1
 42
1.0
176
     1
 92
        0
176
     1
 66
   257
176
     1
 43
1.0
176
     1
 76
     1
176
     1
 77
     6
176
     1
 78
     2
176
     1
 67
     7
176
     1
 79
     5
176
     1
170
     0
176
     1
171
     0
176
     1
290
     0
176
     1
 93
       13
176
     1
 44
0.0
176
     1
173
     0
176
     1
  0
VISUALSTYLE
  5
2D
102
{ACAD_REACTORS
330
2A
102
}
330
2A
100
AcDbVisualStyle
  2
Gouraud
 70
     2
177
     2
291
     1
 71
     2
176
     1
 72
     2
176
     1
 73
     1
176
     1
 90
        2
176
     1
 40
-0.6
176
     1
 41
30.0
176
     1
 62
     5
 63
     7
421
 16777215
176
     1
 74
     0
176
     1
 91
        4
176
     1
 64
     7
176
     1
 65
   257
176
     1
 75
     1
176
     1
175
     1
176
     1
 42
1.0
176
     1
 92
        0
176
     1
 66
     7
176
     1
 43
1.0
176
     1
 76
     1
176
     1
 77
     6
176
     1
 78
     2
176
     1
 67
     7
176
     1
 79
     5
176
     1
170
     0
176
     1
171
     0
176
     1
290
     0
176
     1
 93
       13
176
     1
 44
0.0
176
     1
173
     0
176
     1
  0
VISUALSTYLE
  5
2E
102
{ACAD_REACTORS
330
2A
102
}
330
2A
100
AcDbVisualStyle
  2
GouraudWithEdges
 70
     3
177
     2
291
     1
 71
     2
176
     1
 72
     2
176
     1
 73
     1
176
     1
 90
        2
176
     1
 40
-0.6
176
     1
 41
30.0
176
     1
 62
     5
 63
     7
421
 16777215
176
     1
 74
     1
176
     1
 91
        4
176
     1
 64
     7
176
     1
 65
   257
176
     1
 75
     1
176
     1
175
     1
176
     1
 42
1.0
176
     1
 92
        0
176
     1
 66
   257
176
     1
 43
1.0
176
     1
 76
     1
176
     1
 77
     6
176
     1
 78
     2
176
     1
 67
     7
176
     1
 79
     5
176
     1
170
     0
176
     1
171
     0
176
     1
290
     0
176
     1
 93
       13
176
     1
 44
0.0
176
     1
173
     0
176
     1
  0
VISUALSTYLE
  5
38
102
{ACAD_REACTORS
330
2A
102
}
330
2A
100
AcDbVisualStyle
  2
Linepattern
 70
    14
177
     2
291
     1
 71
     2
176
     1
 72
     2
176
     1
 73
     0
176
     1
 90
        0
176
     1
 40
-0.6
176
     1
 41
-30.0
176
     1
 62
     5
 63
     7
421
 16777215
176
     1
 74
     1
176
     1
 91
        4
176
     1
 64
     7
176
     1
 65
   257
176
     1
 75
     7
176
     1
175
     7
176
     1
 42
1.0
176
     1
 92
        8
176
     1
 66
     7
176
     1
 43
1.0
176
     1
 76
     1
176
     1
 77
     6
176
     1
 78
     2
176
     1
 67
     7
176
     1
 79
     5
176
     1
170
     0
176
     1
171
     0
176
     1
290
     0
176
     1
 93
        1
176
     1
 44
0.0
176
     1
173
     0
176
     1
  0
VISUALSTYLE
  5
33
102
{ACAD_REACTORS
330
2A
102
}
330
2A
100
AcDbVisualStyle
  2
Realistic
 70
     8
177
     2
291
     0
 71
     2
176
     1
 72
     2
176
     1
 73
     0
176
     1
 90
        0
176
     1
 40
-0.6
176
     1
 41
-30.0
176
     1
 62
     5
 63
     7
421
 16777215
176
     1
 74
     1
176
     1
 91
        0
176
     1
 64
     7
176
     1
 65
   257
176
     1
 75
     1
176
     1
175
     1
176
     1
 42
1.0
176
     1
 92
        8
176
     1
 66
     8
424
  7895160
176
     1
 43
1.0
176
     1
 76
     1
176
     1
 77
     6
176
     1
 78
     2
176
     1
 67
     7
176
     1
 79
     5
176
     1
170
     0
176
     1
171
     0
176
     1
290
     0
176
     1
 93
       13
176
     1
 44
0.0
176
     1
173
     0
176
     1
  0
VISUALSTYLE
  5
37
102
{ACAD_REACTORS
330
2A
102
}
330
2A
100
AcDbVisualStyle
  2
Thicken
 70
    13
177
     2
291
     1
 71
     2
176
     1
 72
     2
176
     1
 73
     0
176
     1
 90
        0
176
     1
 40
-0.6
176
     1
 41
-30.0
176
     1
 62
     5
 63
     7
421
 16777215
176
     1
 74
     1
176
     1
 91
        4
176
     1
 64
     7
176
     1
 65
   257
176
     1
 75
     1
176
     1
175
     1
176
     1
 42
1.0
176
     1
 92
       12
176
     1
 66
     7
176
     1
 43
1.0
176
     1
 76
     1
176
     1
 77
     6
176
     1
 78
     2
176
     1
 67
     7
176
     1
 79
     5
176
     1
170
     0
176
     1
171
     0
176
     1
290
     0
176
     1
 93
        1
176
     1
 44
0.0
176
     1
173
     0
176
     1
  0
ENDSEC
  0
EOF
