0
SECTION
2
HEADER
9
$INSUNITS
70
4
9
$ACADVER
1
AC1014
9
$HANDSEED
5
FFFF
0
ENDSEC
0
SECTION
2
TABLES
0
TABLE
2
VPORT
5
8
100
AcDbSymbolTable
0
ENDTAB
0
TABLE
2
LTYPE
5
5
100
AcDbSymbolTable
0
LTYPE
5
14
100
AcDbSymbolTableRecord
100
AcDbLinetypeTableRecord
2
BYBLOCK
70
0
0
LTYPE
5
15
100
AcDbSymbolTableRecord
100
AcDbLinetypeTableRecord
2
BYLAYER
70
0
0
ENDTAB
0
TABLE
2
LAYER
5
2
100
AcDbSymbolTable
70
2
0
LAYER
5
50
100
AcDbSymbolTableRecord
100
AcDbLayerTableRecord
2
0
70
0
6
CONTINUOUS
0
ENDTAB
0
TABLE
2
STYLE
5
3
100
AcDbSymbolTable
70
1
0
STYLE
5
11
100
AcDbSymbolTableRecord
100
AcDbTextStyleTableRecord
2
STANDARD
70
0
0
ENDTAB
0
TABLE
2
VIEW
5
6
100
AcDbSymbolTable
70
0
0
ENDTAB
0
TABLE
2
UCS
5
7
100
AcDbSymbolTable
70
0
0
ENDTAB
0
TABLE
2
APPID
5
9
100
AcDbSymbolTable
70
2
0
APPID
5
12
100
AcDbSymbolTableRecord
100
AcDbRegAppTableRecord
2
ACAD
70
0
0
ENDTAB
0
TABLE
2
DIMSTYLE
5
A
100
AcDbSymbolTable
70
1
0
ENDTAB
0
TABLE
2
BLOCK_RECORD
5
1
100
AcDbSymbolTable
70
1
0
BLOCK_RECORD
5
1F
100
AcDbSymbolTableRecord
100
AcDbBlockTableRecord
2
*MODEL_SPACE
0
BLOCK_RECORD
5
1B
100
AcDbSymbolTableRecord
100
AcDbBlockTableRecord
2
*PAPER_SPACE
0
ENDTAB
0
ENDSEC
0
SECTION
2
BLOCKS
0
BLOCK
5
20
100
AcDbEntity
100
AcDbBlockBegin
2
*MODEL_SPACE
0
ENDBLK
5
21
100
AcDbEntity
100
AcDbBlockEnd
0
BLOCK
5
1C
100
AcDbEntity
100
AcDbBlockBegin
2
*PAPER_SPACE
0
ENDBLK
5
1D
100
AcDbEntity
100
AcDbBlockEnd
0
ENDSEC
0
SECTION
2
ENTITIES
0
LWPOLYLINE
5
100
100
AcDbEntity
8
0
100
AcDbPolyline
90
40
70
1
43
0.0
10
-220
20
40
10
-200
20
100
10
-179,9981251805695
20
100
10
-179,9981251805695
20
97
10
-160
20
97
10
-160
20
100
10
-140
20
100
10
-140
20
97
10
-120,00000171363354
20
96,980106147223012
10
-120,00000171363354
20
100,00000149011612
10
-100,00000149011612
20
100,00000149011612
10
-100,00000149011612
20
97,000001490116119
10
-80
20
97,000001490116119
10
-80
20
100
10
-60
20
100
10
-60,000000000000007
20
97
10
-39,999999999999993
20
97,000000000000014
10
-40
20
100
10
-20
20
100
10
0
20
40
10
-25
20
0
10
-25
20
-3
10
-35,000000521540642
20
-3,0000000000000004
10
-35,000000521540642
20
0
10
-45,000000670552254
20
0
10
-45,000000670552254
20
-3
10
-55,00000037252903
20
-3,0000000000000004
10
-55,00000037252903
20
0
10
-65
20
0
10
-85
20
15
10
-135,00000000000003
20
15
10
-155
20
0
10
-165,00000230967999
20
0
10
-165,00000230967999
20
-3,0000000000000004
10
-175,0000024586916
20
-3
10
-175,0000024586916
20
0
10
-185,00000260770321
20
0
10
-185,00000260770321
20
-3,0000000000000004
10
-195
20
-2,9999999999999991
10
-195
20
0
0
LINE
5
101
100
AcDbEntity
8
0
100
AcDbLine
10
-179,9981251805695
20
100
30
0
11
-179,9981251805695
21
97
31
0
0
LINE
5
102
100
AcDbEntity
8
0
100
AcDbLine
10
-160
20
97
30
0
11
-160
21
100
31
0
0
LINE
5
103
100
AcDbEntity
8
0
100
AcDbLine
10
-40
20
100
30
0
11
-39,999999999999993
21
97,000000000000014
31
0
0
LINE
5
104
100
AcDbEntity
8
0
100
AcDbLine
10
-60,000000000000007
20
97
30
0
11
-60
21
100
31
0
0
LINE
5
105
100
AcDbEntity
8
0
100
AcDbLine
10
-140
20
97
30
0
11
-140
21
100
31
0
0
LINE
5
106
100
AcDbEntity
8
0
100
AcDbLine
10
-80
20
100
30
0
11
-80
21
97,000001490116119
31
0
0
LINE
5
107
100
AcDbEntity
8
0
100
AcDbLine
10
-40
20
100
30
0
11
-20
21
100
31
0
0
LINE
5
108
100
AcDbEntity
8
0
100
AcDbLine
10
-80
20
100
30
0
11
-60
21
100
31
0
0
LINE
5
109
100
AcDbEntity
8
0
100
AcDbLine
10
-160
20
100
30
0
11
-140
21
100
31
0
0
LINE
5
110
100
AcDbEntity
8
0
100
AcDbLine
10
-65
20
0
30
0
11
-55,00000037252903
21
0
31
0
0
LINE
5
111
100
AcDbEntity
8
0
100
AcDbLine
10
-35,000000521540642
20
0
30
0
11
-45,000000670552254
21
0
31
0
0
LINE
5
112
100
AcDbEntity
8
0
100
AcDbLine
10
-55,00000037252903
20
0
30
0
11
-65
21
0
31
0
0
LINE
5
113
100
AcDbEntity
8
0
100
AcDbLine
10
-180,0000025331974
20
40,000000596046448
30
0
11
-180,0000025331974
21
43,000000596046448
31
0
0
LINE
5
114
100
AcDbEntity
8
0
100
AcDbLine
10
-140,00000193715096
20
43,000000596046448
30
0
11
-140,00000193715096
21
40,000000596046448
31
0
0
LINE
5
115
100
AcDbEntity
8
0
100
AcDbLine
10
-100,00000134110451
20
43,000000596046448
30
0
11
-100,00000134110451
21
40,000000596046448
31
0
0
LINE
5
116
100
AcDbEntity
8
0
100
AcDbLine
10
-120,00000163912773
20
40,000000596046448
30
0
11
-120,00000163912773
21
44,000000655651093
31
0
0
LINE
5
117
100
AcDbEntity
8
0
100
AcDbLine
10
-60,00000074505806
20
43,000000596046448
30
0
11
-60,00000074505806
21
40,000000596046448
31
0
0
LINE
5
118
100
AcDbEntity
8
0
100
AcDbLine
10
-80,000001043081284
20
40,000000596046448
30
0
11
-80,000001043081284
21
44,000000655651093
31
0
0
LWPOLYLINE
5
119
100
AcDbEntity
8
0
100
AcDbPolyline
90
4
70
1
43
0.0
10
-40,000000447034836
20
40,000000596046448
10
-40,000000447034836
20
43,000000596046448
10
-60,00000074505806
20
43,000000596046448
10
-60,00000074505806
20
40,000000596046448
0
LINE
5
120
100
AcDbEntity
8
0
100
AcDbLine
10
-185,00000260770321
20
0
30
0
11
-175,0000024586916
21
0
31
0
0
LINE
5
121
100
AcDbEntity
8
0
100
AcDbLine
10
-165,00000230967999
20
0
30
0
11
-155
21
0
31
0
0
LWPOLYLINE
5
122
100
AcDbEntity
8
0
100
AcDbPolyline
90
4
70
1
43
0.0
10
-160,00000223517418
20
43,000000596046448
10
-180,0000025331974
20
43,000000596046448
10
-180,0000025331974
20
40,000000596046448
10
-160,00000223517418
20
40,000000596046448
0
LWPOLYLINE
5
123
100
AcDbEntity
8
0
100
AcDbPolyline
90
4
70
1
43
0.0
10
-120,00000163912773
20
43,000000596046448
10
-140,00000193715096
20
43,000000596046448
10
-140,00000193715096
20
40,000000596046448
10
-120,00000163912773
20
40,000000596046448
0
LWPOLYLINE
5
124
100
AcDbEntity
8
0
100
AcDbPolyline
90
4
70
1
43
0.0
10
-80,000001043081284
20
43,000000596046448
10
-100,00000134110451
20
43,000000596046448
10
-100,00000134110451
20
40,000000596046448
10
-80,000001043081284
20
40,000000596046448
0
LINE
5
125
100
AcDbEntity
8
0
100
AcDbLine
10
-40,000000447034836
20
43,000000596046448
30
0
11
-40,000000447034836
21
40,000000596046448
31
0
0
CIRCLE
5
126
100
AcDbEntity
8
0
100
AcDbCircle
10
-175,00000260770321
20
12,000000178813934
30
0
40
4,0000000596046448
0
CIRCLE
5
127
100
AcDbEntity
8
0
100
AcDbCircle
10
-45,000000670552254
20
12,000000178813934
30
0
40
4,0000000596046448
0
ENDSEC
0
SECTION
2
OBJECTS
0
DICTIONARY
5
C
100
AcDbDictionary
3
ACAD_GROUP
350
D
3
ACAD_MLINESTYLE
350
17
0
DICTIONARY
5
D
100
AcDbDictionary
0
DICTIONARY
5
1A
330
C
100
AcDbDictionary
0
DICTIONARY
5
17
100
AcDbDictionary
0
ENDSEC
0
EOF
